/* XPM */
static char *result[] = {
/* columns rows colors chars-per-pixel */
"64 55 74 1 ",
"  c #140A1F",
". c #150C22",
"X c #171223",
"o c #181526",
"O c #1A1C2A",
"+ c #1D222C",
"@ c #1E2632",
"# c #1F2934",
"$ c #202527",
"% c #202428",
"& c #2A3C2F",
"* c #202D36",
"= c #212F39",
"- c #223432",
"; c #243A37",
": c #23353C",
"> c #253B3D",
", c #2F422C",
"< c #27403E",
"1 c #2B4E3C",
"2 c #2E523B",
"3 c #355938",
"4 c #3D6235",
"5 c #416733",
"6 c #426833",
"7 c #263D41",
"8 c #274044",
"9 c #284445",
"0 c #2A4B45",
"q c #294748",
"w c #2A4B4B",
"e c #2D5342",
"r c #2D544C",
"t c #2F594D",
"y c #305D45",
"u c #315E4F",
"i c #2E5551",
"p c #2F5952",
"a c #305D52",
"s c #336746",
"d c #346846",
"f c #32634C",
"g c #366C4E",
"h c #3B7043",
"j c #37714D",
"k c #38754F",
"l c #3A7C4F",
"z c #336451",
"x c #356C51",
"c c #386E51",
"v c #377150",
"b c #387550",
"n c #3A7A50",
"m c #427940",
"M c #4A823D",
"N c #538C39",
"B c #5DA13F",
"V c #60A63D",
"C c #63AC3F",
"Z c #66B03F",
"A c #3D814E",
"S c #3C8050",
"D c #41844C",
"F c #468A4A",
"G c #498D49",
"H c #4E9347",
"J c #4D9348",
"K c #529746",
"L c #549A44",
"P c #589E43",
"I c #5CA441",
"U c #60A740",
"Y c #61AB40",
"T c None",
/* pixels */
"TTTTTTTTTTTTTTTTTTTTT. .....XX  ..X X X    TTTTTTTTTTTTTTTTTTTTT",
"TTTTTTTTTTTTTTTTTTTTTXXXXoXoooXXXXXXXXXXXXXTTTTTTTTTTTTTTTTTTTTT",
"TTTTTTTTTTTTTTTTTTTTT+++O+++$$$$+++$+++++++TTTTTTTTTTTTTTTTTTTTT",
"TTTTTTTTTTTTTTTTTTTT8>--&&,,,,,,,,,,,&&&-->8TTTTTTTTTTTTTTTTTTTT",
"TTTTTTTTTTTTTTTO#>qrr0e2234446666664443210errw>@OTTTTTTTTTTTTTTT",
"TTTTTTTTTTTTT.XO@>witufdl4MNNNNNNNNNNMm4ssuaiq7#Oo.TTTTTTTTTTTTT",
"TTTTTTTTTTTTToO+#8rpzjkAFHNBBZBBZBBBBLHAlkxzpw8*+OoTTTTTTTTTTTTT",
"TTTTTTTTTTTTOO+*>9rzvkAFKIIYZZZZZZZZCIILFDnvzr9>#@+OTTTTTTTTTTTT",
"TTTTTTTTTTTO@*=79rfgnAGKLICZZZZZZZZZYYILKAAAgfe9>:*OOTTTTTTTTTTT",
"TTTTTTTTTXoO@:7qruxkAGKIIVCCZCCCZZZZCYYIPLKAkgtr07:*Oo.TTTTTTTTT",
"TTTTTTTTToOO-7wafxklFHLBYYCBCCCCBZBZCCCCIPKAlkxzpw7=+OXTTTTTTTTT",
"TTTTTTTTOO@*>quzxvkAFHLBIYCCCCCCZZBZCCIBIPJGSnbzza0>*@OOTTTTTTTT",
"TTTTTTTO@#:7qrfcjkSSAHHLLCCCCCCCZBCCCBBLKJFAAAnkxfr0>:#@OTTTTTTT",
"TTTTT.o+#:70rfgbkllSAAAHAIPCCZZCZZCZCBBHGAAAAAknvcfr08:#OoXTTTTT",
"TTTTToO@:7wtzgbkklSAAAAAALPCCCCCBZZZBBAJASSlllllkkgzpw7:@OoTTTTT",
"TTTTOO+#70pzcnklSlSAAAAAAALLIBBBBBBBBBHASSlnkklllnvczp0>*+OOTTTT",
"TTTT#*:>0rfxbblllSllllnlAAHBNLLLLLNLKHAAlbbvjbkklknbxzre:=##TTTT",
"TTTT7770rfvbbllSllAlllllAAAGAAJLFGJHGGAAlbxxzzxknlnnbgfr0877TTTT",
"TTTTwwwufgknllllllllllllSSSSAAAAAAAAAASSlbxzuzzbnlnlnkvftrwwTTTT",
"TTTTwrpazjnlSlllSllllknnkllSAAAAAAlAlAlSlkxzpazxblAASbvzupiwTTTT",
"TTT7wiizxblSAllllllnnkvvvvSSkSkllllbllllkbzuppzvklSSSlbxzaiw7TTT",
".oO=7iizxblSSAlllllnkgxxxvvkSkAllllllllllkxuppzvkASAAlbxziw7=OXX",
"XXO#7wizxbkAlSAlAlSnvxfuzxjkkSllllllllSllbxapazxnlAAAkkvaiq7#Oo.",
"XoO@7wiaxkkklllllASbvxaufsjjSSllllSllllllbxzuuzvkklknnjzziq7#OXX",
".XO@:9iazxcbklllAllkvzpaaxvbllllllllllllnbvzzzzxcbbbvbxzaiw7+O..",
"XXO@7qiaazzcvkllAAAlvzupazvnlAAlSlSllSlllnkxxgxxzzzxzzzzai9:@Oo.",
"XoO@:qipapzzgbnnASAkvzapazvblllAllSllSSlllkkkvzzzaaaaaaapiw:@OXX",
".oO@7wipaapazcnnlllkvxuauxvllAllllllllllllAllkjzaaappapappw7#Oo.",
"XXO@>0ipaaazxcvvjkvvxxuzzxjnSSSAllSlllllllAllnjczzaazaaaaiq:@OXX",
"XXO@:0ipzzzxzxxxzxxxxzzxxbkllSkSAlllllllAllAllbvxzzxzzzzaiq>@Oo.",
".XO@70izzxxcxxazuuuzzxxvkklnllSllllllllllllAAlnkvvvvvcczaiq>@OXX",
".oO@:qiaxbbbxzapppaazxvlSlllllkSlllllSlllllllkkknnnnnbvxaiq>@Oo.",
".Xo#:qpavvkkvxzzaaaufgkllSllllbbkklkllllllnnnkllllSlSlvxziq:#OX.",
"XXO@:qizxvSkvxzfzuzxxjklASlllbvxjkkklSlSSbvgvgvbllSSSbkxziq:#Oo.",
".oO@:wizxblllvggvxxxkkllllllbvxxzxbnlAAllbvxzxvvklSASlbxziq:@Oo.",
".oO#:wizxblkSlljlklklllllASlkvxuuzvkllAllbxzuuzvklAlSbbxziq:@OXX",
"XoO#:wpzxbSSllllllllllllllllkxuapfxklSlAlbzzpauvllAlAkbxziq7#Oo.",
".oO=7wpzxbllAAlASllSlllllAllvxuapfxkllAllbxuppzxkllSAkbxzpw7*OXX",
"TTT>qipzxvllAlkSlSSlAllAllSlbvuppuxjlAAAlvxzpazvklSSAkkxaaiq>TTT",
"TTTTwippxvllSSSllllllllllSSkvvzaazxklSAllvxupauvkSSSAkkszpirTTTT",
"TTTTwwipfjkSlllllAlllllllAllkgzuauxbblllbvxuzaxvknnnnbgfpiwwTTTT",
"TTTT99q0tzxkkllSlllAlllAllllkvgzzxxxvvvvvxxzuzxvlllnbvsrw999TTTT",
"TTTT#::<0tzvbnSSSAlllllllllllvvgxxxzzxxzxxzxxvvnlnnbvzu0>>*=TTTT",
"TTTTOO@-<0azxbbSllllllllAlllllkkvxxuuapaauzvvblnllbvzaw>*@+OTTTT",
"TTTTooO@:9razjkllllllllllAllllllbvxaappapuxvbnnnkbvzar8:@OoXTTTT",
"TTTTTXOO#>8wtfxkkllSlSlSllllllSllvxzuaaazxvblSSnbjftw8>*@oXTTTTT",
"TTTTTTXO@#:<0tzxjnSSSSSSSSllSlSSSkvxxxxxxvbnSSnvcft07:#@OXTTTTTT",
"TTTTTTTTO+@*>0pzxvkSSSSSAlSAlSlSllkkbvvvbnnSnnvvzu0>*@@OTTTTTTTT",
"TTTTTTTTooO@:qrazvkkklllnlklnnnSlkklknnnlkkkkkjzar8:@OooTTTTTTTT",
"TTTTTTTTTXoO#7wpaffddds4sgjkbbbbnbnkkkdd4dddssfutw7=OoXTTTTTTTTT",
"TTTTTTTTTTXO#7wiee111111eyszxxxxxxxxgfye011111eriw7#OXTTTTTTTTTT",
"TTTTTTTTTTTTTTTT<;------;eeuzzzauzzzue1<;-----;<TTTTTTTTTTTTTTTT",
"TTTTTTTTTTTTTTTTT+++OOO@*>qipappppapi9>*+++oO++TTTTTTTTTTTTTTTTT",
"TTTTTTTTTTTTTTTTTXXXXo.o+:9ippppppapr9:+oXXXoXoTTTTTTTTTTTTTTTTT",
"TTTTTTTTTTTTTTTTT......o+=8wpppiipppr8*+XX  ...TTTTTTTTTTTTTTTTT"
};
