/* XPM */
static char *result[] = {
/* columns rows colors chars-per-pixel */
"50 50 161 2 ",
"   c #000000",
".  c #0C0202",
"X  c #05070D",
"o  c #05080E",
"O  c gray6",
"+  c #140305",
"@  c #1C0506",
"#  c #1F1404",
"$  c #080C15",
"%  c #0B101C",
"&  c #220608",
"*  c #29070A",
"=  c #2B0B0A",
"-  c #3C0E07",
";  c #33080C",
":  c #3D0A0F",
">  c #311309",
",  c #162138",
"<  c #2F2F2F",
"1  c #2D2035",
"2  c #3C3C3C",
"3  c #470C11",
"4  c #510E14",
"5  c #5B0F17",
"6  c #6C190D",
"7  c #651119",
"8  c #72141B",
"9  c #7A151E",
"0  c #5E3D0E",
"q  c #551520",
"w  c #7F1520",
"e  c #792722",
"r  c #1B2743",
"t  c #1C2946",
"y  c #1E2D4D",
"u  c #3E2741",
"i  c #213154",
"p  c #25375D",
"a  c #383153",
"s  c #273962",
"d  c #2B3F6C",
"f  c #363E69",
"g  c #663A60",
"h  c #2D4270",
"j  c #354270",
"k  c #324A7E",
"l  c gray31",
"z  c #5E5E5E",
"x  c #664471",
"c  c gray49",
"v  c #80171F",
"b  c #8B2011",
"n  c #972312",
"m  c #8B351C",
"M  c #A5231B",
"N  c #AD261B",
"B  c #B52A15",
"V  c #A33314",
"C  c #841621",
"Z  c #891722",
"A  c #8E1823",
"S  c #9B1A27",
"D  c #A31C29",
"F  c #992B20",
"G  c #89253A",
"H  c #AF2027",
"J  c #A9292B",
"K  c #B22126",
"L  c #BB2525",
"P  c #B93928",
"I  c #D6311C",
"U  c #E2351B",
"Y  c #EC371D",
"T  c #F2391D",
"R  c #C02624",
"E  c #C52923",
"W  c #CB2A22",
"Q  c #D42E21",
"!  c #D92F20",
"~  c #DE3120",
"^  c #D73A23",
"/  c #855614",
"(  c #F3451F",
")  c #F34B1E",
"_  c #F4531F",
"`  c #C74A28",
"'  c #D74022",
"]  c #D75C25",
"[  c #E14524",
"{  c #F44E22",
"}  c #E95C22",
"|  c #F55621",
" . c #F66420",
".. c #F76924",
"X. c #F86D25",
"o. c #E57C26",
"O. c #F87225",
"+. c #F77923",
"@. c #FA7F28",
"#. c #834979",
"$. c #EB8426",
"%. c #F88123",
"&. c #F98823",
"*. c #F29526",
"=. c #FB9625",
"-. c #FB9B26",
";. c #FCA326",
":. c #FCA728",
">. c #FCAB2B",
",. c #FCAD3F",
"<. c #FCB632",
"1. c #FCBB36",
"2. c #FCC33B",
"3. c #FCC83F",
"4. c #DC9D42",
"5. c #FCAE41",
"6. c #E6B347",
"7. c #FCCC40",
"8. c #F0CA4C",
"9. c #FCCF4B",
"0. c #FCD346",
"q. c #F6D74E",
"w. c #FCD748",
"e. c #FCDA4B",
"r. c #FADF50",
"t. c #FCE04E",
"y. c #FCE351",
"u. c #FCE45A",
"i. c #FCC262",
"p. c #FCD471",
"a. c #FCE665",
"s. c #FCE76E",
"d. c #FCEA7C",
"f. c #354D84",
"g. c #37518A",
"h. c #38528C",
"j. c #3C5895",
"k. c #79568F",
"l. c #4363A8",
"z. c #496BB6",
"x. c #7063A6",
"c. c #4E72C2",
"v. c #547BD2",
"b. c #5C7DD4",
"n. c #577FD9",
"m. c #6377C9",
"M. c #5881DA",
"N. c #5A84E0",
"B. c #989898",
"V. c #A5A5A5",
"C. c #FDCB84",
"Z. c #FDEE98",
"A. c #FDF0A5",
"S. c #FDF1A8",
"D. c #FDF4BB",
"F. c #C3C3C3",
"G. c #FEF6C8",
"H. c #FEF7D2",
"J. c #FEFBE5",
"K. c #FEFCF4",
"L. c #FFFFFF",
/* pixels */
"N.N.N.N.N.N.N.N.N.N.N.N.N.N.N.N.N.N.N.N.N.N.N.N.N.N.N.N.N.N.N.N.N.N.N.N.N.N.N.N.N.N.N.N.N.N.N.N.N.N.",
"N.N.N.N.N.N.N.N.N.N.N.N.N.N.N.N.N.N.N.N.N.N.N.N.N.N.N.N.N.N.N.N.N.N.N.N.N.N.N.N.N.N.N.N.N.N.N.N.N.N.",
"N.N.N.N.N.N.N.N.N.N.N.N.N.N.N.N.N.N.N.N.N.N.N.N.N.N.N.N.N.N.N.N.N.N.N.N.N.N.N.N.N.N.N.N.N.N.N.N.N.N.",
"N.N.N.N.N.N.N.N.N.N.N.N.N.N.N.N.N.N.N.N.N.N.N.N.N.N.N.N.N.N.N.N.N.N.N.N.N.N.N.N.N.N.N.N.N.N.N.N.N.N.",
"N.N.N.N.N.N.N.N.N.N.N.N.N.N.N.N.N.N.N.N.N.N.N.    t j.M.N.N.N.N.N.N.N.N.N.N.N.N.N.N.N.N.N.N.N.N.N.N.",
"N.N.N.N.N.N.N.N.N.N.N.N.N.N.N.N.N.N.N.N.N.j.s 5 5 ;   v.N.N.N.N.N.N.N.N.N.N.N.N.N.N.N.N.N.N.N.N.N.N.",
"N.N.N.N.N.N.N.N.N.N.N.N.N.N.N.N.N.N.N.N.N.s   D D 5   v.N.N.N.N.N.N.N.N.N.N.N.N.N.N.N.N.N.N.N.N.N.N.",
"N.N.N.N.N.N.N.N.N.N.N.N.N.N.N.N.N.N.N.N.N.s   D D D D .   i N.N.N.N.N.N.N.N.N.N.N.N.N.N.N.N.N.N.N.N.",
"N.N.N.N.N.N.N.N.N.N.N.N.N.N.N.N.N.N.N.N.x.3   D D D D ; &   h.N.N.N.N.N.N.N.N.N.N.N.N.N.N.N.N.N.N.N.",
"N.N.N.N.N.N.N.N.N.N.N.N.N.N.N.N.N.N.N.M.a 4 4 D H W K D C   t h N.N.N.N.N.N.N.N.N.N.N.N.N.N.N.N.N.N.",
"N.N.N.N.N.N.N.N.N.N.N.N.N.N.N.N.N.N.M.v.  5 D D K T L D S w *   N.N.N.N.N.N.N.N.N.N.N.N.N.N.N.N.N.N.",
"N.N.N.N.N.N.N.N.N.N.N.N.N.N.N.N.N.p o X   5 D T Y T Y Y D D W U o o f.N.N.N.N.N.N.N.N.N.N.N.N.N.N.N.",
"N.N.N.N.N.N.N.N.N.N.N.N.N.N.N.N.N.i   D 9 8 K _ ) ) ) ) T T L D @ & f z.N.N.N.N.N.N.N.N.N.N.N.N.N.N.",
"N.N.N.N.N.N.N.N.N.N.N.N.N.N.N.b.k.1   E Q _  .;.;.;.;.;... .' E D D 3   N.N.N.N.N.k l.N.N.N.N.N.N.N.",
"N.N.N.N.N.N.N.N.N.N.N.N.N.N.N.m.D :   T T O.;.;.;.;.;.;.;.;. .T ! E C 8 t d N.N.N.  s N.N.N.N.N.N.N.",
"N.N.N.N.N.N.N.N.N.N.N.N.g.% G G + b I =.=.-.;.;.;.;.;.;.;.;. .T T ! D D   , N.y % A q % v.N.N.N.N.N.",
"N.N.N.N.N.N.N.N.N.N.c.c.j + v v # V ( ;.;.;.;.;.>.:.;.;.;.;._ T T T E D   , N.,   D 5   v.N.N.N.N.N.",
"N.N.N.N.N.N.N.N.N.M.$   3 D + # ;.;.;.;.;.;.;.;.y.3.;.:.;.;.+. . ._ ^ R   , N.,   D 5   v.N.N.N.N.N.",
"N.N.N.N.N.N.N.N.N.N.j.h.g D + # ;.;.;.;.;.;.2.7.y.w.3.7.2.;.:.;.;.=.X.( n e i $   Q M 7 b.N.N.N.N.N.",
"N.N.N.N.N.N.N.N.N.N.M.M.k.W @ # ;.;.;.;.;.;.0.y.y.y.y.y.w.;.;.;.:.=.@.( T B       T Q D b.N.N.N.N.N.",
"N.N.N.N.N.N.N.N.N.N.$ . 6 T =.;.;.;.;.;.:.3.y.y.y.y.y.y.t.y.2.;.;.%.T X.T T T T T D #.N.N.N.N.N.N.N.",
"N.N.N.N.N.N.N.N.N.N.o D E T =.;.;.;.;.:.y.t.y.y.y.y.y.y.t.y.1.;.;.%.T O.) ) T T T 8 x N.N.N.N.N.N.N.",
"N.N.N.N.N.N.N.c.s s   D E _ -.;.;.;.;.3.y.y.y.y.y.y.y.y.y.y.1.;.;.@.T O.%.X.T b 6   s N.N.N.N.N.N.N.",
"N.N.N.N.N.N.N.l.      D E ..-.;.;.;.;.y.y.y.y.y.y.y.y.y.y.t.w.0.;.-.&.| P F - .   l.c.N.N.N.N.N.N.N.",
"N.N.N.N.N.N.N.l.    U D E ..-.:.;.7.y.y.y.y.y.y.y.y.y.y.y.y.y.y.;.;.;.) D 9   l.N.N.N.N.N.N.N.N.N.N.",
"N.N.N.N.N.N.N.l.  N ~ T  .;.;.;.>.0.y.y.y.y.y.y.y.y.y.y.y.y.y.y.y.0.;.) D 9   k l.N.N.N.N.N.N.N.N.N.",
"N.N.N.N.N.N.N.l.  9 D T ..;.;.;.1.y.Z.S.S.d.y.y.y.y.y.y.a.S.S.S.y.w.2.+.E K 4 +   N.N.N.N.N.N.N.N.N.",
"N.N.N.N.N.N.N.l.  9 D L ] ;.;.;.i.G.K.L.L.H.s.y.y.y.y.y.G.L.L.L.G.A.y.0.T I D =   s N.N.N.N.N.N.N.N.",
"N.N.N.N.N.N.N.l.  9 D D ` =.;.,.K.L.2 O l L.d.y.y.y.y.y.L.V.O O L.L.Z.y.=.o.D S     o o v.N.N.N.N.N.",
"N.N.N.N.N.N.  * D ! T ( @.=.;.5.L.L.<   l L.d.y.y.y.y.y.L.V.    L.L.C.;.:.$.K K K @     v.N.N.N.N.N.",
"N.N.N.N.N.N.  * D R Q { @.=.;.5.L.L.c z B.L.d.y.y.y.y.y.L.F.z z L.J.p.>.;.&.T T T C     v.N.N.N.N.N.",
"N.N.N.N.N.M.  + 3 Z D { %.=.;.9.D.L.L.L.L.D.a.y.y.y.y.y.S.L.L.L.K.d.y.>.;.&.T T T C     v.N.N.N.N.N.",
"N.N.N.N.N.N.      w D ( %.=.:.u.u.a.a.a.a.u.y.y.y.y.y.y.a.a.a.a.a.y.2.:.;.=.O.{ T Z     v.N.N.N.N.N.",
"N.N.N.N.N.N.N.l.  9 D ( %.=.;.>.e.e.y.8.8.8.8.8.8.8.8.8.8.8.8.r.y.q.1.;.;.-.%.{ T Z .   v.N.N.N.N.N.",
"N.N.N.N.N.N.N.l.  w D { @.=.;.;.;.7.y.D D D D D D D D D D D S 8.q.;.;.;.;.-.@.) T D 5   v.N.N.N.N.N.",
"N.N.N.N.N.N.N.l.  ; S E ` $.;.;.;.3.y.D D D D D D D D D D D S 8.e.;.%. . . .| ( T 3 u k n.N.N.N.N.N.",
"N.N.N.N.N.N.N.l.    S D D K *.:.;.7.y.6.D D D D D D S D D D o.u.e.:. .T T T T T T   s N.N.N.N.N.N.N.",
"N.N.N.N.N.N.N.N.N.M.X & D D Y T  .;.w.q.J J J J J J J J J J 4.| T T T T           N.N.N.N.N.N.N.N.N.",
"N.N.N.N.N.N.N.N.N.N.r 1 9 9 N I } :.w.y.y.y.y.y.u.y.y.y.y.0.0.[ I B B B   o , , , N.N.N.N.N.N.N.N.N.",
"N.N.N.N.N.N.N.N.N.N.N.z.      D ` ;.1.y.y.y.y.y.y.y.y.y.w.;.;.J A         , N.N.N.N.N.N.N.N.N.N.N.N.",
"N.N.N.N.N.N.N.N.N.N.N.M.l.l.$ * > m P <.y.y.y.y.y.y.y.y.w.;./ = &   p l.l.z.N.N.N.N.N.N.N.N.N.N.N.N.",
"N.N.N.N.N.N.N.N.N.N.N.N.M.N.%     7 D >.y.y.y.y.y.y.y.y.w.:.0       k N.N.N.N.N.N.N.N.N.N.N.N.N.N.N.",
"N.N.N.N.N.N.N.N.N.N.N.N.N.N.N.N.N.i                             N.N.N.N.N.N.N.N.N.N.N.N.N.N.N.N.N.N.",
"N.N.N.N.N.N.N.N.N.N.N.N.N.N.N.N.M.j.s s s s s s s s s s s s s s N.N.N.N.N.N.N.N.N.N.N.N.N.N.N.N.N.N.",
"N.N.N.N.N.N.N.N.N.N.N.N.N.N.N.N.N.N.N.N.N.N.N.N.N.N.N.N.N.N.N.N.N.N.N.N.N.N.N.N.N.N.N.N.N.N.N.N.N.N.",
"N.N.N.N.N.N.N.N.N.N.N.N.N.N.N.N.N.N.N.N.N.N.N.N.N.N.N.N.N.N.N.N.N.N.N.N.N.N.N.N.N.N.N.N.N.N.N.N.N.N.",
"N.N.N.N.N.N.N.N.N.N.N.N.N.N.N.N.N.N.N.N.N.N.N.N.N.N.N.N.N.N.N.N.N.N.N.N.N.N.N.N.N.N.N.N.N.N.N.N.N.N.",
"N.N.N.N.N.N.N.N.N.N.N.N.N.N.N.N.N.N.N.N.N.N.N.N.N.N.N.N.N.N.N.N.N.N.N.N.N.N.N.N.N.N.N.N.N.N.N.N.N.N.",
"N.N.N.N.N.N.N.N.N.N.N.N.N.N.N.N.N.N.N.N.N.N.N.N.N.N.N.N.N.N.N.N.N.N.N.N.N.N.N.N.N.N.N.N.N.N.N.N.N.N.",
"N.N.N.N.N.N.N.N.N.N.N.N.N.N.N.N.N.N.N.N.N.N.N.N.N.N.N.N.N.N.N.N.N.N.N.N.N.N.N.N.N.N.N.N.N.N.N.N.N.N."
};
