/* XPM */
static char *result[] = {
/* columns rows colors chars-per-pixel */
"64 64 203 2 ",
"   c #00001F",
".  c #070B25",
"X  c #060C29",
"o  c #0A0D29",
"O  c #000425",
"+  c #180D2B",
"@  c #0C142C",
"#  c #13142D",
"$  c #1C142E",
"%  c #15192E",
"&  c #1A1B2F",
"*  c #1C1F30",
"=  c #280E2D",
"-  c #25162E",
";  c #2B112F",
":  c #211F2D",
">  c #3F172F",
",  c #2E1531",
"<  c #251A30",
"1  c #2A1C31",
"2  c #3C1732",
"3  c #3C1933",
"4  c #301E30",
"5  c #1F2232",
"6  c #1F202F",
"7  c #24232E",
"8  c #28262E",
"9  c #2E2A2E",
"0  c #2C2C33",
"q  c #272A34",
"w  c #322E31",
"e  c #2F3037",
"r  c #2F3139",
"t  c #333135",
"y  c #343539",
"u  c #38383B",
"i  c #3F352E",
"p  c #541E2D",
"a  c #441631",
"s  c #451933",
"d  c #491D35",
"f  c #481734",
"g  c #511A33",
"h  c #621E38",
"j  c #6D1F38",
"k  c #651E37",
"l  c #721F39",
"z  c #42372F",
"x  c #55293A",
"c  c #433637",
"v  c #6E213A",
"b  c #68263C",
"n  c #72233B",
"m  c #7A233C",
"M  c #78293A",
"N  c #3E413E",
"B  c #51412F",
"V  c #4B463D",
"C  c #5A4B34",
"Z  c #675434",
"A  c #645639",
"S  c #66583A",
"D  c #6A5939",
"F  c #614C31",
"G  c #7A6B3F",
"H  c #333744",
"J  c #343846",
"K  c #333848",
"L  c #2B3245",
"P  c #413646",
"I  c #543045",
"U  c #6E3546",
"Y  c #4B4942",
"T  c #454540",
"R  c #514F44",
"E  c #5A5947",
"W  c #5A5848",
"Q  c #4E5152",
"!  c #6C4C47",
"~  c #655E46",
"^  c #65505F",
"/  c #66634B",
"(  c #69664C",
")  c #6C6A4E",
"_  c #6B6144",
"`  c #706C4F",
"'  c #796847",
"]  c #6A6C5E",
"[  c #6B6B54",
"{  c #736E50",
"}  c #787352",
"|  c #686B6B",
" . c #7D7C6A",
".. c #626B73",
"X. c #657174",
"o. c #6C7277",
"O. c #7D757D",
"+. c #84273E",
"@. c #882936",
"#. c #9D2D3F",
"$. c #AD333D",
"%. c #BA383A",
"&. c #C23B38",
"*. c #D63E3D",
"=. c #DA3F3D",
"-. c #856634",
";. c #8F7138",
":. c #A27C38",
">. c #DE423A",
",. c #E4433B",
"<. c #892C41",
"1. c #972A41",
"2. c #9A2B41",
"3. c #AD2E45",
"4. c #A42C43",
"5. c #B22F46",
"6. c #B43143",
"7. c #B93145",
"8. c #C43740",
"9. c #C73840",
"0. c #C93841",
"q. c #847D55",
"w. c #877154",
"e. c #80764F",
"r. c #A4823E",
"t. c #B68C3C",
"y. c #CF9B3B",
"u. c #D19F3E",
"i. c #888459",
"p. c #928B5C",
"a. c #9B8D5D",
"s. c #98915D",
"d. c #A58540",
"f. c #A58B48",
"g. c #B19146",
"h. c #A59353",
"j. c #A9995B",
"k. c #AB904A",
"l. c #ABA05F",
"z. c #9E9664",
"x. c #80857E",
"c. c #A69D63",
"v. c #A09760",
"b. c #A7A164",
"n. c #ADA465",
"m. c #ADA86D",
"M. c #ADA869",
"N. c #B0A666",
"B. c #B6AB67",
"V. c #BDB26B",
"C. c #AAA77F",
"Z. c #B5B079",
"A. c #D2A545",
"S. c #D7AA48",
"D. c #CBAE56",
"F. c #D3AE50",
"G. c #D9B353",
"H. c #E1BB56",
"J. c #C3B66D",
"K. c #C8BA6C",
"L. c #D8BC60",
"P. c #C8AF63",
"I. c #E7C05A",
"U. c #DCC96F",
"Y. c #DDC062",
"T. c #D4C975",
"R. c #DDCF76",
"E. c #DDD177",
"W. c #DED279",
"Q. c #CFC269",
"!. c #E9D069",
"~. c #E3D579",
"^. c #EADC7B",
"/. c #E2D277",
"(. c #EFD36E",
"). c #ECE07D",
"_. c #F5E17A",
"`. c #F5E379",
"'. c #959896",
"]. c #A8A984",
"[. c #A7AC96",
"{. c #AFB19B",
"}. c #9EAAA6",
"|. c #A6AEA3",
" X c #A5B2AA",
".X c #AAB2AA",
"XX c #B6BDAF",
"oX c #BEC5B9",
"OX c #DCD183",
"+X c #CBC798",
"@X c #D9D599",
"#X c #E3D485",
"$X c #F7E881",
"%X c #F1E99C",
"&X c #D7D9B1",
"*X c #CDD3B9",
"=X c #EAE7AD",
"-X c #D5DCC1",
";X c #D4DECD",
":X c #DADFC2",
">X c #DAE4D2",
",X c #ECF2D0",
"<X c None",
/* pixels */
"<X<X<X<X<X<X<X<X<X<X<X<X<X<X<X<X<X<X<X<X<X<X<X<X<X<X<X<X<X<X<X<X<X<X<X<X<X<X<X<X<X<X<X<X<X<X<X<X<X<X<X<X<X<X<X<X<X<X<X<X<X<X<X<X",
"<X<X<X<X<X<X<X<X<X<X<X<X<X<X<X<X<X<X<X<X<X<X<X<X<X<X<X<X<X<X<X<X<X<X<X<X<X<X<X<X<X<X<X<X<X<X<X<X<X<X<X<X<X<X<X<X<X<X<X<X<X<X<X<X",
"<X<X<X<X<X<X<X<X<X<X<X<X<X<X<X<X<X<X<X<X<X<X<X<X<X<X<X<X<X<X<X<X<X<X<X<X<X<X<X<X<X<X<X<X<X<X<X<X<X<X<X<X<X<X<X<X<X<X<X<X<X<X<X<X",
"<X<X<X<X<X<X<X<X<X<X<X<X<X<X<X<X<X<X<X<X<X<X<X<X<X<X<X<X<X<X<X<X<X<X<X<X<X<X<X<X<X<X<X<X<X<X<X<X<X<X<X<X<X<X<X<X<X<X<X<X<X<X<X<X",
"<X<X<X<X<X<X<X<X<X<X<X<X<X<X<X<X<X<X<X<X<X<X<X<X<X<X<X<X<X<X<X<X<X<X<X<X<X<X<X<X<X<X<X<X<X<X<X<X<X<X<X<X<X<X<X<X<X<X<X<X<X<X<X<X",
"<X<X<X<X<X<X<X<X<X<X<X<X<X<X<X<X<X<X<X<X<X<X<X<X<X<X<X<X<X<X<X<X<X<X<X<X<X<X<X<X<X<X<X<X<X<X<X<X<X<X<X<X<X<X<X<X<X<X<X<X<X<X<X<X",
"<X<X<X<X<X<X<X<X<X<X<X<X<X<X<X<X<X<X<X<X<X<X<X<X<X<X<X<X<X<X<X<X<X<X<X<X<X<X<X<X<X<X<X<X<X<X<X<X<X<X<X<X<X<X<X<X<X<X<X<X<X<X<X<X",
"<X<X<X<X<X<X<X<X<X<X<X<X<X<X<X<X<X<X<X<X<X<X<X<X<X<X<X<X<X<X<X<X<X<X<X<X<X<X<X<X<X<X<X<X<X<X<X<X<X<X<X<X<X<X<X<X<X<X<X<X<X<X<X<X",
"<X<X<X<X<X<X<X<X<X<X<X<X<X<X<X<X<X<X<X<X<X<X<X<X<X<X<X<X<X<X<X<X<X<X<X<X<X<X<X<X<X<X<X<X<X<X<X<X<X<X<X<X<X<X<X<X<X<X<X<X<X<X<X<X",
"<X<X<X<X<X<X<X<X<X<X<X<X<X<X<X<X<X<X<X<X<X<X<X<X<X<X<X<X<X<X<X<X<X<X<X<X<X<X<X<X<X<X<X<X<X<X<X<X<X<X<X<X<X<X<X<X<X<X<X<X<X<X<X<X",
"<X<X<X<X<X<X<X<X<X<X<X<X<X<X<X<X<X<X<X<X<X<X<X<X<X<X<X<X<X<X<X<X<X<X<X<X<X<X<X<X<X<X<X<X<X<X<X<X<X<X<X<X<X<X<X<X<X<X<X<X<X<X<X<X",
"<X<X<X<X<X<X<X<X<X<X<X<X<X<X<X<X<X<X<X<X<X<X<X<X<X<X<X<X<X<X<X<X<X<X<X<X<X<X<X<X<X<X<X<X<X<X<X<X<X<X<X<X<X<X<X<X<X<X<X<X<X<X<X<X",
"<X<X<X<X<X<X<X<X<XX X @ @ # # <X<X<X<X<X<X<X<X<X<X<X<X<X<X<X<X<X<X<X<X<X<X<X<X<X<X<X<X<X<X<X<X<X<X% % @ o o X <X<X<X<X<X<X<X<X<X",
"<X<X<X<X<X<X<X<X% % % % % % % % <X<X<X<X<X<X<X<X<X<X<X<X<X<X<X<X<X<X<X<X<X<X<X<X<X<X<X<X<X<X<X<X% % % % % % % % <X<X<X<X<X<X<X<X",
"<X<X<X<X<X<X<X<Xy y r q 5 & % # <X<X<X<X<X<X<X<X<X<X<X<X<X<X<X<X<X<X<X<X<X<X<X<X<X<X<X<X<X<X<X<X# % % 5 q r y H <X<X<X<X<X<X<X<X",
"<X<X<X<X<X<X<XT E ~ E T y 5 % @ @ <X<X<X<X<X<X<X<X<X<X<X<X<X<X<X<X<X<X<X<X<X<X<X<X<X<X<X<X<X<X@ @ % 5 y T E ~ W Y <X<X<X<X<X<X<X",
"<X<X<X<X<X% y E i.s.p.{ V q % @ X @ @ @ @ @ @ @ @ @ @ @ @ @ @ @ @ @ @ @ @ @ @ @ @ @ @ @ @ @ @ @ @ % q Y { p.s.i.E e % <X<X<X<X<X",
"<X<X<X<XX % y ( s.J.V.s./ y % @ @ % % % % % % % % % % % % % % % % % % % % # % % % % % % # % % @ o % r ~ s.V.K.s.( t % X <X<X<X<X",
"<X<X<X<XX % y ( l.E.E.N.) y % # $ : 1 1 8 < 7 < < < 1 8 7 < < q 7 1 7 < < 1 1 1 7 < < 1 1 1 < # # & y [ M.E.E.l.) y % X <X<X<X<X",
"<X<X<X<XX % y ) M.E.E.N.` y * $ , 3 d d d d d d d d d d d d d d d d d d d d f f d d d d d d s , $ & y ` M.E.E.M.) y % X <X<X<X<X",
"<X<X<X<XX % y ) n.E.E.M.) y : ; s b n n U l n n v n n b n n n n U n U l j j n U U n v U l v b s , < y ` M.E.E.M.) y % X <X<X<X<X",
"<X<X<X<XX % y ) n.E.E.M.) y 1 > h +.1.2.2.2.1.1.1.2.2.2.2.1.1.#.1.1.1.1.#.#.1.1.2.1.#.2.#.#.+.h 2 < y ) M.E.E.M.) y % X <X<X<X<X",
"<X<X<X<XX % y [ m.OXOXm.[ u 1 d n #.5.7.7.6.5.6.6.6.6.6.6.6.5.5.5.5.5.5.5.5.7.7.5.5.5.7.$.5.#.j s 1 y ) M.OXOXm.) y % X <X<X<X<X",
"<X<X<X<XX % u ] ].@X@XC.] H 1 g @.$.9.0.*.0.0.0.0.9.0.0.9.9.0.0.&.8.8.*.0.0.0.0.&.8.8.*.*.&.%.@.f 4 u | C.@X@XC.] u & X <X<X<X<X",
"<X<X<X<X. % H | [.&X&X[.| u 8 p @.%.*.,.=.=.=.*.*.*.*.*.*.*.*.=.=.=.*.*.*.*.*.*.=.*.=.=.>.=.&.@.p 8 J ] [.&X&X[.| H % . <X<X<X<X",
"<X<X<X<Xo % H | [.-X&X|.X.J 1 p @.&.>.,.,.>.=.,.=.,.>.>.>.>.>.>.,.=.>.>.>.,.,.=.>.>.=.,.,.=.&.@.p 8 J X.|.:X*X|.X.J % . <X<X<X<X",
"<X<X<X<X. % K | |.-X:X|.X.u 4 p @.%.>.,.,.=.>.=.>.>.>.>.>.>.>.>.,.=.=.=.>.>.>.>.=.=.>.,.,.=.&.@.p 4 H X.{.-X*X{.X.H & . <X<X<X<X",
"<X<X<X<X. & H | [.&X&X[.| H 4 p @.%.*.*.*.*.*.*.*.*.*.*.=.*.*.=.*.*.=.=.*.*.*.*.*.*.*.*.=.*.%.@.p 4 H | [.&X&X[.| y % . <X<X<X<X",
"<X<X<X<Xo % u ] C.@X@X].] u 1 d @.$.&.0.&.0.&.9.&.&.&.0.0.0.&.0.0.&.0.0.&.0.&.0.9.9.&.0.0.&.$.m f 1 u ] C.@X@XC.] H % . <X<X<X<X",
"<X<X<X<Xo % y [ m.W.OXm.[ y 1 s j #.5.7.7.7.5.5.7.7.5.5.5.5.5.5.7.5.5.7.%.5.5.7.5.5.5.7.8.$.#.n d 1 y [ m.OXOXm.` y % X <X<X<X<X",
"<X<X<X<X. % y ) n.R.R.n.) y < s v #.$.5.5.5.3.4.4.2.1.#.#.#.+.2.1.1.#.+.#.2.2.4.4.3.5.5.5.3.1.n s 1 y ) N.E.R.n.) y % X <X<X<X<X",
"<X<X<X<XX % y ( n.R.R.n.) y 1 s v #.3.5.5.5.4.1.+.l j j j j l j j l j j k j l +.1.4.5.5.5.5.1.l s 1 y ) n.U.R.n.) y % o <X<X<X<X",
"<X<X<X<X. % y ) l.R.E.M.) y 1 a l 2.5.7.5.5.4.+.v g a 2 2 a a a a a a 2 2 s g j +.3.5.7.7.5.1.l f < H ( n.E.R.n.) t % X <X<X<X<X",
"<X<X<X<XX % y ( n.R.R.n.) y 1 a l 1.3.5.5.3.2.+.x 3 1 * < 1 < < < , 1 < < 1 3 x U 2.3.5.5.3.1.j a ; y [ n.R.R.n.) y % . <X<X<X<X",
"<X<X<X<XX % y ) n.E.E.n.( y - 2 h +.1.2.4.1.<.U I P K K K K K K K K K K L K P I U <.1.2.4.1.+.h 2 < y ( n.E.R.n.) y % o <X<X<X<X",
"<X<X<X<XX % y ) b.R.E.n.( r $ = a h j l l l U U ^ ....X.X.X.X.X.X.X.X.X.X...| ^ U U n j l j h a = $ e ( n.R.R.n.) y % X <X<X<X<X",
"<X<X<X<XX % y ) n.R.R.n.) r # + = 2 f a s s I ^ O.'.}.}. X X X X X X X X X}.'.O.^ I s a s s 2 = + + e ( n.R.R.n.) y % X <X<X<X<X",
"<X<X<X<XX % y ) n.R.E.N.` y & # + < < - - 1 J | '.*X;X>X>X;X;X;X;X;X;X>X>X;XoX'.| P 1 < - < - & # % u ` N.R.R.n.) y % X <X<X<X<X",
"<X<X<X<XX % y ) n.E.~.V.q.Y y r 0 y y 0 8 w Y O.{.:X,X,X,X>X;X;X;X;X>X,X,X,X:X{. .Y t 9 0 y y r e y R q.V.~.W.n.( y % X <X<X<X<X",
"<X<X<X<XX % y ) n.W.^.T.n.i.) ) [ [ ( ~ A Z ' z.+X=X,X,X*XXX.X|. X.XXX*X,X,X=X+Xz.' A A S ( ( ( ( [ q.n.T.).W.b.) y % X <X<X<X<X",
"<X<X<X<XX % y ) b.W.$X#XR.V.N.n.n.n.l.h.f.r.g.P.~.%X=X+X].x.o.....o.x.[.+X=X%X~.P.g.f.f.j.b.M.n.M.N.V.T.).$XW.b.) y % X <X<X<X<X",
"<X<X<X<XX % y / c.R.$X$X).~.E.E.E.R.U.L.F.A.F.I._.$X#XZ. .Q J L L L Q  .Z.#X$X`.H.S.A.F.G.R.E.E.R./.~.).$X$XW.c./ y % X <X<X<X<X",
"<X<X<X<Xo % 0 E p.J.W.~.~.E.E.E.E.E.U.L.F.S.S.I.(.`.E.b.[ y % O X % w ( b.E.`.(.H.S.A.F.G.R.E.W.R.R.E.~.~.E.V.p.E r % o <X<X<X<X",
"<X<X<X<X@ % q T [ i.c.n.M.N.N.N.M.n.c.h.f.r.g.D.!.`.E.l./ q .   O . q ~ l.E.`.!.D.g.d.f.h.l.M.M.M.N.n.M.n.c.p.( T q % o <X<X<X<X",
"<X<X<X<X# % 5 e T W / ( ) ) ` [ ` ) / ~ A S G h.K.^.E.n./ 0 .     . 0 / n.E.^.Q.h.' D A ~ / ) ) ` ` [ ( ( / W T r 5 % @ <X<X<X<X",
"<X<X<X<X# % % 5 q w y y y y y y y y t w 9 t V e.V./.E.n.) y % X . # y ) n.E./.V.q.V w 0 0 y y y u y y u y y r q 5 & % # <X<X<X<X",
"<X<X<X<X# % % 7 8 w 9 8 7 & % - < < 1 < - 1 c ` j.K.K.c.} Y y q q y Y } c.K.K.v.' c 1 - - 1 - < & $ & 7 8 9 0 9 5 % % # <X<X<X<X",
"<X<X<X<X# % & 0 z B B z 8 # # $ , 3 s f f d x ! w.a.s.s.i.} ` [ ) ` } i.s.s.a.w.! x d s d f s ; - # % 7 z B B z 9 & % # <X<X<X<X",
"<X<X<X<X@ # 7 z D -.-.Z z < $ ; f k n m m l U U ! ~ { q.z.c.n.B.B.M.b.s.i.` ~ ! U U m m m l b f ; $ : z Z -.-.Z z 8 # @ <X<X<X<X",
"<X<X<X<X@ % 0 C ;.t.t.;.C 8 1 3 h +.1.2.2.1.<.v x i Y ` z.J.E.~.^.E.K.z.` Y c x v <.1.2.1.1.+.h 2 < 9 C ;.t.t.;.C 9 # @ <X<X<X<X",
"<X<X<X<Xo % t D r.A.A.d.A w < 3 h +.1.2.2.1.<.h 3 < r E p.J.R.^.~.E.V.p.W r 1 > h +.1.2.2.1.+.h 3 < w A d.A.A.:.D w & X <X<X<X<X",
"<X<X<X<Xo % t D g.G.G.k.D w % ; s k m m m m h a = + 7 J ) p.c.B.B.b.p.( N 5 + = s k l m m m k f ; $ 0 S k.H.G.g.D t % o <X<X<X<X",
"<X<X<X<XX % y _ j.L.H.j._ 0 # + ; > s d f d 3 ; + o % q T W / ) ) / E V q % o + = 2 s f d s 2 = + # w ~ j.G.Y.j._ t % X <X<X<X<X",
"<X<X<X<XX % y / l.U.R.l.) y & # $ < 1 1 1 1 1 - & & & 7 q r u u u y y q 5 & % & - 1 1 1 1 1 1 $ # & y [ N./.U.c.( H % X <X<X<X<X",
"<X<X<X<XX % y ) N.R.^.J.q.R y w e y y y y y y y y t y u u u y u y y y y y y y y y y u y y y y r 0 u R q.V.~.R.n.` t % X <X<X<X<X",
"<X<X<X<XX % y ) c./.#XT.c.q.` [ ( ) ) ) ) ) [ [ ` ` ` ( ( / / / ( / ( ( ) ` ` ) ) ) ) ) ) ) ) ( ( ` q.n.T.^.E.n.[ u % X <X<X<X<X",
"<X<X<X<XX % y ( n./.$X#XR.V.N.n.n.n.M.n.M.n.n.N.m.N.N.N.N.c.n.c.c.n.c.N.N.N.N.n.n.n.n.n.n.M.n.n.n.N.J.T.^.$X#Xc.( t % X <X<X<X<X",
"<X<X<X<XX % y / c.R.$X$X_./.R.R.R.R.R.R.R.R.R.R.R.R.R.R.R.R./.R.R.R.R.R.R./.R.R.R.R.E.R.R.E.R.R.R.R./.).$X$XR.c./ u % X <X<X<X<X",
"<X<X<X<XX % y _ j.U._._.^./.R.R./.R.R.R.R.R.R.R./.R.R.R.R.R.R.R.R.R.R.R.R.R.R.R.R.R.R.R.R.R.R.R.R.R./.^._._.U.v./ t % X <X<X<X<X",
"<X<X<X<XX % t ~ h.L.!.!.L.B.n.n.c.n.n.n.n.n.n.n.N.c.N.N.c.n.n.n.n.n.n.n.n.n.n.n.n.n.n.n.n.n.n.n.n.c.B.L.!.(.L.h.~ w % o <X<X<X<X",
"<X<X<X<X@ # r ! f.G.H.D.h.e.` ( ( [ ( ) ) ) ) ` ) ) ) ) [ ) ) ) ) ) ) ) ) ) ) ) ) ) ) ) ) ) ) ) ( ) w.h.F.H.G.f.~ t % X <X<X<X<X",
"<X<X<X<XX % w D :.A.S.g.' V t r r y t u y y y t y y y u t y t u y y y t y y y u y y y y y y y r r u V ' g.S.A.:.Z r % X <X<X<X<X",
"<X<X<X<XX % w Z :.u.u.:.D w & @ # % % % % % % % % % # % % % % % % % % % % % # & % % % % # % % # @ $ w D :.u.u.:.Z w % X <X<X<X<X",
"<X<X<X<XX & w Z :.u.y.:.F 7 o O O X X X X X X X X X X X X X X X X o X X X X X X X X X X X X X O O . 8 F :.y.y.:.Z w % @ <X<X<X<X"
};
