/* XPM */
static char *result[] = {
/* columns rows colors chars-per-pixel */
"50 50 98 2 ",
"   c #75ADB7",
".  c #71A7BD",
"X  c #74ACB8",
"o  c #77B0B5",
"O  c #78B4BA",
"+  c #5F8BD8",
"@  c #5C88DB",
"#  c #6A9CC7",
"$  c #699BC9",
"%  c #689ACA",
"&  c #6391D2",
"*  c #7ABEC5",
"=  c #5A84E0",
"-  c #5A86E0",
";  c #5B87E0",
":  c #5F87E0",
">  c #648BE1",
",  c #668DE2",
"<  c #688EE2",
"1  c #6197E3",
"2  c #6B90E3",
"3  c #6C91E3",
"4  c #6E93E3",
"5  c #7397E4",
"6  c #7799E5",
"7  c #789BE5",
"8  c #70BBEB",
"9  c #7BC2C9",
"0  c #7DCCD4",
"q  c #7CD7F1",
"w  c #86B9BD",
"e  c #8DBCC1",
"r  c #83A2E7",
"t  c #8BA8E9",
"y  c #9EBFEE",
"u  c #A2B9ED",
"i  c #A6CBCF",
"p  c #B0D1D4",
"a  c #B2D2D5",
"s  c #B6D5D7",
"d  c #80DCE6",
"f  c #ACC1EF",
"g  c #B4C7F0",
"h  c #B6C9F1",
"j  c #BDCDF2",
"k  c #BECEF2",
"l  c #82E1EC",
"z  c #82E2ED",
"x  c #83E6F1",
"c  c #84EAF5",
"v  c #8AEBF5",
"b  c #9EE5F5",
"n  c #93ECF6",
"m  c #9BEDF6",
"M  c #9EEEF7",
"N  c #A7EDF5",
"B  c #AAF0F8",
"V  c #AEF1F8",
"C  c #B3F2F8",
"Z  c #B9F3F9",
"A  c #BAF3F9",
"S  c #BDF3F9",
"D  c #C3DCDE",
"F  c #C1D0F3",
"G  c #C4D3F3",
"H  c #C6D4F4",
"J  c #C8D6F4",
"K  c #CBD8F5",
"L  c #CEDAF5",
"P  c #D0DCF6",
"I  c #D1DDF6",
"U  c #D6E7E8",
"Y  c #D6E7E9",
"T  c #DDEBEC",
"R  c #D5E0F7",
"E  c #D6E0F7",
"W  c #C1F4FA",
"Q  c #C4F5FA",
"!  c #CFF6FB",
"~  c #D0F7FB",
"^  c #D4F7FB",
"/  c #E0E7F9",
"(  c #E7EDFA",
")  c #EAEFFB",
"_  c #EBF0FB",
"`  c #ECF1FB",
"'  c #EFFCFD",
"]  c #F3F6FC",
"[  c #F6FAFA",
"{  c #F5F8FD",
"}  c #F0FCFD",
"|  c #F7FDFE",
" . c #F9FAFD",
".. c #FBFCFC",
"X. c #FAFEFE",
"o. c #FDFEFE",
"O. c #FEFEFE",
"+. c white",
/* pixels */
"= = = = = = = = = = = = = = = = = = = = = = = = = = = = = = = = = = = = = = = = = = = = = = = = = = ",
"= = = = = = = = = = = = = = = = = = = = = = = = = = = = = = = = = = = = = = = = = = = = = = = = = = ",
"= = = = = = = = = = = = = = = = = = = = = = = = = = = = = = = = = = = = = = = = = = = = = = = = = = ",
"= = = = = = = = = = = = = = = = = = = = = = = = = = = = = = = = = = = = = = = = = = = = = = = = = = ",
"= = = = = = = = = = = = = = = = = = = = = = = = = = = = = = = = = = = = = = = = = = = = = = = = = = ",
"= = = = = = = = = = = = = = = = = = = = = = = = = = = = = = = = = = = = = = = = = = = = = = = = = = ",
"= = = = = = = = = = = = < K K K G = = = = = = = = = = = = = = = = = = = = = = = = = = = = = = = = = ",
"= = = = = = = = = = = = { +.+.+.O.L = = = = = = = = = = = = = = = = = = = = = = = = = = = = = = = = ",
"= = = = = = = 6 7 2 = ) +.+.+.+.+.+.f = = ; 1 1 - = = = = = = = = = = = = = = = = = = = = = = = = = ",
"= = = = = = t  .+.E u ] +.+.+.+.+.+.P 3 = 8 c c y = = = = = = = = = = = = = = = = = = = = = = = = = ",
"= = = = 5 F _ +.+.+.+.+.+.+.+.+.+.+.+.r = c c c ' g = = = = = = = = = = = = = = = = = = = = = = = = ",
"= = = = b +.+.+.+.! n n +.+.+.+.+.+.h : q c C ' o.) = g ) ) j = = = = = = = = = = = = = = = = = = = ",
"= = @ z V +.+.+.+.D o d +.+.+.+.+.+.W c c m +.+.+.` 4 J +.+.I > = = = = = = = = = = = = = = = = = = ",
"= = . o +.+.+.+.+.U w o +.+.+.+.+.+.W c c A +.+.+.+.+.+.+.+.+.H , = = = = = = = = = = = = = = = = = ",
"+ # X o +.+.+.+.a a e 0 +.+.+.+.+.+.W c Q +.+.+.+.+.+.+.+.+.+.+.r = = = = = = = = = = = = = = = = = ",
"& o o o +.+.+.+.o o o z +.+.+.+.+.+.W c | +.+.+.+.+.+.+.+.+.+.+.( / k = = = = = = = = = = = = = = = ",
"= $     o s [ O.+...i o x N | | | | S c } | X.+.+.v c ~ +.+.+.+.+.+.R = = = = = = = = = = = = = = = ",
"= = = = o o o Y T p o o o 9 c c c c c c c c Z +.+.' c ~ +.+.+.+.+.+.R = = = = = = = = = = = = = = = ",
"= = = = % % % % o o o o o 9 c c c c c c c c M W W Z c B W W ^ +.+.+.R = = = = = = = = = = = = = = = ",
"= = = = = = = = o o o o o O * l c c c c c c c c c c c c c c B F r r 7 = = = = = = = = = = = = = = = ",
"= = = = = = = = = = = = = = = = = = = = = = = = = = = = = = = = = = = = = = = = = = = = = = = = = = ",
"= = = = = = = = = = = = = = = = = = = = = = = = = = = = = = = = = = = = = = = = = = = = = = = = = = ",
"= = = = = = = = = = = = = = = = = = = = = = = = = = = = = = = = = = = = = = = = = = = = = = = = = = ",
"= = = = = = = = = = = = = = = = = = = = = = = = = = = = = = = = = = = = = = = = = = = = = = = = = = ",
"= = = = = = = = = = = = = = = = = = = = = = = = = = = = = = = = = = = = = = = = = = = = = = = = = = ",
"= = = = = = = = = = = = = = = = = = = = = = = = = = = = = = = = = = = = = = = = = = = = = = = = = = ",
"= = = = = = = = = = = = = = = = = = = = = = = = < K K K G = = = = = = = = = = = = = = = = = = = = = ",
"= = = = = = = = = = = = = = = = = = = = = = = = { +.+.+.O.L = = = = = = = = = = = = = = = = = = = = ",
"= = = = = = = = = = = = = = = = = = = 6 7 2 = ) +.+.+.+.+.+.f = = ; 1 1 - = = = = = = = = = = = = = ",
"= = = = = = = = = = = = = = = = = = t  .+.E u ] +.+.+.+.+.+.P 3 = 8 c c y = = = = = = = = = = = = = ",
"= = = = = = = = = = = = = = = = 5 F _ +.+.+.+.+.+.+.+.+.+.+.+.r = c c c ' g = = = = = = = = = = = = ",
"= = = = = = = = = = = = = = = = b +.+.+.+.! n n +.+.+.+.+.+.h : q c C ' o.) = g ) ) j = = = = = = = ",
"= = = = = = = = = = = = = = @ z V +.+.+.+.D o d +.+.+.+.+.+.W c c m +.+.+.` 4 J +.+.I > = = = = = = ",
"= = = = = = = = = = = = = = . o +.+.+.+.+.U w o +.+.+.+.+.+.W c c A +.+.+.+.+.+.+.+.+.H , = = = = = ",
"= = = = = = = = = = = = + # X o +.+.+.+.a a e 0 +.+.+.+.+.+.W c Q +.+.+.+.+.+.+.+.+.+.+.r = = = = = ",
"= = = = = = = = = = = = & o o o +.+.+.+.o o o z +.+.+.+.+.+.W c | +.+.+.+.+.+.+.+.+.+.+.( / k = = = ",
"= = = = = = = = = = = = = $     o s [ O.+...i o x N | | | | S c } | X.+.+.v c ~ +.+.+.+.+.+.R = = = ",
"= = = = = = = = = = = = = = = = o o o Y T p o o o 9 c c c c c c c c Z +.+.' c ~ +.+.+.+.+.+.R = = = ",
"= = = = = = = = = = = = = = = = % % % % o o o o o 9 c c c c c c c c M W W Z c B W W ^ +.+.+.R = = = ",
"= = = = = = = = = = = = = = = = = = = = o o o o o O * l c c c c c c c c c c c c c c B F r r 7 = = = ",
"= = = = = = = = = = = = = = = = = = = = = = = = = = = = = = = = = = = = = = = = = = = = = = = = = = ",
"= = = = = = = = = = = = = = = = = = = = = = = = = = = = = = = = = = = = = = = = = = = = = = = = = = ",
"= = = = = = = = = = = = = = = = = = = = = = = = = = = = = = = = = = = = = = = = = = = = = = = = = = ",
"= = = = = = = = = = = = = = = = = = = = = = = = = = = = = = = = = = = = = = = = = = = = = = = = = = ",
"= = = = = = = = = = = = = = = = = = = = = = = = = = = = = = = = = = = = = = = = = = = = = = = = = = ",
"= = = = = = = = = = = = = = = = = = = = = = = = = = = = = = = = = = = = = = = = = = = = = = = = = = ",
"= = = = = = = = = = = = = = = = = = = = = = = = = = = = = = = = = = = = = = = = = = = = = = = = = = ",
"= = = = = = = = = = = = = = = = = = = = = = = = = = = = = = = = = = = = = = = = = = = = = = = = = = ",
"= = = = = = = = = = = = = = = = = = = = = = = = = = = = = = = = = = = = = = = = = = = = = = = = = = ",
"= = = = = = = = = = = = = = = = = = = = = = = = = = = = = = = = = = = = = = = = = = = = = = = = = = "
};
