/* XPM */
static char *result[] = {
/* columns rows colors chars-per-pixel */
"31 35 147 2 ",
"   c #1C2529",
".  c #1E292F",
"X  c #1E2C32",
"o  c #1B3033",
"O  c #1D303A",
"+  c #202E35",
"@  c #252D38",
"#  c #2A2F3E",
"$  c #22323A",
"%  c #28303D",
"&  c #2E2F41",
"*  c #332E44",
"=  c #3A2D49",
"-  c #243741",
";  c #253944",
":  c #263C48",
">  c #283F4C",
",  c #452A4E",
"<  c #4F2A57",
"1  c #4D2D58",
"2  c #532B5B",
"3  c #423559",
"4  c #592C60",
"5  c #632B68",
"6  c #6B2B6E",
"7  c #732B73",
"8  c #762C78",
"9  c #26414D",
"0  c #28414E",
"q  c #264252",
"w  c #2A4554",
"e  c #2C4B5D",
"r  c #344E5C",
"t  c #3B4E58",
"y  c #2F4F61",
"u  c #2D5166",
"i  c #2C536A",
"p  c #315265",
"a  c #32566B",
"s  c #33596F",
"d  c #2F5870",
"f  c #395371",
"g  c #345C73",
"h  c #3C6177",
"j  c #35627C",
"k  c #38637D",
"l  c #465157",
"z  c #465258",
"x  c #4A585B",
"c  c #5F5F57",
"v  c #535A59",
"b  c #5F5F58",
"n  c #5F6057",
"m  c #455F6E",
"M  c #446477",
"N  c #5A6F7B",
"B  c #6D757A",
"V  c #346681",
"C  c #396681",
"Z  c #3A6985",
"A  c #3C6E8C",
"S  c #3D708F",
"D  c #3D7191",
"F  c #3E779A",
"G  c #3E799D",
"H  c #3F7DA4",
"J  c #417695",
"K  c #417798",
"L  c #427B9D",
"P  c #4A7C9A",
"I  c #617885",
"U  c #437EA1",
"Y  c #852980",
"T  c #8C2885",
"R  c #8F2888",
"E  c #4F819E",
"W  c #558099",
"Q  c #5B849B",
"!  c #61889C",
"~  c #6B8C9A",
"^  c #79939C",
"/  c #4581A5",
"(  c #4B82A3",
")  c #4484AB",
"_  c #4887AE",
"`  c #4988AF",
"'  c #5285A5",
"]  c #5187A8",
"[  c #538AAB",
"{  c #5B8DAA",
"}  c #458AB4",
"|  c #4A8CB3",
" . c #458DB9",
".. c #4C8FB8",
"X. c #4D92BC",
"o. c #5995B7",
"O. c #5697BE",
"+. c #5A96BA",
"@. c #5B98BC",
"#. c #648CA1",
"$. c #6993A8",
"%. c #6498B5",
"&. c #6899B5",
"*. c #719FBA",
"=. c #7CA0AF",
"-. c #78A1B4",
";. c #72A0BC",
":. c #4E96C1",
">. c #8F9B98",
",. c #9BA49F",
"<. c #AAA89A",
"1. c #B6AE99",
"2. c #9FA8AD",
"3. c #88A5B6",
"4. c #94ACBB",
"5. c #9CAFBB",
"6. c #A5AAA1",
"7. c #ADB1A7",
"8. c #A0B0AF",
"9. c #B1B8AF",
"0. c #B3BAB1",
"q. c #C5B092",
"w. c #CAB291",
"e. c #C7B89D",
"r. c #D6B995",
"t. c #DABC94",
"y. c #D7BC98",
"u. c #B9C0B8",
"i. c #EBC191",
"p. c #EDC799",
"a. c #F1C999",
"s. c #D6C6AA",
"d. c #E9CDA8",
"f. c #E9D0AD",
"g. c #F6D0A3",
"h. c #FBD5A5",
"j. c #FFD9A7",
"k. c #FED7A8",
"l. c #FFDAAA",
"z. c #95B7CB",
"x. c #A8C3D3",
"c. c #B4C7D2",
"v. c #B6CEDD",
"b. c #C0C3C4",
"n. c #DAE7EF",
"m. c #E2E4E6",
"M. c None",
/* pixels */
"M.M.M.M.M.M.M.M.M.M.M.M.M.M.M.M.M.M.M.M.M.M.M.M.M.M.M.M.M.M.M.",
"M.M.M.M.M.M.+ X X X X X X + + . . . . . . . . . . M.M.M.M.M.M.",
"M.M.M.M.M.$ $ $ - - - - $ $ $ - - - - - - - - - - - M.M.M.M.M.",
"M.M.M.M.o X - y g d g g e O q k Z C C C C C C C C g ; M.M.M.M.",
"M.M.M.& & @ : C ( [ ' J h t M ` X.X.X.X.X.X.X.X.X.K e - M.M.M.",
"M.M.# 2 5 = : V %.x.4.M N 2.3.[ } X.:.:.:.:.X.:.:.| K g ; M.M.",
"M.o # 6 T < : j *.n.b.z B m.v.] ) X.` ) | X.X.X.X...) k ; X M.",
"M.o # 6 R 2 : j *.n.b.l B m.v.] ) | C p J X.X.X.X.U s > $ + M.",
"M.o % 4 7 , : j *.n.b.l B m.v.] ) | k y J X.X.X.X.L p ; $ + M.",
"M.O $ * = # : V ;.n.b.l B m.v.] ) ..) U | X.X.X.X.| U g ; X M.",
"M.M.$ O $ * 3 f Q x.5.m I c.z.( ) X.X.X.X.X.X.X.X.:.:.A : X M.",
"M.M.M.o & 5 8 3 p W { J P { [ U _ X.X.X.X.X.X.X.X.X.X.A : X M.",
"M.M.M.o * 8 T , : V U U U G G U ` X.X.X.X.X.:.X.X.:.:.A : X M.",
"M.M.M.o & 7 Y , 9 Z U U U U L U ` X.X.X.X.X.X.X.X.X.X.A : X M.",
"M.M.M.O # 1 4 * 0 A / U U U L U / ` X.| J C C Z C C C p - + M.",
"M.M.M.$ $ % # + 0 Z U U U U U U U / | ` g ; - - - - - $ $ + M.",
"M.M.M.M.M.M.o X - e k K U H H ) ) )  .} D i ; X . M.M.X M.M.M.",
"M.M.M.M.M.M.M.$ $ $ e S ( ( ] o.+.+.+.+.@.( r X M.M.M.M.M.M.M.",
"M.M.M.M.M.M.M.M.X X w A #.>.6.9.0.0.0.0.u.,.x X M.M.M.M.M.M.M.",
"M.M.M.M.M.M.M.M.M.+ w A ^ q.p.h.k.k.k.k.l.r.b X M.M.M.M.M.M.M.",
"M.M.M.M.M.M.+ + . X q A ^ w.a.h.l.l.j.l.l.t.n X M.M.M.M.M.M.M.",
"M.M.M.M.M.+ $ : 0 0 u D ^ w.p.h.l.k.k.l.l.t.c X M.M.M.M.M.M.M.",
"M.M.M.M.M.X : j L K F L ^ w.a.h.l.l.l.l.l.t.n X M.M.M.M.M.M.M.",
"M.M.M.M.M.X : C ) | } / ~ <.e.s.d.g.g.g.f.1.v X M.M.M.M.M.M.M.",
"M.M.M.M.M.+ $ > a K ) U E ! $.-.7.t.i.y.8.#.r X M.M.M.M.M.M.M.",
"M.M.M.M.M.M.+ X ; s A L U / } X.=.<.1.6.*.U e + M.M.M.M.M.M.M.",
"M.M.M.M.M.M.M.+ $ - u D ) | X.X.+.%.&.%.O./ e + M.M.M.M.M.M.M.",
"M.M.M.M.M.M.M.M.+ X w A | X.) S A D H } :.) e + M.M.M.M.M.M.M.",
"M.M.M.M.M.M.M.M.M.+ w S | | A q - 0 j / X./ e + M.M.M.M.M.M.M.",
"M.M.M.M.M.M.M.M.M.+ w D L Z a $   $ g L D j w M.M.M.M.M.M.M.M.",
"M.M.M.M.M.M.M.M.M.+ w A k 0 $ M.X - g D p - M.M.M.M.M.M.M.M.M.",
"M.M.M.M.M.M.M.M.M.+ ; y e $ M.M.M.$ w p 0 M.M.M.M.M.M.M.M.M.M.",
"M.M.M.M.M.M.M.M.M.$ $ $ $ M.M.M.M.$ $ $ M.M.M.M.M.M.M.M.M.M.M.",
"M.M.M.M.M.M.M.M.M.M.M.M.M.M.M.M.M.M.M.M.M.M.M.M.M.M.M.M.M.M.M.",
"M.M.M.M.M.M.M.M.M.M.M.M.M.M.M.M.M.M.M.M.M.M.M.M.M.M.M.M.M.M.M."
};
