/* XPM */
static char *result[] = {
/* columns rows colors chars-per-pixel */
"192 96 6 1 ",
"  c #446350",
". c #557D55",
"X c #8B9150",
"o c #EEB551",
"O c #D6CEC7",
"+ c None",
/* pixels */
"++++++++++++++++++++++++++++++++++++++++++++++++++++++++++++++++++++++++++++++++++++++++++++++++++++++++++++++++++++++++++++++++++++++++++++++++++++++++++++++++++++++++++++++++++++++++++++++++",
"++++++++++++++++++++++++++++++++++++++++++++++++++++++++++++++++++++++++++++++++++++++++++++++++++++++++++++++++++++++++++++++++++++++++++++++++++++++++++++++++++++++++++++++++++++++++++++++++",
"++++++++++++++++++++++++++++++++++++++++++++++++++++++++++++++++++++++++++++++++++++++++++++++++++++++++++++++++++++++++++++++++++++++++++++++++++++++++++++++++++++++++++++++++++++++++++++++++",
"++++++++++++++++++++++++++++++++++++++++++++++++++++++++++++++++++++++++++++++++++++++++++++++++++++++++++++++++++++++++++++++++++++++++++++++++++++++++++++++++++++++++++++++++++++++++++++++++",
"++++++++++++++++++++++++++++++++++++++++++++++++++++++++++++++++++++++++++++++++++++++++++++++++++++++++++++++++++++++++++++++++++++++++++++++++++++++++++++++++++++++++++++++++++++++++++++++++",
"++++++++++++++++++++++++++++++++++++++++++++++++++++++++++++++++++++++++++++++++++++++++++++++++++++++++++++++++++++++++++++++++++++++++++++++++++++++++++++++++++++++++++++++++++++++++++++++++",
"++++++++++++++++++++++++++++++++++++++++++++++++++++++++++++++++++++++++++++++++++++++++++++++++++++++++++++++++++++++++++++++++++++++++++++++++++++++++++++++++++++++++++++++++++++++++++++++++",
"++++++++++++++++++++++++++++++++++++++++++++++++++++++++++++++++++++++++++++++++++++++++++++++++++++++++++++++++++++++++++++++++++++++++++++++++++++++++++++++++++++++++++++++++++++++++++++++++",
"++++++++++++++++++++++++++++++++++++++++++++++++++++++++++++++++++++++++++++++++++++++++++++++++++++++++++++++++++++++++++++++++++++++++++++++++++++++++++++++++++++++++++++++++++++++++++++++++",
"++++++++++++++++++++++++++++++++++++++++++++++++++++++++++++++++++++++++++++++++++++++++++++++++++++++++++++++++++++++++++++++++++++++++++++++++++++++++++++++++++++++++++++++++++++++++++++++++",
"++++++++++++++++++++++++++++++++++++++++++++++++++++++++++++++++++++++++++++++++++++++++++++++++++++++++++++++++++++++++++++++++++++++++++++++++++++++++++++++++++++++++++++++++++++++++++++++++",
"++++++++++++++++++++++++++++++++++++++++++++++++++++++++++++++++++++++++++++++++++++++++++++++++++++++++++++++++++++++++++++++++++++++++++++++++++++++++++++++++++++++++++++++++++++++++++++++++",
"++++++++++++++++++++++++++++++++++++++++++++++++++++++++++++++++++++++++++++++++++++++++++++++++++++++++++++++++++++++++++++++++++++++++++++++++++++++++++++++++++++++++++++++++++++++++++++++++",
"++++++++++++++++++++++++++++++++++++++++++++++++++++++++++++++++++++++++++++++++++++++++++++++++++++++++++++++++++++++++++++++++++++++++++++++++++++++++++++++++++++++++++++++++++++++++++++++++",
"++++++++++++++++++++++++++++++++++++++++++++++++++++++++++++++++++++++++++++++++++++++++++++++++++++++++++++++++++++++++++++++++++++++++++++++++++++++++++++++++++++++++++++++++++++++++++++++++",
"++++++++++++++++++++++++++++++++++++++++++++++++++++++++++++++++++++++++++++++++++++++++++++++++++++++++++++++++++++++++++++++++++++++++++++++++++++++++++++++++++++++++++++++++++++++++++++++++",
"++++++++++++++++                                ................................XXXXXXXXXXXXXXXXXXXXXXXXXXXXXXXXoooooooooooooooooooooooooooooooooooooooooooooooooooooooooooooooo++++++++++++++++",
"++++++++++++++++                                ................................XXXXXXXXXXXXXXXXXXXXXXXXXXXXXXXXoooooooooooooooooooooooooooooooooooooooooooooooooooooooooooooooo++++++++++++++++",
"++++++++++++++++                                ................................XXXXXXXXXXXXXXXXXXXXXXXXXXXXXXXXoooooooooooooooooooooooooooooooooooooooooooooooooooooooooooooooo++++++++++++++++",
"++++++++++++++++                                ................................XXXXXXXXXXXXXXXXXXXXXXXXXXXXXXXXoooooooooooooooooooooooooooooooooooooooooooooooooooooooooooooooo++++++++++++++++",
"++++++++++++++++                                ................................XXXXXXXXXXXXXXXXXXXXXXXXXXXXXXXXoooooooooooooooooooooooooooooooooooooooooooooooooooooooooooooooo++++++++++++++++",
"++++++++++++++++                                ................................XXXXXXXXXXXXXXXXXXXXXXXXXXXXXXXXoooooooooooooooooooooooooooooooooooooooooooooooooooooooooooooooo++++++++++++++++",
"++++++++++++++++                                ................................XXXXXXXXXXXXXXXXXXXXXXXXXXXXXXXXoooooooooooooooooooooooooooooooooooooooooooooooooooooooooooooooo++++++++++++++++",
"++++++++++++++++             OO  OO             .............OO..OO.............XXXXXXXXXXXXXOOXXOOXXXXXXXXXXXXXoooooooooooooOOooOOooooooooooooooooooooooooooXXooXXooooooooooooo++++++++++++++++",
"++++++++++++++++           O OO  OO O           ...........O.OO..OO.O...........XXXXXXXXXXXOXOOXXOOXOXXXXXXXXXXXoooooooooooOoOOooOOoOooooooooooooooooooooooXoXXooXXoXooooooooooo++++++++++++++++",
"++++++++++++++++                                ................................XXXXXXXXXXXXXXXXXXXXXXXXXXXXXXXXoooooooooooooooooooooooooooooooooooooooooooooooooooooooooooooooo++++++++++++++++",
"++++++++++++++++          OOOOOOOOOOOO          ..........OOOOOOOOOOOO..........XXXXXXXXXXOOOOOOOOOOOOXXXXXXXXXXooooooooooOOOOOOOOOOOOooooooooooooooooooooXXXXXXXXXXXXoooooooooo++++++++++++++++",
"++++++++++++++++        O OOOOOOOOOOOO O        ........O.OOOOOOOOOOOO.O........XXXXXXXXOXOOOOOOOOOOOOXOXXXXXXXXooooooooOoOOOOOOOOOOOOoOooooooooooooooooXoXXXXXXXXXXXXoXoooooooo++++++++++++++++",
"++++++++++++++++          OOOOOOOOOOOO          ..........OOOOOOOOOOOO..........XXXXXXXXXXOOOOOOOOOOOOXXXXXXXXXXooooooooooOOOOOOOOOOOOooooooooooooooooooooXXXXXXXXXXXXoooooooooo++++++++++++++++",
"++++++++++++++++       OO OOOOOOOOOOOO OO       .......OO.OOOOOOOOOOOO.OO.......XXXXXXXOOXOOOOOOOOOOOOXOOXXXXXXXoooooooOOoOOOOOOOOOOOOoOOooooooooooooooXXoXXXXXXXXXXXXoXXooooooo++++++++++++++++",
"++++++++++++++++       OO OOOOOOOOOOOO OO       .......OO.OOOOOOOOOOOO.OO.......XXXXXXXOOXOOOOOOOOOOOOXOOXXXXXXXoooooooOOoOOOOOOOOOOOOoOOooooooooooooooXXoXXXXXXXXXXXXoXXooooooo++++++++++++++++",
"++++++++++++++++          OOOOOOOOOOOO          ..........OOOOOOOOOOOO..........XXXXXXXXXXOOOOOOOOOOOOXXXXXXXXXXooooooooooOOOOOOOOOOOOooooooooooooooooooooXXXXXXXXXXXXoooooooooo++++++++++++++++",
"++++++++++++++++          OOOOOOOOOOOO          ..........OOOOOOOOOOOO..........XXXXXXXXXXOOOOOOOOOOOOXXXXXXXXXXooooooooooOOOOOOOOOOOOooooooooooooooooooooXXXXXXXXXXXXoooooooooo++++++++++++++++",
"++++++++++++++++       OO OOOOOOOOOOOO OO       .......OO.OOOOOOOOOOOO.OO.......XXXXXXXOOXOOOOOOOOOOOOXOOXXXXXXXoooooooOOoOOOOOOOOOOOOoOOooooooooooooooXXoXXXXXXXXXXXXoXXooooooo++++++++++++++++",
"++++++++++++++++       OO OOOOOOOOOOOO OO       .......OO.OOOOOOOOOOOO.OO.......XXXXXXXOOXOOOOOOOOOOOOXOOXXXXXXXoooooooOOoOOOOOOOOOOOOoOOooooooooooooooXXoXXXXXXXXXXXXoXXooooooo++++++++++++++++",
"++++++++++++++++          OOOOOOOOOOOO          ..........OOOOOOOOOOOO..........XXXXXXXXXXOOOOOOOOOOOOXXXXXXXXXXooooooooooOOOOOOOOOOOOooooooooooooooooooooXXXXXXXXXXXXoooooooooo++++++++++++++++",
"++++++++++++++++        O OOOOOOOOOOOO O        ........O.OOOOOOOOOOOO.O........XXXXXXXXOXOOOOOOOOOOOOXOXXXXXXXXooooooooOoOOOOOOOOOOOOoOooooooooooooooooXoXXXXXXXXXXXXoXoooooooo++++++++++++++++",
"++++++++++++++++          OOOOOOOOOOOO          ..........OOOOOOOOOOOO..........XXXXXXXXXXOOOOOOOOOOOOXXXXXXXXXXooooooooooOOOOOOOOOOOOooooooooooooooooooooXXXXXXXXXXXXoooooooooo++++++++++++++++",
"++++++++++++++++                                ................................XXXXXXXXXXXXXXXXXXXXXXXXXXXXXXXXoooooooooooooooooooooooooooooooooooooooooooooooooooooooooooooooo++++++++++++++++",
"++++++++++++++++           O OO  OO O           ...........O.OO..OO.O...........XXXXXXXXXXXOXOOXXOOXOXXXXXXXXXXXoooooooooooOoOOooOOoOooooooooooooooooooooooXoXXooXXoXooooooooooo++++++++++++++++",
"++++++++++++++++             OO  OO             .............OO..OO.............XXXXXXXXXXXXXOOXXOOXXXXXXXXXXXXXoooooooooooooOOooOOooooooooooooooooooooooooooXXooXXooooooooooooo++++++++++++++++",
"++++++++++++++++                                ................................XXXXXXXXXXXXXXXXXXXXXXXXXXXXXXXXoooooooooooooooooooooooooooooooooooooooooooooooooooooooooooooooo++++++++++++++++",
"++++++++++++++++                                ................................XXXXXXXXXXXXXXXXXXXXXXXXXXXXXXXXoooooooooooooooooooooooooooooooooooooooooooooooooooooooooooooooo++++++++++++++++",
"++++++++++++++++                                ................................XXXXXXXXXXXXXXXXXXXXXXXXXXXXXXXXoooooooooooooooooooooooooooooooooooooooooooooooooooooooooooooooo++++++++++++++++",
"++++++++++++++++                                ................................XXXXXXXXXXXXXXXXXXXXXXXXXXXXXXXXoooooooooooooooooooooooooooooooooooooooooooooooooooooooooooooooo++++++++++++++++",
"++++++++++++++++                                ................................XXXXXXXXXXXXXXXXXXXXXXXXXXXXXXXXoooooooooooooooooooooooooooooooooooooooooooooooooooooooooooooooo++++++++++++++++",
"++++++++++++++++                                ................................XXXXXXXXXXXXXXXXXXXXXXXXXXXXXXXXoooooooooooooooooooooooooooooooooooooooooooooooooooooooooooooooo++++++++++++++++",
"++++++++++++++++                                ................................XXXXXXXXXXXXXXXXXXXXXXXXXXXXXXXXoooooooooooooooooooooooooooooooooooooooooooooooooooooooooooooooo++++++++++++++++",
"++++++++++++++++................................XXXXXXXXXXXXXXXXXXXXXXXXXXXXXXXXooooooooooooooooooooooooooooooooXXXXXXXXXXXXXXXXXXXXXXXXXXXXXXXXoooooooooooooooooooooooooooooooo++++++++++++++++",
"++++++++++++++++................................XXXXXXXXXXXXXXXXXXXXXXXXXXXXXXXXooooooooooooooooooooooooooooooooXXXXXXXXXXXXXXXXXXXXXXXXXXXXXXXXoooooooooooooooooooooooooooooooo++++++++++++++++",
"++++++++++++++++................................XXXXXXXXXXXXXXXXXXXXXXXXXXXXXXXXooooooooooooooooooooooooooooooooXXXXXXXXXXXXXXXXXXXXXXXXXXXXXXXXoooooooooooooooooooooooooooooooo++++++++++++++++",
"++++++++++++++++................................XXXXXXXXXXXXXXXXXXXXXXXXXXXXXXXXooooooooooooooooooooooooooooooooXXXXXXXXXXXXXXXXXXXXXXXXXXXXXXXXoooooooooooooooooooooooooooooooo++++++++++++++++",
"++++++++++++++++................................XXXXXXXXXXXXXXXXXXXXXXXXXXXXXXXXooooooooooooooooooooooooooooooooXXXXXXXXXXXXXXXXXXXXXXXXXXXXXXXXoooooooooooooooooooooooooooooooo++++++++++++++++",
"++++++++++++++++................................XXXXXXXXXXXXXXXXXXXXXXXXXXXXXXXXooooooooooooooooooooooooooooooooXXXXXXXXXXXXXXXXXXXXXXXXXXXXXXXXoooooooooooooooooooooooooooooooo++++++++++++++++",
"++++++++++++++++................................XXXXXXXXXXXXXXXXXXXXXXXXXXXXXXXXooooooooooooooooooooooooooooooooXXXXXXXXXXXXXXXXXXXXXXXXXXXXXXXXoooooooooooooooooooooooooooooooo++++++++++++++++",
"++++++++++++++++.............  ..  .............XXXXXXXXXXXXX  XX  XXXXXXXXXXXXXooooooooooooo  oo  oooooooooooooXXXXXXXXXXXXX..XX..XXXXXXXXXXXXXooooooooooooo..oo..ooooooooooooo++++++++++++++++",
"++++++++++++++++........... .  ..  . ...........XXXXXXXXXXX X  XX  X XXXXXXXXXXXooooooooooo o  oo  o oooooooooooXXXXXXXXXXX.X..XX..X.XXXXXXXXXXXooooooooooo.o..oo..o.ooooooooooo++++++++++++++++",
"++++++++++++++++................................XXXXXXXXXXXXXXXXXXXXXXXXXXXXXXXXooooooooooooooooooooooooooooooooXXXXXXXXXXXXXXXXXXXXXXXXXXXXXXXXoooooooooooooooooooooooooooooooo++++++++++++++++",
"++++++++++++++++..........            ..........XXXXXXXXXX            XXXXXXXXXXoooooooooo            ooooooooooXXXXXXXXXX............XXXXXXXXXXoooooooooo............oooooooooo++++++++++++++++",
"++++++++++++++++........ .            . ........XXXXXXXX X            X XXXXXXXXoooooooo o            o ooooooooXXXXXXXX.X............X.XXXXXXXXoooooooo.o............o.oooooooo++++++++++++++++",
"++++++++++++++++..........            ..........XXXXXXXXXX            XXXXXXXXXXoooooooooo            ooooooooooXXXXXXXXXX............XXXXXXXXXXoooooooooo............oooooooooo++++++++++++++++",
"++++++++++++++++.......  .            .  .......XXXXXXX  X            X  XXXXXXXooooooo  o            o  oooooooXXXXXXX..X............X..XXXXXXXooooooo..o............o..ooooooo++++++++++++++++",
"++++++++++++++++.......  .            .  .......XXXXXXX  X            X  XXXXXXXooooooo  o            o  oooooooXXXXXXX..X............X..XXXXXXXooooooo..o............o..ooooooo++++++++++++++++",
"++++++++++++++++..........            ..........XXXXXXXXXX            XXXXXXXXXXoooooooooo            ooooooooooXXXXXXXXXX............XXXXXXXXXXoooooooooo............oooooooooo++++++++++++++++",
"++++++++++++++++..........            ..........XXXXXXXXXX            XXXXXXXXXXoooooooooo            ooooooooooXXXXXXXXXX............XXXXXXXXXXoooooooooo............oooooooooo++++++++++++++++",
"++++++++++++++++.......  .            .  .......XXXXXXX  X            X  XXXXXXXooooooo  o            o  oooooooXXXXXXX..X............X..XXXXXXXooooooo..o............o..ooooooo++++++++++++++++",
"++++++++++++++++.......  .            .  .......XXXXXXX  X            X  XXXXXXXooooooo  o            o  oooooooXXXXXXX..X............X..XXXXXXXooooooo..o............o..ooooooo++++++++++++++++",
"++++++++++++++++..........            ..........XXXXXXXXXX            XXXXXXXXXXoooooooooo            ooooooooooXXXXXXXXXX............XXXXXXXXXXoooooooooo............oooooooooo++++++++++++++++",
"++++++++++++++++........ .            . ........XXXXXXXX X            X XXXXXXXXoooooooo o            o ooooooooXXXXXXXX.X............X.XXXXXXXXoooooooo.o............o.oooooooo++++++++++++++++",
"++++++++++++++++..........            ..........XXXXXXXXXX            XXXXXXXXXXoooooooooo            ooooooooooXXXXXXXXXX............XXXXXXXXXXoooooooooo............oooooooooo++++++++++++++++",
"++++++++++++++++................................XXXXXXXXXXXXXXXXXXXXXXXXXXXXXXXXooooooooooooooooooooooooooooooooXXXXXXXXXXXXXXXXXXXXXXXXXXXXXXXXoooooooooooooooooooooooooooooooo++++++++++++++++",
"++++++++++++++++........... .  ..  . ...........XXXXXXXXXXX X  XX  X XXXXXXXXXXXooooooooooo o  oo  o oooooooooooXXXXXXXXXXX.X..XX..X.XXXXXXXXXXXooooooooooo.o..oo..o.ooooooooooo++++++++++++++++",
"++++++++++++++++.............  ..  .............XXXXXXXXXXXXX  XX  XXXXXXXXXXXXXooooooooooooo  oo  oooooooooooooXXXXXXXXXXXXX..XX..XXXXXXXXXXXXXooooooooooooo..oo..ooooooooooooo++++++++++++++++",
"++++++++++++++++................................XXXXXXXXXXXXXXXXXXXXXXXXXXXXXXXXooooooooooooooooooooooooooooooooXXXXXXXXXXXXXXXXXXXXXXXXXXXXXXXXoooooooooooooooooooooooooooooooo++++++++++++++++",
"++++++++++++++++................................XXXXXXXXXXXXXXXXXXXXXXXXXXXXXXXXooooooooooooooooooooooooooooooooXXXXXXXXXXXXXXXXXXXXXXXXXXXXXXXXoooooooooooooooooooooooooooooooo++++++++++++++++",
"++++++++++++++++................................XXXXXXXXXXXXXXXXXXXXXXXXXXXXXXXXooooooooooooooooooooooooooooooooXXXXXXXXXXXXXXXXXXXXXXXXXXXXXXXXoooooooooooooooooooooooooooooooo++++++++++++++++",
"++++++++++++++++................................XXXXXXXXXXXXXXXXXXXXXXXXXXXXXXXXooooooooooooooooooooooooooooooooXXXXXXXXXXXXXXXXXXXXXXXXXXXXXXXXoooooooooooooooooooooooooooooooo++++++++++++++++",
"++++++++++++++++................................XXXXXXXXXXXXXXXXXXXXXXXXXXXXXXXXooooooooooooooooooooooooooooooooXXXXXXXXXXXXXXXXXXXXXXXXXXXXXXXXoooooooooooooooooooooooooooooooo++++++++++++++++",
"++++++++++++++++................................XXXXXXXXXXXXXXXXXXXXXXXXXXXXXXXXooooooooooooooooooooooooooooooooXXXXXXXXXXXXXXXXXXXXXXXXXXXXXXXXoooooooooooooooooooooooooooooooo++++++++++++++++",
"++++++++++++++++................................XXXXXXXXXXXXXXXXXXXXXXXXXXXXXXXXooooooooooooooooooooooooooooooooXXXXXXXXXXXXXXXXXXXXXXXXXXXXXXXXoooooooooooooooooooooooooooooooo++++++++++++++++",
"++++++++++++++++++++++++++++++++++++++++++++++++++++++++++++++++++++++++++++++++++++++++++++++++++++++++++++++++++++++++++++++++++++++++++++++++++++++++++++++++++++++++++++++++++++++++++++++++",
"++++++++++++++++++++++++++++++++++++++++++++++++++++++++++++++++++++++++++++++++++++++++++++++++++++++++++++++++++++++++++++++++++++++++++++++++++++++++++++++++++++++++++++++++++++++++++++++++",
"++++++++++++++++++++++++++++++++++++++++++++++++++++++++++++++++++++++++++++++++++++++++++++++++++++++++++++++++++++++++++++++++++++++++++++++++++++++++++++++++++++++++++++++++++++++++++++++++",
"++++++++++++++++++++++++++++++++++++++++++++++++++++++++++++++++++++++++++++++++++++++++++++++++++++++++++++++++++++++++++++++++++++++++++++++++++++++++++++++++++++++++++++++++++++++++++++++++",
"++++++++++++++++++++++++++++++++++++++++++++++++++++++++++++++++++++++++++++++++++++++++++++++++++++++++++++++++++++++++++++++++++++++++++++++++++++++++++++++++++++++++++++++++++++++++++++++++",
"++++++++++++++++++++++++++++++++++++++++++++++++++++++++++++++++++++++++++++++++++++++++++++++++++++++++++++++++++++++++++++++++++++++++++++++++++++++++++++++++++++++++++++++++++++++++++++++++",
"++++++++++++++++++++++++++++++++++++++++++++++++++++++++++++++++++++++++++++++++++++++++++++++++++++++++++++++++++++++++++++++++++++++++++++++++++++++++++++++++++++++++++++++++++++++++++++++++",
"++++++++++++++++++++++++++++++++++++++++++++++++++++++++++++++++++++++++++++++++++++++++++++++++++++++++++++++++++++++++++++++++++++++++++++++++++++++++++++++++++++++++++++++++++++++++++++++++",
"++++++++++++++++++++++++++++++++++++++++++++++++++++++++++++++++++++++++++++++++++++++++++++++++++++++++++++++++++++++++++++++++++++++++++++++++++++++++++++++++++++++++++++++++++++++++++++++++",
"++++++++++++++++++++++++++++++++++++++++++++++++++++++++++++++++++++++++++++++++++++++++++++++++++++++++++++++++++++++++++++++++++++++++++++++++++++++++++++++++++++++++++++++++++++++++++++++++",
"++++++++++++++++++++++++++++++++++++++++++++++++++++++++++++++++++++++++++++++++++++++++++++++++++++++++++++++++++++++++++++++++++++++++++++++++++++++++++++++++++++++++++++++++++++++++++++++++",
"++++++++++++++++++++++++++++++++++++++++++++++++++++++++++++++++++++++++++++++++++++++++++++++++++++++++++++++++++++++++++++++++++++++++++++++++++++++++++++++++++++++++++++++++++++++++++++++++",
"++++++++++++++++++++++++++++++++++++++++++++++++++++++++++++++++++++++++++++++++++++++++++++++++++++++++++++++++++++++++++++++++++++++++++++++++++++++++++++++++++++++++++++++++++++++++++++++++",
"++++++++++++++++++++++++++++++++++++++++++++++++++++++++++++++++++++++++++++++++++++++++++++++++++++++++++++++++++++++++++++++++++++++++++++++++++++++++++++++++++++++++++++++++++++++++++++++++",
"++++++++++++++++++++++++++++++++++++++++++++++++++++++++++++++++++++++++++++++++++++++++++++++++++++++++++++++++++++++++++++++++++++++++++++++++++++++++++++++++++++++++++++++++++++++++++++++++",
"++++++++++++++++++++++++++++++++++++++++++++++++++++++++++++++++++++++++++++++++++++++++++++++++++++++++++++++++++++++++++++++++++++++++++++++++++++++++++++++++++++++++++++++++++++++++++++++++"
};
