/* XPM */
static char *result[] = {
/* columns rows colors chars-per-pixel */
"35 35 118 2 ",
"   c black",
".  c #010101",
"X  c #020202",
"o  c gray1",
"O  c #040404",
"+  c gray2",
"@  c #060606",
"#  c #070707",
"$  c gray3",
"%  c #090909",
"&  c gray4",
"*  c #0B0B0B",
"=  c #0C0C0C",
"-  c gray5",
";  c #0E0E0E",
":  c gray6",
">  c #101010",
",  c #111111",
"<  c gray7",
"1  c #131313",
"2  c gray8",
"3  c #151515",
"4  c #161616",
"5  c gray9",
"6  c #181818",
"7  c #191919",
"8  c gray10",
"9  c #1B1B1B",
"0  c gray11",
"q  c #1D1D1D",
"w  c #1E1E1E",
"e  c gray12",
"r  c #202020",
"t  c gray13",
"y  c #222222",
"u  c #232323",
"i  c gray14",
"p  c #252525",
"a  c gray15",
"s  c #272727",
"d  c #282828",
"f  c gray16",
"g  c #2A2A2A",
"h  c gray17",
"j  c #2C2C2C",
"k  c #2D2D2D",
"l  c gray18",
"z  c #2F2F2F",
"x  c gray19",
"c  c #313131",
"v  c #323232",
"b  c gray20",
"n  c #343434",
"m  c #353535",
"M  c gray21",
"N  c #373737",
"B  c gray22",
"V  c #393939",
"C  c #3A3A3A",
"Z  c gray23",
"A  c #3C3C3C",
"S  c gray24",
"D  c #3E3E3E",
"F  c #3F3F3F",
"G  c gray25",
"H  c #414141",
"J  c gray26",
"K  c #434343",
"L  c #444444",
"P  c gray27",
"I  c #464646",
"U  c gray28",
"Y  c #484848",
"T  c #494949",
"R  c gray29",
"E  c #4B4B4B",
"W  c #4C4C4C",
"Q  c gray30",
"!  c #4E4E4E",
"~  c gray31",
"^  c #505050",
"/  c #515151",
"(  c gray32",
")  c #555555",
"_  c #565656",
"`  c gray34",
"'  c #585858",
"]  c gray35",
"[  c #5A5A5A",
"{  c #5B5B5B",
"}  c gray36",
"|  c #5D5D5D",
" . c #5F5F5F",
".. c #606060",
"X. c gray38",
"o. c #626262",
"O. c gray39",
"+. c #646464",
"@. c #656565",
"#. c gray40",
"$. c #676767",
"%. c #686868",
"&. c DimGray",
"*. c #6A6A6A",
"=. c #6D6D6D",
"-. c gray43",
";. c #6F6F6F",
":. c gray44",
">. c #717171",
",. c #727272",
"<. c gray45",
"1. c #747474",
"2. c gray46",
"3. c gray49",
"4. c #7E7E7E",
"5. c #808080",
"6. c #838383",
"7. c None",
/* pixels */
"7.7.7.7.7.7.7.7.7.7.7.7.7.7.7.7.7.7.7.7.7.7.7.7.7.7.7.7.7.7.7.7.7.7.7.",
"7.7.7.7.7.7.7.7.7.7.7.X & . , 8 < & + . o 5 x 7.7.7.7.7.7.7.7.7.7.7.7.",
"7.7.7.7.7.7.7.7.7.i % n ] 4 g X.[ / Y F M h w 3 6 v ` 7.7.7.7.7.7.7.7.",
"7.7.7.7.7.7.7.7., 3 J &.$.K 2 E _ ) _ ` [ | | ' m o = x o.7.7.7.7.7.7.",
"7.7.7.7.7.7.X O M  .+._ Q Y i j P L L I Y W ( [ v - N > s #.7.7.7.7.7.",
"7.7.7.7.7.O k t x [ R G S B l q l x c n N Z H G > x #.I - W 7.7.7.7.7.",
"7.7.7.7.o C ,.} w i S D V n z p s a p p s g k 5 4 U `  .r f 7.7.7.7.7.",
"7.7.7.  g >.*.' S 6 a n l f p u t r t y i s 0 , g S R ` Z : / 7.7.7.7.",
"7.7.7.= ..;.[ K S n 5 e p r 0 7 6 5 5 6 9 7 , i h l D E / r 3 7.7.7.7.",
"7.7.7.# V ` Y D C v p 1 4 4 < > ; ; ; : , ; 6 r p s b H ! S @ z 7.7.7.",
"7.7.. 5 : < g Z b g y 5 = = = * & % % * = ; < 6 e u d N g * X 8 7.7.7.",
"7.7.o W _ d < 5 u u 7 < : * % $ $ # # # $ * - , 7 e q , # t a 4 7.7.7.",
"7.7.@ ! } G N p 4 2 1 , - & # + O O O + @ # * - , > $ : h I j 7 7.7.7.",
"7.7.o I _ Z M l u 4 ; ; & # + o X X X o O + # # @ = 7 y v H u 9 7.7.7.",
"7.7.$ A ( B b g r 4 : = $ + X . . . . . X o O @ = 1 q t h S e 0 $.7.7.",
"7.7.4 x ^ M x d w 1 ; & @ o X .         . X + # = > 8 t s Z y 7 #.7.7.",
"7.7.t a ~ M l s 0 < ; % + o .           . X + # * : 7 t a V k : } 7.7.",
"7.7.j e ~ B l d 9 < : % + o .           . X + $ & : 6 t a V A - B 7.7.",
"7.7.M : g r 8 6 < ; - $ @ O . .         . X + $ * > 8 y a B U u 2 7.7.",
"7.7.N o & - , < ; - - % # + X . .   . . X o @ & = , 5 5 1 3 3 : @ 7.7.",
"7.7.j w W A c g w 4 1 - $ @ O o X X X X o + $ = : 1 0 t a z j t $ 7.7.",
"7.7.w z } K m j y 9 1 ; * $ @ + O O O O + $ * : < 4 y s v P ) ' < 7.7.",
"7.7.: Z o.T C c p 6 : 1 , = $ @ + @ @ @ % = : , 2 8 a g C R [ E @ 7.7.",
"7.7.. K *./ D f < 6 9 6 4 < ; * @ $ & * - : < 2 7 e f x K / X.z   7.7.",
"7.7.  K :.H 4 2 i l a 0 6 2 , : % * - ; > < 4 0 r a k C W [ | 1 7.7.7.",
"7.7.  f z - a L A x g r r 0 8 6 - , 4 5 4 2 8 r s x n U _ @.K X 7.7.7.",
"7.7.7.. ; ^ { ~ Q B r s p y e w ; 2 0 0 0 0 7 2 w l D ) O.@.9 7.7.7.7.",
"7.7.7.o J 5.:._ R d V S m z h s > 5 p s g z n n y > 5 m ] D X 7.7.7.7.",
"7.7.7.6 c 3.4.&.i v W U K D C N 1 e m m m N C D J U n < & * 7.7.7.7.7.",
"7.7.7.P ; [ 6.^ a  .) W I J G C > e C V A H U ~ [ %.1.~ # t 7.7.7.7.7.",
"7.7.7.7.p r -.i P 4.<.%. .) ~ T > s ~ / _ }  .@.=.;.Q 3 t 7.7.7.7.7.7.",
"7.7.7.7.` 1 0 $ U <.2.2.>.*.O.) ; d ] _ ~ S d i s 9 : l 7.7.7.7.7.7.7.",
"7.7.7.7.7.7.w = ; 2 8 e y w 8 1 o & 4 1 , 4 i l h c 7.7.7.7.7.7.7.7.7.",
"7.7.7.7.7.7.7.7.7.7.7.7.7.7.7.7.7.7.7.7.7.7.7.7.7.7.7.7.7.7.7.7.7.7.7.",
"7.7.7.7.7.7.7.7.7.7.7.7.7.7.7.7.7.7.7.7.7.7.7.7.7.7.7.7.7.7.7.7.7.7.7."
};
