/* XPM */
static char *result[] = {
/* columns rows colors chars-per-pixel */
"35 35 136 2 ",
"   c black",
".  c #010101",
"X  c #020202",
"o  c gray1",
"O  c #040404",
"+  c gray2",
"@  c #060606",
"#  c #070707",
"$  c gray3",
"%  c #090909",
"&  c gray4",
"*  c #0B0B0B",
"=  c #0C0C0C",
"-  c gray5",
";  c #0E0E0E",
":  c gray6",
">  c #101010",
",  c #111111",
"<  c gray7",
"1  c #131313",
"2  c gray8",
"3  c #151515",
"4  c #161616",
"5  c gray9",
"6  c #181818",
"7  c #191919",
"8  c gray10",
"9  c #1B1B1B",
"0  c gray11",
"q  c #1D1D1D",
"w  c #1E1E1E",
"e  c gray12",
"r  c #202020",
"t  c gray13",
"y  c #222222",
"u  c #232323",
"i  c gray14",
"p  c #252525",
"a  c gray15",
"s  c #272727",
"d  c #282828",
"f  c gray16",
"g  c #2A2A2A",
"h  c gray17",
"j  c #2C2C2C",
"k  c #2D2D2D",
"l  c gray18",
"z  c #2F2F2F",
"x  c gray19",
"c  c #313131",
"v  c #323232",
"b  c gray20",
"n  c #343434",
"m  c #353535",
"M  c gray21",
"N  c #373737",
"B  c gray22",
"V  c #393939",
"C  c #3A3A3A",
"Z  c gray23",
"A  c #3C3C3C",
"S  c gray24",
"D  c #3E3E3E",
"F  c #3F3F3F",
"G  c gray25",
"H  c #414141",
"J  c gray26",
"K  c #434343",
"L  c #444444",
"P  c gray27",
"I  c #464646",
"U  c gray28",
"Y  c #484848",
"T  c #494949",
"R  c gray29",
"E  c #4B4B4B",
"W  c #4C4C4C",
"Q  c gray30",
"!  c #4E4E4E",
"~  c gray31",
"^  c #505050",
"/  c #515151",
"(  c gray32",
")  c gray33",
"_  c #555555",
"`  c #565656",
"'  c gray34",
"]  c #585858",
"[  c gray35",
"{  c #5A5A5A",
"}  c #5B5B5B",
"|  c gray36",
" . c #5D5D5D",
".. c gray37",
"X. c #5F5F5F",
"o. c #606060",
"O. c gray38",
"+. c #626262",
"@. c gray39",
"#. c #646464",
"$. c #656565",
"%. c gray40",
"&. c #676767",
"*. c #686868",
"=. c #6A6A6A",
"-. c gray42",
";. c #6C6C6C",
":. c #6D6D6D",
">. c #6F6F6F",
",. c gray44",
"<. c #717171",
"1. c gray45",
"2. c #747474",
"3. c gray46",
"4. c #767676",
"5. c gray47",
"6. c #7B7B7B",
"7. c gray49",
"8. c gray50",
"9. c #808080",
"0. c #818181",
"q. c gray51",
"w. c #838383",
"e. c #848484",
"r. c #868686",
"t. c gray53",
"y. c #888888",
"u. c #909090",
"i. c gray59",
"p. c #979797",
"a. c gray60",
"s. c #9B9B9B",
"d. c gray61",
"f. c #A0A0A0",
"g. c gray64",
"h. c None",
/* pixels */
"h.h.h.h.h.h.h.h.h.h.h.h.h.h.h.h.h.h.h.h.h.h.h.h.h.h.h.h.h.h.h.h.h.h.h.",
"h.h.h.h.h.h.h.h.h.h.        h.h.h.h.h.h.h.h.h.h.h.h.h.h.h.h.h.h.h.h.h.",
"h.h.h.h.h.h.h.        O 5 e ; h.h.h.h.h.h.h.h.h.h.h.h.h.h.h.. h.h.  h.",
"h.h.h.h.h.. , : 9 v L E ! U 1 h.h.h.h.  h.h.h.h.h.h.h.r > X 0 >     h.",
"h.h.h.  O > ) 3.+.| %.7.d.p.M + h.4 q > h.h.h.h.h.  @ } H 2 w @     h.",
"h.h.h.X n =.1.{ F U 1 w p >.0.5   y ! f C 6 h.h.    =  .q.n 1 *   h.h.",
"h.h.h.m R v :.D P a ~ 2.v , G = O J *.R J :   X V p F i./ - .   h.h.h.",
"h.h.7 v V l L * . : ' i N >   q 1 ^ #.I Q = i q F 3.u.( 1.e.Y & h.h.h.",
"h.h.X t : * h.h.  . h.h.h.    e q ` @.Z 4 a Z > %.g.U | c T @.q h.h.h.",
"h.h.  $ Y e B p h.3 g h.h.% = o . e I w j N b S f.! $ ..s.H X h.h.h.h.",
"h.  $ 8 J i Q w w %.J h.  t j r < 2 m m U a ~ a...G Z 1 r.t.< h.h.h.h.",
"h.  9 u ^ :.%._ ~ L h ;   L S g z < M K A v <.#.a g Y ; 7 d h.h.h.h.h.",
"h.6 X.R W U o.C E O.w.;.d b * t c > v t 9 I r @ # X X X   h.h.h.h.h.h.",
"h.1 f 1.B &.,.V 4.y f ) T c . ; u ; s 5 $ & O $ h J b O   h.h.h.h.h.h.",
"h.h.3 M h.$ % - y h.# o 0 = O X = X + * o     y j F [ k .   h.h.h.h.h.",
"h.h.h.h.    & h.+     X   O -               8 <.0 @.l u + h b   h.h.h.",
"h.h.h.h.# # q 4 u i   > o                   q D & u 9 u , p z . h.h.h.",
"h.h.h.o p b X._ ` { { S X o o         & X - X 3 > : O O 2   h.h.h.h.h.",
"h.h.h.. q 5 Z ^ ( R b z U 5 e @   X < v w     b &.| :     h.h.h.h.h.h.",
"h.h.h.h.  O w 7 .   > v v U ' & % ; z 0 Q >   . c G , h.h.h.h.h.h.h.h.",
"h.h.h.h.  h.      : n m P -.V A Z , =   ) } o . + t > h.h.h.h.h.h.h.h.",
"h.h.h.h.h.h.h.h.- $.w.' w.g X.E D       r y.x * 7 N = h.h.h.h.h.h.h.h.",
"h.h.h.h.h.h.h.h.o 5 r ;.W s @.i e s r 1 H +.O.X q f 0 h.h.h.h.h.h.h.h.",
"h.h.h.h.h.h.h.h.  3 %. .c N W O c u.j $ A k e.0     h.h.h.h.h.h.h.h.h.",
"h.h.h.h.h.h.h., M M _ j c p @ c C f.) e < g 8.B   h.h.h.h.h.h.h.h.h.h.",
"h.h.h.h.h.h.X b o.%.Z V g 6 z ] z 0.-.@ * 3 :.o., h.h.h.h.h.h.h.h.h.h.",
"h.h.h.h.h.o 7 z } ' H Q 8 # y ( K _ 9.w a G O.5.H h.h.h.h.h.h.h.h.h.h.",
"h.h.h.h.  0 B ` F ) D ! o h.h.#.6.J t.h +.*. .1.] 2 h.h.h.h.h.h.h.h.h.",
"h.h.h.h.  o 8 P s Y 8 y h.h.3 %.w.P 0.p d 0 | ^ O X h.h.h.h.h.h.h.h.h.",
"h.h.h.h.h.+ p a h z   h.h.h.q q.,.T <.h % t | p   h.h.h.h.h.h.h.h.h.h.",
"h.h.h.h.4 6 > z 4 , h.h.h.h.Z X.{ #.b = X 0 I -   h.h.h.h.h.h.h.h.h.h.",
"h.h.h.h.1 & # 7 X h.h.h.h.h.h.- u 7., + o # P s h.h.h.h.h.h.h.h.h.h.h.",
"h.h.h.h.h.    . h.h.h.h.h.h.h.h.3 ] h.h.  o > h.h.h.h.h.h.h.h.h.h.h.h.",
"h.h.h.h.h.  h.h.h.h.h.h.h.h.h.h.h.- h.h.    h.h.h.h.h.h.h.h.h.h.h.h.h.",
"h.h.h.h.h.h.h.h.h.h.h.h.h.h.h.h.h.h.h.h.h.h.h.h.h.h.h.h.h.h.h.h.h.h.h."
};
