/* XPM */
static char *result[] = {
/* columns rows colors chars-per-pixel */
"35 35 205 2 ",
"   c black",
".  c #010101",
"X  c #020202",
"o  c gray1",
"O  c #040404",
"+  c gray2",
"@  c #060606",
"#  c #070707",
"$  c gray3",
"%  c #090909",
"&  c gray4",
"*  c #0B0B0B",
"=  c #0C0C0C",
"-  c gray5",
";  c #0E0E0E",
":  c gray6",
">  c #101010",
",  c #111111",
"<  c gray7",
"1  c #131313",
"2  c gray8",
"3  c #151515",
"4  c #161616",
"5  c gray9",
"6  c #181818",
"7  c #191919",
"8  c gray10",
"9  c #1B1B1B",
"0  c gray11",
"q  c #1D1D1D",
"w  c #1E1E1E",
"e  c #202020",
"r  c gray13",
"t  c #222222",
"y  c #232323",
"u  c gray14",
"i  c #252525",
"p  c gray15",
"a  c #272727",
"s  c gray16",
"d  c #2A2A2A",
"f  c gray17",
"g  c #2C2C2C",
"h  c gray18",
"j  c #2F2F2F",
"k  c gray19",
"l  c #313131",
"z  c #323232",
"x  c gray20",
"c  c #343434",
"v  c #353535",
"b  c gray21",
"n  c #373737",
"m  c #393939",
"M  c #3A3A3A",
"N  c gray23",
"B  c #3C3C3C",
"V  c gray24",
"C  c #3E3E3E",
"Z  c #3F3F3F",
"A  c gray25",
"S  c #414141",
"D  c gray26",
"F  c #434343",
"G  c #444444",
"H  c gray27",
"J  c #464646",
"K  c gray28",
"L  c #484848",
"P  c gray29",
"I  c #4B4B4B",
"U  c #4C4C4C",
"Y  c gray30",
"T  c #4E4E4E",
"R  c gray31",
"E  c #505050",
"W  c #515151",
"Q  c gray32",
"!  c #535353",
"~  c gray33",
"^  c #555555",
"/  c #565656",
"(  c #585858",
")  c gray35",
"_  c #5A5A5A",
"`  c #5B5B5B",
"'  c #5D5D5D",
"]  c gray37",
"[  c #606060",
"{  c gray38",
"}  c #626262",
"|  c #646464",
" . c #656565",
".. c gray40",
"X. c #676767",
"o. c #686868",
"O. c DimGray",
"+. c gray42",
"@. c #6C6C6C",
"#. c #6D6D6D",
"$. c gray43",
"%. c #6F6F6F",
"&. c gray44",
"*. c #717171",
"=. c #727272",
"-. c gray45",
";. c #747474",
":. c #777777",
">. c gray47",
",. c gray48",
"<. c #7B7B7B",
"1. c #7C7C7C",
"2. c gray49",
"3. c #7E7E7E",
"4. c gray50",
"5. c #838383",
"6. c #848484",
"7. c gray52",
"8. c #868686",
"9. c gray53",
"0. c #888888",
"q. c #898989",
"w. c gray55",
"e. c #8D8D8D",
"r. c #8E8E8E",
"t. c gray56",
"y. c #909090",
"u. c gray57",
"i. c #929292",
"p. c #939393",
"a. c gray58",
"s. c #959595",
"d. c gray59",
"f. c #989898",
"g. c gray60",
"h. c #9A9A9A",
"j. c #9B9B9B",
"k. c gray61",
"l. c #9D9D9D",
"z. c #A0A0A0",
"x. c gray63",
"c. c #A2A2A2",
"v. c gray64",
"b. c #A4A4A4",
"n. c #A5A5A5",
"m. c #A7A7A7",
"M. c gray66",
"N. c #A9A9A9",
"B. c gray67",
"V. c #ACACAC",
"C. c #AFAFAF",
"Z. c gray69",
"A. c #B1B1B1",
"S. c #B2B2B2",
"D. c #B4B4B4",
"F. c gray71",
"G. c #B6B6B6",
"H. c #B9B9B9",
"J. c #BBBBBB",
"K. c gray74",
"L. c gray",
"P. c gray75",
"I. c #C0C0C0",
"U. c #C1C1C1",
"Y. c gray76",
"T. c #C3C3C3",
"R. c #C5C5C5",
"E. c #C6C6C6",
"W. c gray78",
"Q. c #C8C8C8",
"!. c gray79",
"~. c #CACACA",
"^. c #CBCBCB",
"/. c gray80",
"(. c #CDCDCD",
"). c #CECECE",
"_. c gray81",
"`. c #D0D0D0",
"'. c gray82",
"]. c #D2D2D2",
"[. c LightGray",
"{. c gray83",
"}. c #D5D5D5",
"|. c #D7D7D7",
" X c #D8D8D8",
".X c gray85",
"XX c #DADADA",
"oX c gray86",
"OX c gainsboro",
"+X c #DDDDDD",
"@X c gray87",
"#X c #DFDFDF",
"$X c #E1E1E1",
"%X c #E2E2E2",
"&X c gray89",
"*X c #E4E4E4",
"=X c gray90",
"-X c #E6E6E6",
";X c #E7E7E7",
":X c gray91",
">X c #E9E9E9",
",X c #EAEAEA",
"<X c gray92",
"1X c #ECECEC",
"2X c None",
/* pixels */
"2X2X2X2X2X2X2X2X2X2X2X2X2X2X2X2X2X2X2X2X2X2X2X2X2X2X2X2X2X2X2X2X2X2X2X",
"2X2X2X2X2X2X2X2X2X2X2X2X2X2X2X2X2X2X2X2X2X2X2X2X2X2X2X2X2X2X2X2X2X2X2X",
"2X2X2X2X2X2X  2X2X2X2X2X2X2X2X2X2X2X2X2X2X2X2X2X2X2X2X2X2X2X2X2X2X2X2X",
"2X2X  3 W x a 3   . O % o 2X2X2X2X2X2X2X2X2X2X2X2X2X2X2X2X2X2X2X2X2X2X",
"2X2X  < A.oX}.D.:.4.e.i.*.w = = 2X2X2X2X2X2X2X2X2X2X2X2X: 2X2X2X2X2X2X",
"2X2X  @ S  .N.:X:XXX.X;X:XX.m S .     X X 2X2X2X8 , K y.6.9 2X2X2X2X2X",
"2X2X2X2X    C XX;XT.r.<.z.I.H.Z./     n ^ c   r l.m.+X1Xt.t < 2X2X2X2X",
"2X2X2X2X2X  ; ! _.:X$XI.,.( v.>Xq.X X 7 A K , 6.<X#X~.].#X^.S.Q #   2X",
"2X2X2X2X2X    q P.:X-X:X-XF.T 8.3.s q [ C [ G._.d.( K | {.<X1X'.I   2X",
"2X2X2X2X2X2X  O $.;X-X=X-X>X/.Q ,.N.z ' k Y.!.` O.H.].}.#XP.Z.^.h.4 2X",
"2X2X2X2X2X2X2X  x F.*X-X-X=X>XL.U F.d   C C.B 5.%X>X;X,XD.q ; d K 9 2X",
"2X2X2X2X2X2X2X    F XX-X-X-X-X:X2.| ~ 5 V k ] =X%X X#X).R o 2X2X2X2X2X",
"2X2X2X2X2X2X2X  X >.:X;X-X-X-X;X(.H ] , o v /.z.K A J x @   2X2X2X2X2X",
"2X2X2X2X2X2X2X2 p g J. X@X*X:X&Xx.P g = o r.1.D b f m   2X2X2X2X2X2X2X",
"2X2X2X2X2X2X2XX 7 w 0 z N ^ u.3.#.9 = o 5 +.r f.p.> c 2X2X2X2X2X2X2X2X",
"2X2X2X2X2X2X2X  H S.{ t     # 4 s + * $ 4 / } F P m : 2X2X2X2X2X2X2X2X",
"2X2X2X2X2X2X2X# @.o.! &.f @ O   o , . 6 9 j.;XE.%.h : 2X2X2X2X2X2X2X2X",
"2X2X2X2X2X2X2X  j r.{.;XP.L e ` w n # 8.5.k !.,XOX~ O 2X2X2X2X2X2X2X2X",
"2X2X2X2X2X2X  + _ !.:X:XN.r s.&Xi.4   6.%XY 4.:X:Xh.- 2X2X2X2X2X2X2X2X",
"2X2X2X2X2X  O d o.R.>XR.j #.&X:X-X~ A ).,Xx.S |.:XC.s   2X2X2X2X2X2X2X",
"2X2X2X2X2X2X7 c.;X:X.XT ( .X:X.XU.{ ) ;X-X XD n.,XQ.) o 2X2X2X2X2X2X2X",
"2X2X2X2X2X2X# w.>X*X*.I [.:X*XN.g l ..,X;X:X5.#.,XM.2   2X2X2X2X2X2X2X",
"2X2X2X2X2X2X$.XX>Xk.C R.:X>Xm.v = < t.a.`.=X`.0.@X5.a   2X2X2X2X2X2X2X",
"2X2X2X2X2XO.P.-XW.H V.:X*Xt.v x $.D E 5 ^ ~ Y.*X=X=.  2X2X2X2X2X2X2X2X",
"2X2X2X2Xl m v E.-.p.>X:XXXc   3.=X~ u Q : 4 Y _.-X`   2X2X2X2X2X2X2X2X",
"2X2X2X. # $ *.I.g.*XK.P.!.a r B.,X .+.7.N Z r G i.m   2X2X2X2X2X2X2X2X",
"2X2X2X2X2XN !.*X*X,X,.z } . ~ %X;X..9.[.F.C e o & 8 2X2X2X2X2X2X2X2X2X",
"2X2X2X2X  = d.,X'.,.1.< *   M Q.:X .1.>XXXU 2X2X2X2X2X2X2X2X2X2X2X2X2X",
"2X2X2X2X2X4 N.t.V 1 y 5 2X2X: F R.+.6.[.Q y 2X2X2X2X2X2X2X2X2X2X2X2X2X",
"2X2X2X2X2XG ;.>     2X  2X2X  O u.b.V.a.k   2X2X2X2X2X2X2X2X2X2X2X2X2X",
"2X2X2X2X2Xi 1 2X2X2X2X2X2X2X2X- m i.k.= X 2X2X2X2X2X2X2X2X2X2X2X2X2X2X",
"2X2X2X2X2X  2X2X2X2X2X2X2X2X2XX   j z   2X2X2X2X2X2X2X2X2X2X2X2X2X2X2X",
"2X2X2X2X2X2X2X2X2X2X2X2X2X2X2X2X2X2X2X2X2X2X2X2X2X2X2X2X2X2X2X2X2X2X2X",
"2X2X2X2X2X2X2X2X2X2X2X2X2X2X2X2X2X2X2X2X2X2X2X2X2X2X2X2X2X2X2X2X2X2X2X",
"2X2X2X2X2X2X2X2X2X2X2X2X2X2X2X2X2X2X2X2X2X2X2X2X2X2X2X2X2X2X2X2X2X2X2X"
};
