/* XPM */
static char *result[] = {
/* columns rows colors chars-per-pixel */
"35 35 143 2 ",
"   c black",
".  c #010101",
"X  c #020202",
"o  c gray1",
"O  c #040404",
"+  c gray2",
"@  c #060606",
"#  c #070707",
"$  c gray3",
"%  c #090909",
"&  c #090A0A",
"*  c gray4",
"=  c #0B0B0B",
"-  c #0C0C0C",
";  c #0D0C0C",
":  c gray5",
">  c #0E0E0E",
",  c gray6",
"<  c #101010",
"1  c #111010",
"2  c #111111",
"3  c gray7",
"4  c #131313",
"5  c gray8",
"6  c #151515",
"7  c #161516",
"8  c #161616",
"9  c gray9",
"0  c #181818",
"q  c #191919",
"w  c gray10",
"e  c #1B1B1B",
"r  c gray11",
"t  c #1D1D1D",
"y  c #1E1E1E",
"u  c gray12",
"i  c #202020",
"p  c #212020",
"a  c gray13",
"s  c #222222",
"d  c #222323",
"f  c #232323",
"g  c gray14",
"h  c #252525",
"j  c gray15",
"k  c #272727",
"l  c #282828",
"z  c #292828",
"x  c gray16",
"c  c #2A292A",
"v  c #2A2A2A",
"b  c #2B2A2A",
"n  c gray17",
"m  c #2C2C2C",
"M  c #2D2D2D",
"N  c gray18",
"B  c #2F2F2F",
"V  c gray19",
"C  c #313030",
"Z  c #313131",
"A  c #323232",
"S  c gray20",
"D  c #343434",
"F  c #353535",
"G  c gray21",
"H  c #373636",
"J  c #373737",
"K  c gray22",
"L  c #393939",
"P  c #3A3939",
"I  c #3A3A3A",
"U  c #3B3A3A",
"Y  c gray23",
"T  c #3C3B3B",
"R  c #3C3C3C",
"E  c gray24",
"W  c #3E3E3E",
"Q  c #3F3F3F",
"!  c #403F3F",
"~  c gray25",
"^  c #414041",
"/  c #414141",
"(  c #424141",
")  c gray26",
"_  c #434343",
"`  c #444343",
"'  c #444444",
"]  c gray27",
"[  c #464646",
"{  c gray28",
"}  c #484848",
"|  c #494949",
" . c gray29",
".. c #4B4B4B",
"X. c #4C4C4C",
"o. c #4D4C4C",
"O. c gray30",
"+. c #4E4E4E",
"@. c gray31",
"#. c #504F4F",
"$. c #504F50",
"%. c #505050",
"&. c #515050",
"*. c #515151",
"=. c #525151",
"-. c #525152",
";. c gray32",
":. c #525353",
">. c #535353",
",. c gray33",
"<. c #555555",
"1. c #565656",
"2. c gray34",
"3. c #585858",
"4. c gray35",
"5. c #5A5A5A",
"6. c #5B5B5B",
"7. c gray36",
"8. c #5D5D5D",
"9. c gray37",
"0. c #5F5F5F",
"q. c #606060",
"w. c gray38",
"e. c #626262",
"r. c #636262",
"t. c gray39",
"y. c #646464",
"u. c #656565",
"i. c gray40",
"p. c #676767",
"a. c #686868",
"s. c DimGray",
"d. c #6A6A6A",
"f. c gray42",
"g. c #6C6C6C",
"h. c #6D6D6D",
"j. c gray43",
"k. c #6F6F6F",
"l. c gray44",
"z. c #717171",
"x. c gray45",
"c. c #767676",
"v. c None",
/* pixels */
"v.v.v.v.v.v.v.v.v.v.v.v.v.v.v.v.v.v.v.v.v.v.v.v.v.v.v.v.v.v.v.v.v.v.v.",
"v.v.v.v.v.v.v.v.v.v.v.v.v.v.v.v.v.v.v.v.v.v.v.v.v.v.v.v.v.v.v.v.v.v.v.",
"v.v.v.v.v.v.v.v.v.v.v.v.v.u./ v.v.v.v.v.v.v.v.v.v.v.v.v.v.v.v.v.v.v.v.",
"v.v.v.v.v.v.v.v.v.v.w.w.7.z.d.) v.v.v.v.v.v.v.v.v.v.v.v.y J ] v.v.v.v.",
"v.v.v.v.v.v.v.v.v.A 3.} 1.s.e.i.} , v.v.v.v.v.v.v.> t / 5.w.q.k v.v.v.",
"v.v.v.v.v.v.v.v.v.V y. .n <.j.,.j.O.3 v.v.v.v.v.= V 7.p.2.{ w.K v.v.v.",
"v.v.v.v.v.v.v.v.v.F p.t.m [ c.7.*.z.) = v.v.v.= Q u.p.O.Q 5.a.W v.v.v.",
"v.v.v.v.v.v.v.v.v.D i.a.~ [ x.f.I q.f.m - v.O N X.4.s.;.t.p.a.F v.v.v.",
"v.v.v.v.v.v.v.v.v.h 0.s.F E l.k.) E g.,.*   # M ,.d.g.w.y.y.y.s v.v.v.",
"v.v.v.v.v.v.L / K e I 2.s G l.h.&.y q.9.= X B y.j.l.5.9.9.e.>.* v.v.v.",
"v.v.v.v.X.6.q.q.0.*.n w > e ~ 1.4.4 | :.# j t.i.r.0.W a.6.9.v   v.v.v.",
"v.v.v.w.y.e.w.e.e. .[ %. .M = * g > m v # ~ I s 7 6 t [ ,.Q +   v.v.v.",
"v.v.2.,. ./ L m x N X.| 0.8._ ,     > $ + : .   6 G K h N :     v.v.v.",
"v.v.e.w.q.w.0.2._ k } ] _ ;.4./ ;           X s [ ' } y %     v.v.v.v.",
"v.v.u.y.p.p.p.i.a. .x 1.' x Q <.H +       X f G C *.>.i ' V =   v.v.v.",
"v.v.v./ 8.p.i.u.' < + V 1. .M [ +.s       > t s ..6.P a d.l.#.-   v.v.",
"v.v.v.v.x 1.p.} % 3 I n b ..] k j c #     o a X.1.X.4 f  .O.,.w v.v.v.",
"v.v.v.v.v.9 K 6 l w.k.w.s 2 v B , O o     = ) @._ 0 @ m >.u.' : v.v.v.",
"v.v.v.v.v.v.o l f.x.s.K 4 > $ + o         % y e % # R s.j.[ * v.v.v.v.",
"v.v.v.v.v.v.0 q.k.w.F i ^ ] z O                 $ ' p.w.Y $   v.v.v.v.",
"v.v.v.v.v.v.A 2.2./ d +.[ u t > $ .     o > , # O l m 5 o     v.v.v.v.",
"v.v.v.v.v.4 l | 4./ ] +.f D S v S $ X   1 ~ } W 8             v.v.v.v.",
"v.v.v.v.v.@ 4 3 % k o.V E [ A  .n 0 0   O m +.=.( &           v.v.v.v.",
"v.v.v.v.v., %.*.G ' ~ ..1.Y [ P w ! S @ e < T ;.>.j           v.v.v.v.",
"v.v.v.v.  A p.a.@.J ]  .W D X.p U %.E * K m e O.2.] 4 %       v.v.v.v.",
"v.v.v.v.: ,.a.<.a E *.} } ` { c $.-.Y # Z *.B V <.3.N V $     v.v.v.v.",
"v.v.v.v.k u.w.V [ i.p.p.q...} E <.>.k @ q _ ,.E W 3. .[ L o     v.v.v.",
"v.v.v.+ / a.[ [ p.p.i.p.w.+.O. .3._ = X y f D @.%.| ;.4.e.h     v.v.v.",
"v.v.v.2 2.7.' t.p.p.a.w.' v O.%.%.x v.  : ~ ) V D ' %.3.q.@.#   v.v.v.",
"v.v.v.x w.+.6.a.a.0.) y + O S %.v.v.v.%   : W 6.;.Q O.@.) 6.w   v.v.v.",
"v.v.v./ e.<.p.q./ r O   v.v.v.v.v.v.v.v.$   X , i / w.p.>.| v v.v.v.v.",
"v.v.v.X.p.u.2.l > v.v.v.v.v.v.v.v.v.v.v.v.v.o .   # w v A n r v.v.v.v.",
"v.v.v.1.p.i.v.v.v.v.v.v.v.v.v.v.v.v.v.v.v.v.v.v.v.v.v.  v.v.v.v.v.v.v.",
"v.v.v.v.v.v.v.v.v.v.v.v.v.v.v.v.v.v.v.v.v.v.v.v.v.v.v.v.v.v.v.v.v.v.v.",
"v.v.v.v.v.v.v.v.v.v.v.v.v.v.v.v.v.v.v.v.v.v.v.v.v.v.v.v.v.v.v.v.v.v.v."
};
