/* XPM */
static char *result[] = {
/* columns rows colors chars-per-pixel */
"35 35 5 1 ",
"  c #9B3535",
". c #AB3E3D",
"X c #B84F4C",
"o c #3F1515",
"O c white",
/* pixels */
"     ..Xo. .         ..Xo. .       ",
"     ..XoX.          ..XoX.        ",
"      ..o..           ..o..        ",
"    ...XoX .        ...XoX .       ",
"       XoXX.           XoXX.       ",
"      ..oX..          ..oX..       ",
". .  ...oX. .. .. .  ...oX. .. .. .",
".. ....Xo.X.XX ... ....Xo.X.XX ... ",
".X X..XXoXXX.XXX.X X..XXoXXX.XXX.X ",
"ooooooooooooooooooooooooooooooooooo",
"X.XXXX..oXX.XXXXX.XXXX..oXX.XXXXX.X",
".XX.X.XXoXX..XXX.XX.X.XXoXX..XXX.XX",
". .X...Xo.X...... .X...Xo.X...... .",
" .. ..XXo.X  .   .. ..XXo.X  .   ..",
"  . . ..o.X..     . . ..o.X..     .",
"      XXoX. .         XXoX. .      ",
"     ..Xo. .         ..Xo. .       ",
"     ..XoX.          ..XoX.        ",
"      ..o..           ..o..        ",
"    ...XoX .        ...XoX .       ",
"       XoXX.           XoXX.       ",
"      ..oX..          ..oX..       ",
". .  ...oX. .. .. .  ...oX. .. .. .",
".. ....Xo.X.XX ... ....Xo.X.XX ... ",
".X X..XXoXXX.XXX.X X..XXoXXX.XXX.X ",
"ooooooooooooooooooooooooooooooooooo",
"X.XXXX..oXX.XXXXX.XXXX..oXX.XXXXX.X",
".XX.X.XXoXX..XXX.XX.X.XXoXX..XXX.XX",
". .X...Xo.X...... .X...Xo.X...... .",
" .. ..XXo.X  .   .. ..XXo.X  .   ..",
"  . . ..o.X..     . . ..o.X..     .",
"      XXoX. .         XXoX. .      ",
"     ..Xo. .         ..Xo. .       ",
"     ..XoX.          ..XoX.        ",
"      ..o..           ..o..        "
};
