/* XPM */
static char *result[] = {
/* columns rows colors chars-per-pixel */
"64 64 94 2 ",
"   c #0F0B1C",
".  c #120D1D",
"X  c #15101F",
"o  c #161223",
"O  c #181526",
"+  c #1A172A",
"@  c #1C192D",
"#  c #1E1C31",
"$  c #201E32",
"%  c #242236",
"&  c #24243C",
"*  c #29273E",
"=  c #29283F",
"-  c #262741",
";  c #272843",
":  c #2C2C45",
">  c #2C2E4B",
",  c #302F47",
"<  c #302F48",
"1  c #2D304F",
"2  c #33334D",
"3  c #39384E",
"4  c #2E3251",
"5  c #333554",
"6  c #393A53",
"7  c #323759",
"8  c #35395C",
"9  c #3C3D5B",
"0  c #373D62",
"q  c #383F64",
"w  c #403F53",
"e  c #3F405F",
"r  c #3A4166",
"t  c #3D456D",
"y  c #3E4771",
"u  c #3F4872",
"i  c #414054",
"p  c #434563",
"a  c #464866",
"s  c #41476C",
"d  c #4A4D6C",
"f  c #414A74",
"g  c #4A4F71",
"h  c #454E78",
"j  c #4C5072",
"k  c #47507A",
"l  c #4B547D",
"z  c #545570",
"x  c #5C5C75",
"c  c #50557A",
"v  c #56597B",
"b  c #585C7E",
"n  c #63637A",
"m  c #4E5681",
"M  c #555C85",
"N  c #595D81",
"B  c #565E89",
"V  c #5C6186",
"C  c #5C638D",
"Z  c #5F6690",
"A  c #65698B",
"S  c #696D8F",
"D  c #606790",
"F  c #646B95",
"G  c #6A6F91",
"H  c #676E98",
"J  c #686F99",
"K  c #6B7196",
"L  c #6A729B",
"P  c #707493",
"I  c #7B7E99",
"U  c #767CA2",
"Y  c #797FA2",
"T  c #7A80A5",
"R  c #7B82A9",
"E  c #82859E",
"W  c #8587A0",
"Q  c #8688A1",
"!  c #8187AA",
"~  c #848AAD",
"^  c #898EAF",
"/  c #888EB1",
"(  c #8E93B4",
")  c #9296B6",
"_  c #9498B7",
"`  c #959AB9",
"'  c #9A9EBC",
"]  c #9DA1BD",
"[  c #9EA2C0",
"{  c #A3A7C2",
"}  c #A5A9C4",
"|  c #A8ACC7",
" . c #A9ADC8",
".. c None",
/* pixels */
"................................... . . . . . . .   .   X . . . . . X . . . . . .   . . . X X ..................................",
"..................................o O O o o X O o o o o O O X X X X O O X X o X O O o o o o O ..................................",
"..................................$ $ $ % % % % % % % % % % % % % % % % % * % % $ $ $ $ $ $ $ ..................................",
"................................% * : : 2 3 3 i i i i i i i i i i i i i w i i w w w w < , : * $ ................................",
"..............................@ * 3 9 p d z x x n n n n n n n n n n n n n n n n n x z d p 0 2 * $ ..............................",
"........................... o $ : 9 g N A K I W Q E E E Q E E E W W Q Q Q Q Q Q E I P A N j w , $ O . ..........................",
"..........................O @ * 6 d V K T ^ ) ' { ] ] ] ] ] ] ] ] ] ] ] ] ] { ] ' ) ^ Y K V d 3 * @ O ..........................",
"........................$ % ; 3 p v K T / ` [ {  . .| } | | } } } } } } } }  .} { [ ` / T K v p 3 * % $ ........................",
"......................# * 2 6 a v S T ^ _ ] { | | | | | | | | | }  .}  .} }  . .} { ] _ / Y S v a 9 < & $ ......................",
"................... O $ > 9 g N S Y ^ _ ] [ { { } | } } } } } } } } } } } { } } } } { ] _ ^ Y S b d q < $ O . ..................",
"..................O @ * 6 g V K T ^ _ ] { { { { { { { { { { { { } { } } { { { { { { { { ] _ ^ T P B d 6 * @ O ..................",
"................@ % * 3 a b K T ^ _ ' { { { { { { { { { { { { } { { { { { { { { { { { { { ] _ / Y P b a 3 = $ @ ................",
"..............$ * < 6 a v G Y / _ ' { { { | { { { { { { { { { { { { { { { { { { { { } } } { ' ) / Y G v a 6 : ; $ ..............",
"........... O % 2 9 d b S I / ` ] ] { { } { { { { { { { } { { { { { { } { { { { { { { } { { ] ' ` / Y G v d 9 < % O . ..........",
"..........O @ ; 8 d V K Y / _ ] { { { { { { { { { { ] { { { { { { { { { { { { { { { { { { { { { [ _ ^ Y L A g 6 : @ O ..........",
"........@ $ * 3 a N K T / ` ' { } { { { { { { { { { { { { { } { } { { { { { { { { { { { { { { { { [ _ / Y K b a 3 * $ @ ........",
"......% ; , 6 a v K T ^ _ ' { { { } { { { { { { { { { } { { { { { { { { { } { { { { { { { { } { } { ' _ ^ Y G v a 6 < : $ ......",
". o $ * 3 9 d b S Y ^ _ ' { { { } { { } { { { { { } { { { { { } { { } { { { { { { { { { { { { { { { [ ' _ ^ Y S b d w 2 : $ o . ",
". o $ : 9 g N G T ^ ` ' [ { { { { { { { { { { { { { { } { { { { { { { { { { { } { { { { { { { { { { { [ ' ' ^ Y G N c 9 : $ o X ",
"X o $ , p v H Y ~ ) ] { } { { { { { { { { { { { { { { { } { { { { } { } { { { { { { { { { } { { { { { { { ] _ ~ Y F v e > $ o . ",
"X o $ : p M L R ( ` { } } } { { { { { { { { { { } { { { { { } { { { { } { { } { { { { { { { { { { { } } | { ' / R J M p < $ o . ",
". o $ < p M L R ( ' { } } } { { { { { { { { { { { { { { { { { { { { { { { { { { { { { { { { { { { { } } } { ' ( R J N p < $ O . ",
". o $ , p N J R ^ ` { } } } { { { { { { } { { { { { { { { } { { { { { { { { { { { { { { { { { { { { } } } ] ' / R J N p , $ o . ",
"X o $ , e v F Y ~ ) ' { { } { { { { { { { { { { { } { { { { { } { { } { } { { { { { { { { { { { { { { { { ' ) ~ Y H M i , $ O . ",
"X o $ : 9 c D L R ^ ) ' ] { { { { { { { { { { { { { { { { { { { { { { { } { { { { { { { { { { { { { { [ ' ) / Y L D l 9 : $ o . ",
"X o $ ; 5 g M D L ! ^ / _ ' [ } { { { { { { { { { { { { } { { { { } { { { { { } { { { { { { } } { { ] ` ( ~ Y U F M g 5 * @ o . ",
"X o @ & 5 s l B F L Y ! ( ' [ { } } } { { { { { { { { { { { } { { { { { { } { { { { { { { { { } { [ ` ( ! U L F B l p 5 ; @ o o ",
"X o @ & 4 q f m B D J U ~ ) ' { { { { { { { { { { { { { { { { { { { } { { { { { { { { { { { { { { ' ) ~ U L D B m f q 5 & @ o X ",
"X o @ $ 4 0 y h m B D L Y / ) ' ] { { { { { { { { { { { { { { { { { { { { { { { { { } { { { { [ ' ) ^ Y J D B m h y 0 > % @ o o ",
"o o @ & 1 0 y h m m M D L Y ~ ) _ ] { { { { { { { { { { { { { { { { { { { { { { { { } { { { ] ` ( ~ T L Z M m l f y 0 > & @ o X ",
"X O @ & 1 0 y f h l m B D L Y ! ( ` [ { } } { { { { { { { { { } { { { { { { { { { { } } { ] ` ( ! U L A B m k h h y 0 > & @ o o ",
"X o @ & 1 0 y y f f f m M D L U ~ ( ' { { } { { { { { { { { { { { { { { { { { { { { { { { ' ) ! U L Z B m f h f f y 0 4 & @ o X ",
"o o + & 4 0 u u u u u k m B Z J T ~ ) ] ] } } ] { { } [ { { } [ { { { { { { { { { { ] ] ] ) ~ T J Z M m m u u u u y 0 1 & @ o o ",
". o @ & 4 0 y u u u u k k m B Z K T ~ ) ] ] ] } } } } } } } } } } } } } } { } } { { ] ] ( ~ T L Z V m k h u u u u y 0 1 & @ o o ",
"o o @ & 4 0 u u u u u u u k l V Z K T ~ ( _ ] ] } } } } } } } } } } } } } } } } { ] ` ( ~ T L Z V l k u u u u u u y q 1 & @ o . ",
"o o + & 4 0 u u u u u u u u k m V Z L T R ( ] ] } } } { { { } [ { { { { { } } } ] ] ( ! U L Z V m k h u h u u u u u 0 4 & @ o o ",
". o # & 4 0 t u k u u u u u u l l B Z J T ~ ) ] ] ] ] ] [ [ [ [ ] ] ] ] ] ] ] { ] ) ~ T J Z B m u u u u u u h u u y 0 1 # @ o o ",
"o o + & 4 0 t u u u u u u u u u k m V Z L T ~ ) _ _ _ _ ` ` ( ) _ ) _ ) ) _ _ _ ( ~ T K Z B m k u u u u u u u u u y 0 1 - @ o o ",
"o o @ & 4 0 u u u u u u u u u u u m m B Z L T R ~ ~ ^ ~ R / / R ! ~ ! ~ ~ ~ ~ ~ ~ T L Z B m k h u u u u u u u u u y 0 1 & @ o o ",
". o @ & 4 r u k u k u u u u u u u u u k V F L L T U U T U U U U U U U U U U I T L L F M l h h u u u u u u u u k u y 0 1 & @ o . ",
"o O @ $ 1 q y u u u u u u u u k u u u k m C Z J L L L L L L L L L L L L L L L L L F B m h u u u y h u u u u u h h y 0 1 - @ O o ",
". o @ & 4 q y u u u k u u u u u u u u k l V Z F H J L H H J H H H H H H H H J H H C M l u u u u y u u u u u u u u y q 4 $ @ o o ",
". O @ & 4 q y h k u u u u u u u u u u u m m Z Z H H H H H H H Z F H H H H H H H F Z M l h y y y y u u u u u h u f u q 4 - @ o . ",
"o O @ & 4 q u u u u u u u u u u u u u u m B Z F H H H H H H H H H F H H H H L H F Z M k u u y y u u u u u h u h u u q 4 $ @ o o ",
"o o @ & 1 0 y y u u u u u u u u u u u u k M Z Z J L H H H H H H H H H H H L J H F Z B k u u y u u u h y u y u u y t 0 1 - @ + . ",
". o @ - > 7 0 t t y u u u u u u u u u u m B Z F J J J J J H H L H H J J L H L H F Z M m h u y u u u u u u y u y t 0 7 > $ @ o o ",
". O # # ; > 4 0 r r u u u u u u u u u u m B Z H J L J J J J H H L J J J H J L L F Z B k h u u y u u u h h y y q 7 4 > - # # o o ",
"......# # & ; > r y u u u m u u u u u u m B Z F J L J J J J L H H J J J J J J H H Z B m u u y u u u h u u y q 7 1 ; - & # ......",
"........O # $ - 4 0 t u u u f u u u u u m C Z H H L H H H L H H L H H H H H L H Z Z B k u u u u u u u h u y 0 4 - # @ O ........",
"..........O @ $ ; 7 q t y y u u u u u k m B Z H L H H L L H H L H H L L L H L L H C B m m u u u u u y y t q 7 ; $ @ O ..........",
"..........o O # - > 7 8 q t y f u u u k k B Z H H H L H L H H H H J H H H H H H H Z B m u u u u u y y 0 0 4 > - # O o ..........",
"..............# $ - ; 4 7 q y h u u u u m m Z Z L L L H H H L L J J L H H L L L H Z C m u u u u u y q 7 1 ; - $ # ..............",
"................+ # # - > 0 t y u u u h l M Z H H L J J J J L H J J J J L H L H Z Z C m h u u u u y 0 > - # # @ ................",
"..................O # # ; 7 q t y t u u m B Z H H L J J J J H L J J J J L L L H H Z m m u u u u y q 7 ; # @ O ..................",
"..................o O # - > 7 0 r t y h m B Z J L L L L L L L L L L L L L L L L H Z C m h u t q 0 7 1 - # O . ..................",
"......................# # - ; > 7 0 y u m C Z L L L L L L L L L L L L L L L L L L Z B m u t 0 7 1 ; - # # ......................",
"........................@ # % - 1 7 t h m B Z H L L L J L J L L L L J J L L L L H F C m h t 8 > - % # @ ........................",
"..........................O @ # ; 4 0 u k B C F F F F F F F F F Z F F F F F F H A C M k y 0 4 - # @ O ..........................",
"..........................o O # & > 7 q t g l v N N N N v v b b B M M v M N N v v l g s q 7 > & # o o ..........................",
"..............................O # - > 4 7 9 e p p p p p p p p p t r p p p p a p p e 9 7 4 > - # @ ..............................",
"................................# % % & * : : , > < < , , , , , , , , , : , , , : : ; * & % % # ................................",
"..................................@ @ @ @ @ $ $ $ $ $ $ # # # $ # $ $ # # $ $ $ # # $ @ @ @ @ ..................................",
"..................................o o o O o o O O o o o O o O O O o O o O o o o O O O O o O o ..................................",
"..................................X o o . . X . . . . . . . . . . . . . . X . X . . . . o . o .................................."
};
