/* XPM */
static char *result[] = {
/* columns rows colors chars-per-pixel */
"64 64 164 2 ",
"   c #040E26",
".  c #0A0E24",
"X  c #060F2A",
"o  c #061027",
"O  c #0B1026",
"+  c #07102A",
"@  c #0A132B",
"#  c #13172D",
"$  c #15182E",
"%  c #19192F",
"&  c #19172C",
"*  c #1D1B31",
"=  c #231E33",
"-  c #291F35",
";  c #2B2335",
":  c #20273F",
">  c #312436",
",  c #332C37",
"<  c #372939",
"1  c #3D293B",
"2  c #362539",
"3  c #432D3B",
"4  c #4D2F3E",
"5  c #4C333F",
"6  c #44353C",
"7  c #51323F",
"8  c #262A41",
"9  c #292D43",
"0  c #342F44",
"q  c #2D3146",
"w  c #30374F",
"e  c #4F3540",
"r  c #4B3649",
"t  c #503540",
"y  c #5A3643",
"u  c #533841",
"i  c #5B3B43",
"p  c #623B44",
"a  c #613748",
"s  c #673D4B",
"d  c #6A3D48",
"f  c #3B435B",
"g  c #594441",
"h  c #6A4147",
"j  c #654B44",
"k  c #684E45",
"l  c #614644",
"z  c #73434C",
"x  c #7A464C",
"c  c #7D4B4E",
"v  c #76494D",
"b  c #6B5046",
"n  c #7A594B",
"m  c #614B5E",
"M  c #794856",
"N  c #454961",
"B  c #494E65",
"V  c #504A61",
"C  c #4E5267",
"Z  c #53566B",
"A  c #595C6E",
"S  c #565A6D",
"D  c #525A73",
"F  c #7A6478",
"G  c #8F464F",
"H  c #804C4F",
"J  c #82504F",
"K  c #804753",
"L  c #854A53",
"P  c #8E4C57",
"I  c #894E5A",
"U  c #944C55",
"Y  c #934F58",
"T  c #8C5253",
"R  c #8D5D51",
"E  c #955655",
"W  c #955158",
"Q  c #9E555A",
"!  c #9D5A5A",
"~  c #A45C5B",
"^  c #A95C5D",
"/  c #9C6C54",
"(  c #976B52",
")  c #A06757",
"_  c #AC615C",
"`  c #B2625F",
"'  c #B36F5E",
"]  c #A77657",
"[  c #A87757",
"{  c #A97857",
"}  c #AB7958",
"|  c #B17C5A",
" . c #825868",
".. c #905764",
"X. c #995C65",
"o. c #9A616A",
"O. c #976B79",
"+. c #B66560",
"@. c #B96761",
"#. c #BC6962",
"$. c #BF7661",
"%. c #C26C64",
"&. c #C67364",
"*. c #CC7766",
"=. c #BD815E",
"-. c #C5895F",
";. c #C98662",
":. c #D38A65",
">. c #DC8769",
",. c #DD8C69",
"<. c #DE9866",
"1. c #D59064",
"2. c #E28B6B",
"3. c #E49C68",
"4. c #ED9A6C",
"5. c #E19A67",
"6. c #F19B6D",
"7. c #F5A46D",
"8. c #FAA76F",
"9. c #FCA870",
"0. c #646A83",
"q. c #6A6E88",
"w. c #706A82",
"e. c #6C7089",
"r. c #71768E",
"t. c #7A7D92",
"y. c #937E92",
"u. c #7E8398",
"i. c #82869B",
"p. c #8C8F9E",
"a. c #878B9D",
"s. c #AD828B",
"d. c #A48190",
"f. c #B18D97",
"g. c #8F8AA2",
"h. c #8E92AC",
"j. c #969AB1",
"k. c #A997AA",
"l. c #B89FAC",
"z. c #9FA3BF",
"x. c #A5A4B9",
"c. c #A7AABE",
"v. c #C3ABB3",
"b. c #C6B1BA",
"n. c #A3A6C2",
"m. c #A6AAC6",
"M. c #AAAEC7",
"N. c #AEB2CA",
"B. c #B2B5C4",
"V. c #BFB1C1",
"C. c #BBBCCB",
"Z. c #B0B4CC",
"A. c #BABFD3",
"S. c #CCBEC8",
"D. c #BFC3D7",
"F. c #CACDDC",
"G. c #D3CBD5",
"H. c #DAD5DE",
"J. c #CFD2E1",
"K. c #D4D6E1",
"L. c #D7D8E2",
"P. c #DCDBE5",
"I. c #DDDEE8",
"U. c None",
/* pixels */
"U.U.U.U.U.U.U.U.U.U.U.U.U.U.U.U.U.U.U.U.U.U.U.U.$ # # # @ # @ @ @ @ @ # # # # $ U.U.U.U.U.U.U.U.U.U.U.U.U.U.U.U.U.U.U.U.U.U.U.U.",
"U.U.U.U.U.U.U.U.U.U.U.U.U.U.U.U.U.U.U.U.U.U.U.U.# $ $ $ $ $ $ $ $ $ $ $ $ $ $ # U.U.U.U.U.U.U.U.U.U.U.U.U.U.U.U.U.U.U.U.U.U.U.U.",
"U.U.U.U.U.U.U.U.U.U.U.U.U.U.U.U.U.U.U.U.U.U.U.U.# $ $ $ * = = = ; = = * * $ @ $ U.U.U.U.U.U.U.U.U.U.U.U.U.U.U.U.U.U.U.U.U.U.U.U.",
"U.U.U.U.U.U.U.U.U.U.U.U.U.U.U.U.U.U.U.U.U.U.U.+ @ @ $ * - 2 1 3 1 1 2 - * $ @ @ + U.U.U.U.U.U.U.U.U.U.U.U.U.U.U.U.U.U.U.U.U.U.U.",
"U.U.U.U.U.+ + + X X X + X X X X + + + X + + + + X @ # - 1 e y a a a t 0 = $ @ X + + + + X X + + + + + X X X + + + + + U.U.U.U.U.",
"U.U.U.U.$ $ $ $ $ $ $ % $ $ $ $ $ $ $ $ $ $ # # # $ = 1 y d M K G K d u 1 = $ # # $ $ $ $ $ $ $ $ $ $ $ $ $ $ $ $ $ # # U.U.U.U.",
"U.U.U.U., , , , , , , , , , , , , , , , , , , , , , 6 u M T ! _ Q ! E v g 1 < , , , , , , , < , , , , , , , < , , , , , U.U.U.U.",
"U.U.U.6 g j k k k k k k k k k k k k k k k k k j j b n R ) +.$.&.&.&.+./ R n b j j k b j b j k k k k k k k k b k k k j g e U.U.U.",
"o $ , g n / { } } [ [ [ ] [ ] ] [ ] ] ] ] ] [ [ [ } | =.;.:.,.,.,.,.1.;.=.| } [ [ ] ] ] [ [ ] ] ] ] ] ] ] [ [ [ } [ ( n g , # + ",
"X # , l / -.<.3.3.<.<.<.<.<.<.<.<.<.<.<.<.<.<.<.<.<.3.3.3.4.7.4.7.4.7.3.3.<.<.<.<.<.<.<.<.<.<.<.<.<.<.<.<.<.<.3.3.<.;.( j , # + ",
"+ $ , l / 1.7.9.9.7.7.7.7.7.7.7.7.7.7.7.7.7.7.7.7.7.7.7.8.8.7.7.7.7.7.7.7.7.7.7.7.7.7.7.7.7.7.7.7.7.7.7.7.7.7.9.9.7.:./ j , $ + ",
"+ $ , l / :.6.6.6.6.6.6.6.6.6.6.6.6.6.6.6.6.6.4.6.4.4.4.4.4.4.4.4.4.4.4.4.6.6.6.6.6.6.6.6.6.6.6.6.6.6.6.6.6.6.7.7.4.:./ g , $ + ",
"+ $ ; g ( ' >.2.2.>.>.>.>.>.>.>.>.>.>.>.>.>.>.>.>.>.>.>.>.>.>.>.>.:.>.>.>.>.>.>.>.>.>.>.>.>.>.>.>.>.>.>.>.>.>.2.>.>.$.R g > $ @ ",
"@ $ ; u J _ &.*.*.&.&.&.&.&.&.&.&.&.&.&.&.&.&.&.&.&.&.&.&.&.%.&.&.%.&.&.&.&.&.&.&.&.&.&.&.&.&.&.&.&.&.&.&.&.&.*.*.&.' J u ; $ @ ",
"@ $ ; t c ~ #.%.#.@.@.+.+.+.@.+.@.+.+.+.@.@.+.@.+.@.@.+.+.@.+.+.@.@.@.+.+.+.+.+.@.+.+.+.@.@.+.+.@.+.@.+.+.@.@.#.%.@.~ c e ; $ @ ",
"@ $ ; 7 x ~ +.@.+._ ^ ^ ^ ^ ^ ^ ^ ^ ^ ^ ^ ^ ^ ^ ^ ^ ^ ^ ^ ^ ^ ^ ^ ^ ^ ^ ^ ^ ^ ^ ^ ^ ^ ^ ^ ^ ^ ^ ^ ^ ^ ^ ^ ^ ^ +.@.@.~ x e ; $ @ ",
"@ $ ; e c ~ ` ` ^ ~ Q ~ Q Q Q Q Q Q Q Q Q Q Q Q Q Q Q Q Q Q Q Q Q Q Q Q Q Q Q Q Q ~ Q Q Q Q Q Q Q Q Q Q Q Q Q ^ @.+.! c e ; # @ ",
"@ $ ; t c ~ @.+.^ X.U U U U Y U Y Y Y Y U Y Y Y Y Y Y Y Y Y Y Y Y U Y Y Y Y Y U Y Y Y Y Y U U Y Y Y Y Y Y Y Q ^ ` +.^ c e ; # @ ",
"@ $ ; t c ~ ` ` ~ Y P P I I U P U Y P P P P Y P P P P Y Y P P P U I P P Y P P P P P P P U I P P P U Y P I U W Q ` +.^ c t ; # @ ",
"@ $ ; t c _ @.` Q U P P P P P P I P P P P P P P G P P P P P P P P P P P P P P P P P P P P P P P P L P P I U W ~ ` +.^ c t ; $ @ ",
"@ $ ; 7 c ~ ` ` Q W U P L P P P P P P P I P P L P P P L P P I P P P P I P P P L P P P P P P L P P P L P L Y Y ~ ` ' _ H t ; $ @ ",
"@ $ ; 7 c ) ` ` ^ W U I P P P P L P P P P P P U P P P P P P P P P P P P P P P P P P P L P P P P P P P P P P U ~ ` ` ~ c t ; $ @ ",
"@ $ ; 5 c _ ` ` Q W I P P P P P Y P Y P P P P P P P Y P P P Y P P P P P Y U P P I P P U P Y P Y P P P P P P U ~ ` +.~ c t ; $ @ ",
"@ $ ; 5 c _ @.` ~ Y P G P P P Y P P P P P P Y P P P P P P P P P P P U P I P P U Y P P P P P P Y P P P P P P Y ~ ` +.~ c t ; $ @ ",
"@ $ ; u c _ ` ` ~ W Y P P L Y P P Y P P P P P Y P P P P P U I P P P P P Y P P I P P P P P P P I P P G P I U W Q ` +._ c 5 ; $ @ ",
"@ $ ; 5 c ~ ` ` ~ W P P P P P P P P P P Y Y P P P P P Y P P Y P Y P P P P P Y Y P Y Y P P P P P P I P P U Y W ~ ` +.~ c 5 ; $ @ ",
"@ $ ; u c ~ +.` ~ W P P P P P P I P P P P I Y P Y Y P P P P P P P P P P P Y P P I Y P P Y P P Y P Y P P I U Y ~ ` +.~ c 7 ; $ @ ",
"@ $ ; t c ~ +.` ~ W P P P P P P Y P P Y P P P P P I P P P Y P P P P P Y P P P P P P P Y P P P P P P P P U I Y ~ ` +.~ c 7 ; $ @ ",
"@ $ ; t c ) ' ` ~ Y P P P P P Y Y P Y P P P P P P P P P Y P P P P P P P P P Y P P P P P P P P Y P U P P P P U ~ ` @._ c t ; $ @ ",
"@ $ ; t c ~ @.` ~ Y P P L P P P P P P P P P Y I P Y P P P P Y P P Y P P P P P P Y P P P P P P P P I P P P P Y ~ ` ` ~ c t ; $ @ ",
"@ $ ; t c _ ` ` ~ Y Y P P P P P P Y P P U P P U P P P P P Y Y P P P P P P P P P P P Y Y Y P P P P P P P L Y Y ~ ` ' ~ c t ; $ @ ",
"@ $ ; t c ~ ` ` ~ U P P P P P P P P P P I Y P P P P Y P P I P P Y P Y Y I P Y P P P P I P P P P P P P P P Y Y ~ ` +.) c t ; $ @ ",
"@ $ ; t c ~ +.` ~ Y P P P P P P P P P P U P P P Y P P P P P P P P P P P Y P P P P I U P P P P P P P P P P P U ^ ` +.^ x e ; $ @ ",
"@ $ ; t c ~ +.` Q Y P P P P P P U P P P I P P P P P P P P Y P P P P P P P P Y P P P P Y U I P P P P P P P I W Q ` +.~ c e ; $ @ ",
"@ $ ; 7 c ~ +.` ~ W P P L G P P P P P P P P P P P P U P P P U P P P P P P P P P I P P P P P P P P P P P P U Y ~ ` +.^ c e ; $ @ ",
"@ $ ; 7 c ~ +.` ~ Y P P P P P P P P P P P P P P P P L P P P L P P P I P P P P P G P P P P P P P P P P L I Y Y ^ ` +.^ c t ; $ @ ",
"@ $ ; t c ) +.` ~ Y I P P P L P P P P G I I U P P P P P P P P P P P U I L P P P I I U P P P P P P G P P G I Y Q ` @.~ c t ; $ @ ",
"@ $ ; t c ~ +.` Q Q U P P P Y P P P P I U U I U P P P P P Y P P P Y I U P P P P U U P P P P P P P I I U U I W ~ ` ` ~ c t ; $ @ ",
"@ # ; u K _ @.` ^ Q Y Y Y Y W U Y Y U Y W W W Y Y Y Y Y Y Y W U U Y W W Y U Y Y Y W Y U Y Y Y Y Y W W Y Y W Q ^ ` @.) c t ; $ @ ",
"@ # ; u K ^ #.@.` ^ ^ Q ~ ~ ^ ^ ~ ^ ^ Q ^ Q ~ ~ ~ Q ~ ~ ~ ~ ~ ~ ~ ~ Q ~ ~ ~ ~ ~ ~ ~ ~ ~ ~ ~ ~ ~ ~ Q ^ ~ Q ~ ^ ` #.#._ L t ; $ @ ",
"@ $ ; e c _ #.%.#.` ` ` ` +.` ` +.` _ +.+._ +.` ` ` ` ` ` ` ` ` ^ ` ` ` ` ` ` ` ` ` ` ` ` ` ` ` ` ` ` ` ` ` ` @.%.%.^ H t ; $ @ ",
"@ $ ; e c ~ #.#.#.` @.' +.+.' ` +.+.+.` +.+.+.+.' ` ` ` ' ` ' ` @.+.+.` ` ` @.' @.+.+.+.' ` +.+.` ' ` ` +.' @.@.%.@.) x t ; $ @ ",
"@ $ ; 5 v E _ _ _ ~ ~ ) ~ ~ ~ ~ ~ ~ ~ _ ~ ~ ~ ~ _ ~ _ _ ` _ _ _ _ ` ^ _ _ ~ ) _ ~ ~ ~ ~ ~ _ _ ) ^ ^ ~ _ ~ ~ _ _ _ _ T v 5 ; $ @ ",
"@ $ ; 6 i z v c H c c c c c c c M c c c c c c c c H H J U E E E E E W T J L H c H H c c c c c c c c c c c c c c c x v i 3 ; $ @ ",
"U.U.U.< 6 5 5 e t t t t t t t t t t t t 5 u 7 u 7 7 7 p h z x x c x z h p 7 7 7 7 7 5 7 5 7 5 5 7 7 5 7 e t t t e e 5 3 < U.U.U.",
"U.U.U.U.; ; ; ; ; ; ; ; ; ; ; ; ; ; ; ; ; ; ; ; ; ; , 3 7 7 p p p p 7 4 3 < ; ; ; ; ; ; ; , ; ; ; ; ; , ; ; ; ; ; ; ; ; U.U.U.U.",
"U.U.U.U.$ $ # # $ $ $ $ $ $ $ $ $ $ $ $ # # # # # # * > 3 7 y a i y 7 3 ; & $ # # $ $ $ $ $ $ $ $ $ # $ $ $ $ $ $ $ $ $ U.U.U.U.",
"U.U.U.U.U.@ @ @ @ @ @ @ @ @ @ @ @ @ @ @ @ @ @ o o . & - 3 7 d d d p y 3 ; & O o o @ @ @ @ @ @ @ @ @ @ @ @ @ @ @ @ @ @ U.U.U.U.U.",
"U.U.U.U.U.U.U.U.U.U.U.U.U.U.U.U.U.U.U.U.U.U.U.    O % > e a d M L d s e > & +     U.U.U.U.U.U.U.U.U.U.U.U.U.U.U.U.U.U.U.U.U.U.U.",
"U.U.U.U.U.U.U.U.U.U.U.U.U.U.U.U.U.U.U.U.U.U.U.U.@ $ = 1 y M P G Y I d y 1 = # @ U.U.U.U.U.U.U.U.U.U.U.U.U.U.U.U.U.U.U.U.U.U.U.U.",
"U.U.U.U.U.U.U.U.U.U.U.U.U.U.U.U.U.U.U.U.U.U.U.U.: : 0 r s M U U U Y K s r 0 9 8 U.U.U.U.U.U.U.U.U.U.U.U.U.U.U.U.U.U.U.U.U.U.U.U.",
"U.U.U.U.U.U.U.U.U.U.U.U.U.U.U.U.U.U.U.U.U.U.U.w f N V m M L U U G P K M m V B w w U.U.U.U.U.U.U.U.U.U.U.U.U.U.U.U.U.U.U.U.U.U.U.",
"U.U.U.U.U.U.U.U.U.U.U.U.U.U.U.U.U.U.U.U.U.# 8 f D 0.w.F  .P G G G P I  .F w.0.D f 8 $ U.U.U.U.U.U.U.U.U.U.U.U.U.U.U.U.U.U.U.U.U.",
"U.U.U.U.U.U.U.U.U.U.U.U.U.U.U.U.U.U.U.U.o # 8 N 0.i.i.y.O...U U G U ..O.y.g.i.0.N 8 $ o U.U.U.U.U.U.U.U.U.U.U.U.U.U.U.U.U.U.U.U.",
"U.U.U.U.U.U.U.U.U.U.U.U.U.U.U.U.U.U.U.U.O $ 8 B r.j.x.k.y.O.o.^ X.o.O.y.k.x.j.r.B 9 $ O U.U.U.U.U.U.U.U.U.U.U.U.U.U.U.U.U.U.U.U.",
"U.U.U.U.U.U.U.U.U.U.U.U.U.U.U.U.U.U.U.U.O $ q Z i.c.C.S.l.f.y.s.y.s.f.l.V.C.c.u.Z q $ . U.U.U.U.U.U.U.U.U.U.U.U.U.U.U.U.U.U.U.U.",
"U.U.U.U.U.U.U.U.U.U.U.U.U.U.U.U.U.U.U.U.. $ q A a.B.F.G.G.b.v.v.v.v.b.S.G.G.Z.a.A q # . U.U.U.U.U.U.U.U.U.U.U.U.U.U.U.U.U.U.U.U.",
"U.U.U.U.U.U.U.U.U.U.U.U.U.U.U.U.U.U.U.U.o $ q A p.C.H.P.G.G.G.G.G.G.G.K.P.K.C.p.A q $ O U.U.U.U.U.U.U.U.U.U.U.U.U.U.U.U.U.U.U.U.",
"U.U.U.U.U.U.U.U.U.U.U.U.U.U.U.U.U.U.U.U.. $ q A p.C.K.I.P.L.K.K.H.P.P.P.I.L.C.p.A q # . U.U.U.U.U.U.U.U.U.U.U.U.U.U.U.U.U.U.U.U.",
"U.U.U.U.U.U.U.U.U.U.U.U.U.U.U.U.U.U.U.U.. $ q Z a.c.F.J.J.F.F.F.H.G.F.J.K.G.c.i.Z q $ . U.U.U.U.U.U.U.U.U.U.U.U.U.U.U.U.U.U.U.U.",
"U.U.U.U.U.U.U.U.U.U.U.U.U.U.U.U.U.U.U.U.O $ q C u.x.D.D.D.A.A.D.A.A.D.D.D.A.x.t.C q $ O U.U.U.U.U.U.U.U.U.U.U.U.U.U.U.U.U.U.U.U.",
"U.U.U.U.U.U.U.U.U.U.U.U.U.U.U.U.U.U.U.U.O $ : B e.j.M.B.N.N.M.M.M.M.M.N.Z.M.j.r.N q # O U.U.U.U.U.U.U.U.U.U.U.U.U.U.U.U.U.U.U.U.",
"U.U.U.U.U.U.U.U.U.U.U.U.U.U.U.U.U.U.U.U.O # 8 N e.h.z.M.M.n.n.n.n.n.m.m.m.x.h.e.N 8 $ O U.U.U.U.U.U.U.U.U.U.U.U.U.U.U.U.U.U.U.U.",
"U.U.U.U.U.U.U.U.U.U.U.U.U.U.U.U.U.U.U.U.O $ 8 N q.h.z.n.m.z.z.z.z.z.z.m.m.z.h.q.N 8 $ O U.U.U.U.U.U.U.U.U.U.U.U.U.U.U.U.U.U.U.U."
};
