/* XPM */
static char *result[] = {
/* columns rows colors chars-per-pixel */
"50 50 158 2 ",
"   c #1E1407",
".  c #312005",
"X  c #3E2807",
"o  c #342208",
"O  c #3F2E13",
"+  c #3D3D3C",
"@  c #3F3E3D",
"#  c #402C0E",
"$  c #412C0E",
"%  c #422D0E",
"&  c #432D0F",
"*  c #432E0E",
"=  c #442E0F",
"-  c #4C340E",
";  c #50360E",
":  c #51360E",
">  c #53380E",
",  c #55390E",
"<  c #54390F",
"1  c #583B0E",
"2  c #593C0E",
"3  c #5C3D0E",
"4  c #5E3E0E",
"5  c #402D11",
"6  c #432E10",
"7  c #402E14",
"8  c #412F16",
"9  c #493211",
"0  c #4A3211",
"q  c #4B3211",
"w  c #4B3311",
"e  c #4D3412",
"r  c #4E3412",
"t  c #4F3512",
"y  c #41311B",
"u  c #4B371A",
"i  c #503611",
"p  c #523711",
"a  c #503613",
"s  c #543613",
"d  c #513514",
"f  c #533811",
"g  c #543811",
"h  c #553814",
"j  c #573814",
"k  c #563915",
"l  c #583B10",
"z  c #5B3C11",
"x  c #5D3E11",
"c  c #583A15",
"v  c #5A3B16",
"b  c #5C3C16",
"n  c #503A1D",
"m  c #473721",
"M  c #4D3C25",
"N  c #433728",
"B  c #403B34",
"V  c #443C35",
"C  c #62400B",
"Z  c #63410B",
"A  c #62410E",
"S  c #66440E",
"D  c #67440E",
"F  c #6B460E",
"G  c #724B0E",
"H  c #724B0F",
"J  c #734C0E",
"K  c #734C0F",
"L  c #744C0D",
"P  c #764E0E",
"I  c #774E0F",
"U  c #784F0F",
"Y  c #7C510E",
"T  c #7D520E",
"R  c #7F530F",
"E  c #604010",
"W  c #624110",
"Q  c #624013",
"!  c #634113",
"~  c #614016",
"^  c #6C4713",
"/  c #6D4715",
"(  c #6F4915",
")  c #634119",
"_  c #68481D",
"`  c #764D13",
"'  c #784E12",
"]  c #714F1E",
"[  c #73501E",
"{  c #7B561B",
"}  c #7D571B",
"|  c #7A551C",
" . c #534129",
".. c #544229",
"X. c #58442B",
"o. c #59452B",
"O. c #624523",
"+. c #6A4B20",
"@. c #614A2E",
"#. c #674E2C",
"$. c #765727",
"%. c #735628",
"&. c #464242",
"*. c #464243",
"=. c #454441",
"-. c #474447",
";. c #494743",
":. c #4D4B46",
">. c #48474F",
",. c #5A5245",
"<. c #5B5245",
"1. c #5C5245",
"2. c #5C5345",
"3. c #5E5446",
"4. c #56524C",
"5. c #484750",
"6. c #484852",
"7. c #494A57",
"8. c #494B58",
"9. c #4A4E5F",
"0. c #5E5951",
"q. c #605545",
"w. c #655844",
"e. c #4A4E60",
"r. c #4C5570",
"t. c #4C5673",
"y. c #4D5A7D",
"u. c #81540E",
"i. c #81540F",
"p. c #82550F",
"a. c #85570F",
"s. c #805410",
"d. c #815410",
"f. c #8E5C28",
"g. c #915C28",
"h. c #9D5F28",
"j. c #B3723E",
"k. c #BA753D",
"l. c #C27C47",
"z. c #CC7F46",
"x. c #E1823A",
"c. c #FF9142",
"v. c #506391",
"b. c #5269A0",
"n. c #536DA9",
"m. c #536EAB",
"M. c #5470B2",
"N. c #5573B8",
"B. c #5679C5",
"V. c #577CCE",
"C. c #587DD1",
"Z. c #587ED2",
"A. c #587ED3",
"S. c #5981DA",
"D. c #5981DB",
"F. c #5982DC",
"G. c #5A84E0",
"H. c None",
/* pixels */
"G.G.G.G.G.G.G.G.G.G.G.G.G.G.G.G.G.G.G.G.G.G.G.G.G.G.G.G.G.G.G.G.G.G.G.G.G.G.G.G.G.G.G.G.G.G.G.G.G.G.",
"G.G.G.G.G.G.G.G.G.G.G.G.G.G.G.G.G.G.G.G.G.G.G.G.G.G.G.G.G.G.G.G.G.G.G.G.G.G.G.G.G.G.G.G.G.G.G.G.G.G.",
"G.G.G.G.G.G.G.G.G.G.G.G.G.G.G.G.G.G.G.G.G.G.G.G.G.G.G.G.G.G.G.G.G.G.G.G.G.G.G.G.G.G.G.G.G.G.G.G.G.G.",
"G.G.G.G.G.H.G.G.G.G.G.G.G.G.G.G.G.G.G.G.G.G.G.G.G.G.G.G.G.G.G.G.G.G.G.G.G.G.G.G.G.G.G.G.G.G.G.G.G.G.",
"G.G.G.G.G.G.G.G.G.G.G.G.G.G.G.G.G.G.G.G.G.G.G.G.G.G.G.G.G.G.G.G.G.G.G.G.G.G.G.G.G.G.G.G.G.G.G.G.G.G.",
"G.G.G.G.G.G.G.G.G.G.G.G.G.G.G.G.G.G.G.G.G.G.G.G.G.G.G.G.G.G.G.G.G.G.G.G.G.G.G.G.G.G.G.G.G.G.G.G.G.G.",
"G.G.G.G.G.G.G.G.G.G.G.G.G.G.G.G.G.G.G.G.G.G.G.G.G.G.G.G.G.G.G.G.G.G.G.G.G.G.G.G.G.G.G.G.G.G.G.G.G.G.",
"G.G.G.G.G.G.G.G.G.G.G.G.G.G.G.G.A.8.# # # # # # # # # # # # # *.V.G.G.G.G.G.G.G.G.G.G.G.G.G.G.G.G.G.",
"G.G.G.G.G.G.G.G.G.G.G.G.G.G.G.S.9.; 4 4 l t 3 4 4 f t 4 4 4 t 0 5.V.G.G.G.G.G.G.G.G.G.G.G.G.G.G.G.G.",
"G.G.G.G.G.G.G.G.G.G.G.G.G.G.G.Z.# S a.a.' ) s.a.a./ ) a.a.a.) c # N.G.G.G.G.G.G.G.G.G.G.G.G.G.G.G.G.",
"G.G.G.G.G.G.G.G.G.G.G.G.G.G.G.# , a.a.a.' ) s.a.a./ ) a.a.a.) / 4 # G.G.G.G.G.G.G.G.G.G.G.G.G.G.G.G.",
"G.G.G.G.G.G.G.G.G.G.G.G.G.G.N.# l d.a.a.' ) s.a.a./ ) a.a.a.) / D * M.G.G.G.G.G.G.G.G.G.G.G.G.G.G.G.",
"G.G.G.G.G.G.G.G.G.G.G.G.G.G.&.% ) ` a.a.' ) s.a.a./ ) a.a.a.) / a.- N G.G.G.G.G.G.G.G.G.G.G.G.G.G.G.",
"G.G.G.G.G.G.G.G.G.G.G.G.G.v.y H ) ` a.a.' ) s.a.a./ ) a.a.a.) / a.P 7 y.G.G.G.G.G.G.G.G.G.G.G.G.G.G.",
"G.G.G.G.G.G.G.G.G.G.G.G.F.r.* p.) ` a.a.' ) s.a.a./ ) a.a.a.) / a.a.* 7.D.G.G.G.G.G.G.G.G.G.G.G.G.G.",
"G.G.G.G.G.G.G.G.G.G.G.G.m.# J p.) ` a.a.' ) s.a.a./ ) a.a.a.) / a.a.Y # v.G.G.G.G.G.G.G.G.G.G.G.G.G.",
"G.G.G.G.G.G.G.G.G.G.G.G.6.> T p.) ` a.a.' ) s.a.a./ ) a.a.a.) / a.a.u.1 -.C.G.G.G.G.G.G.G.G.G.G.G.G.",
"G.G.G.G.G.G.G.G.G.G.G.G.# A a.p.) ` a.a.' ) s.a.a./ ) a.a.a.) / a.a.a.F # B.G.G.G.G.G.G.G.G.G.G.G.G.",
"G.G.G.G.G.G.G.G.G.G.G.y : a.a.p.) ` a.a.' ) s.a.a./ ) a.a.a.) / a.a.a.a.2 # G.G.G.G.G.G.G.G.G.G.G.G.",
"G.G.G.G.G.G.G.G.G.G.n.8 < a.a.p.) ` a.a.' ) s.a.a./ ) a.a.a.) / a.a.a.a.W $ b.G.G.G.G.G.G.G.G.G.G.G.",
"G.G.G.G.G.G.G.G.G.G.>.# p K a.p.) ` a.a.' ) s.a.a./ ) a.a.a.) / a.a.a.a.( = V G.G.G.G.G.G.G.G.G.G.G.",
"G.G.G.G.G.G.G.G.G.G.>.# e i U p.) ` a.a.' ) s.a.a./ ) a.a.a.) / a.a.a.a.( = V G.G.G.G.G.G.G.G.G.G.G.",
"G.G.G.G.G.G.G.G.G.G.>.# u n n { O.] } } [ O.| } } +.O.} } } O.+.} } } } _ 6 V G.G.G.G.G.G.G.G.G.G.G.",
"G.G.G.G.G.G.G.G.G.G.>.# =.0.0.0.0.0.0.0.0.0.0.0.0.0.0.0.0.0.0.0.0.0.0.0.;.O V G.G.G.G.G.G.G.G.G.G.G.",
"G.G.G.G.G.G.G.G.G.G.>.# =.0.0.0.0.0.0.0.0.0.0.0.0.0.0.0.0.0.0.0.0.0.0.0.;.O V G.G.G.G.G.G.G.G.G.G.G.",
"G.G.G.G.G.G.G.G.G.G.>.# =.0.0.0.0.0.0.0.0.0.0.0.0.0.0.0.0.0.0.0.0.0.0.0.;.O V G.G.G.G.G.G.G.G.G.G.G.",
"G.G.G.G.G.G.G.G.G.G.>.# z L Z C d ` a.a.' ) s.a.a./ ) a.a.a.) / a.a.a.a.( = V G.G.G.G.G.G.G.G.G.G.G.",
"G.G.G.G.G.G.G.G.G.G.>.# g o . X   ` a.a.' ) s.a.a./ ) a.a.a.) / a.a.a.a.( = V G.G.G.G.G.G.G.G.G.G.G.",
"G.G.G.G.G.G.G.G.G.G.>.# e & G i.d ` a.a.' ) s.a.a./ ) a.a.a.) / a.a.a.a.( = V G.G.G.G.G.G.G.G.G.G.G.",
"G.G.G.G.G.G.G.G.G.G.>.# e e e R ) ` a.a.' ) s.a.a./ ) a.a.a.) / a.a.a.a.( = V G.G.G.G.G.G.G.G.G.G.G.",
"G.G.G.G.G.G.G.G.G.G.>.# e e e r ) ^ i.a.' ) s.a.a./ ) a.a.a.) / a.a.a.a.( = V G.G.G.G.G.G.G.G.G.G.G.",
"G.G.G.G.G.G.G.G.G.G.>.# e e e r ) k E a.' ) s.a.a./ ) a.a.a.) / a.a.a.a.( = V G.G.G.G.G.G.G.G.G.G.G.",
"G.G.G.G.G.G.G.G.G.G.>.# e e e r ) k e x ' ) s.a.a./ ) a.a.a.) / a.a.a.a.( = V G.G.G.G.G.G.G.G.G.G.G.",
"G.G.G.G.G.G.G.G.G.G.>.# e e e r ) k e e h ) s.a.a./ ) a.a.a.) / a.a.a.a.( = V G.G.G.G.G.G.G.G.G.G.G.",
"G.G.G.G.G.G.G.G.G.G.>.# m M  ...@.o. . .X.@.%.$.$.#.@.$.$.$.h.g.$.$.$.$.f.q V G.G.G.G.G.G.G.G.G.G.G.",
"G.G.G.G.G.G.G.G.G.G.>.# + :.0.0.0.0.0.0.0.0.0.0.0.0.0.0.0.0.c.z.0.0.0.0.l.j V G.G.G.G.G.G.G.G.G.G.G.",
"G.G.G.G.G.G.G.G.G.G.>.# + @ 4.0.0.0.0.0.0.0.0.0.0.0.0.0.0.0.c.z.0.0.0.0.l.j V G.G.G.G.G.G.G.G.G.G.G.",
"G.G.G.G.G.G.G.G.G.G.>.# B B B <.3.2.,.,.1.3.<.2.w.q.3.w.w.w.x.k.w.w.w.w.j.s V G.G.G.G.G.G.G.G.G.G.G.",
"G.G.G.G.G.G.G.G.G.G.>.# e e e r ) k e e h ) t p I / ) a.a.a.) / a.a.a.a.( = V G.G.G.G.G.G.G.G.G.G.G.",
"G.G.G.G.G.G.G.G.G.G.>.# e e e r ) k e e h ) t e g ~ ) a.a.a.) / a.a.a.a.( = V G.G.G.G.G.G.G.G.G.G.G.",
"G.G.G.G.G.G.G.G.G.G.>.# e e e r ) k e e h ) t e e b ) a.a.a.) / a.a.a.a.( = V G.G.G.G.G.G.G.G.G.G.G.",
"G.G.G.G.G.G.G.G.G.G.t.5 9 9 9 0 v a 9 9 t v w 9 9 h v J J J v Q J J J J ! & e.G.G.G.G.G.G.G.G.G.G.G.",
"G.G.G.G.G.G.G.G.G.G.G.y # # # # # # # # # # # # # # # # # # # # # # # # # # G.G.G.G.G.G.G.G.G.G.G.G.",
"G.G.G.G.G.G.G.G.G.G.G.G.G.G.G.G.G.G.G.G.G.G.G.G.G.G.G.G.G.G.G.G.G.G.G.G.G.G.G.G.G.G.G.G.G.G.G.G.G.G.",
"G.G.G.G.G.G.G.G.G.G.G.G.G.G.G.G.G.G.G.G.G.G.G.G.G.G.G.G.G.G.G.G.G.G.G.G.G.G.G.G.G.G.G.G.G.G.G.G.G.G.",
"G.G.G.G.G.G.G.G.G.G.G.G.G.G.G.G.G.G.G.G.G.G.G.G.G.G.G.G.G.G.G.G.G.G.G.G.G.G.G.G.G.G.G.G.G.G.G.G.G.G.",
"G.G.G.G.G.G.G.G.G.G.G.G.G.G.G.G.G.G.G.G.G.G.G.G.G.G.G.G.G.G.G.G.G.G.G.G.G.G.G.G.G.G.G.G.G.G.G.G.G.G.",
"G.G.G.G.G.G.G.G.G.G.G.G.G.G.G.G.G.G.G.G.G.G.G.G.G.G.G.G.G.G.G.G.G.G.G.G.G.G.G.G.G.G.G.G.G.G.G.G.G.G.",
"G.G.G.G.G.G.G.G.G.G.G.G.G.G.G.G.G.G.G.G.G.G.G.G.G.G.G.G.G.G.G.G.G.G.G.G.G.G.G.G.G.G.G.G.G.G.G.G.G.G.",
"G.G.G.G.G.G.G.G.G.G.G.G.G.G.G.G.G.G.G.G.G.G.G.G.G.G.G.G.G.G.G.G.G.G.G.G.G.G.G.G.G.G.G.G.G.G.G.G.G.G."
};
