/* XPM */
static char *result[] = {
/* columns rows colors chars-per-pixel */
"35 35 141 2 ",
"   c black",
".  c #010101",
"X  c #020202",
"o  c gray1",
"O  c #040404",
"+  c gray2",
"@  c #060606",
"#  c #070707",
"$  c gray3",
"%  c #090909",
"&  c gray4",
"*  c #0B0B0B",
"=  c #0C0C0C",
"-  c gray5",
";  c #0E0E0E",
":  c gray6",
">  c #111111",
",  c gray7",
"<  c #131313",
"1  c gray8",
"2  c #151515",
"3  c #161616",
"4  c gray9",
"5  c #181818",
"6  c #191919",
"7  c gray10",
"8  c #1B1B1B",
"9  c gray11",
"0  c #1D1D1D",
"q  c #1E1E1E",
"w  c gray12",
"e  c #202020",
"r  c gray13",
"t  c #222222",
"y  c #232323",
"u  c gray14",
"i  c #252525",
"p  c gray15",
"a  c #272727",
"s  c #282828",
"d  c gray16",
"f  c #2A2A2A",
"g  c gray17",
"h  c #2C2C2C",
"j  c #2D2D2D",
"k  c gray18",
"l  c #2F2F2F",
"z  c gray19",
"x  c #313131",
"c  c #323232",
"v  c gray20",
"b  c #343434",
"n  c #353535",
"m  c gray21",
"M  c #373737",
"N  c gray22",
"B  c #393939",
"V  c #3A3A3A",
"C  c gray23",
"Z  c #3C3C3C",
"A  c gray24",
"S  c #3E3E3E",
"D  c #3F3F3F",
"F  c gray25",
"G  c #414141",
"H  c gray26",
"J  c #434343",
"K  c #444444",
"L  c gray27",
"P  c #464646",
"I  c gray28",
"U  c #484848",
"Y  c #494949",
"T  c gray29",
"R  c #4B4B4B",
"E  c #4C4C4C",
"W  c gray30",
"Q  c #4E4E4E",
"!  c gray31",
"~  c #505050",
"^  c #515151",
"/  c gray32",
"(  c #535353",
")  c gray33",
"_  c #555555",
"`  c #565656",
"'  c gray34",
"]  c #585858",
"[  c gray35",
"{  c #5A5A5A",
"}  c #5B5B5B",
"|  c gray36",
" . c #5D5D5D",
".. c #5F5F5F",
"X. c #606060",
"o. c #626262",
"O. c gray39",
"+. c #646464",
"@. c gray40",
"#. c #676767",
"$. c DimGray",
"%. c #6A6A6A",
"&. c gray42",
"*. c #6C6C6C",
"=. c #6D6D6D",
"-. c gray43",
";. c gray44",
":. c #727272",
">. c gray45",
",. c gray46",
"<. c #777777",
"1. c #797979",
"2. c gray49",
"3. c #808080",
"4. c #818181",
"5. c gray51",
"6. c gray52",
"7. c gray53",
"8. c #888888",
"9. c gray55",
"0. c #8D8D8D",
"q. c #8E8E8E",
"w. c gray56",
"e. c #909090",
"r. c #929292",
"t. c gray58",
"y. c #959595",
"u. c #9A9A9A",
"i. c #9D9D9D",
"p. c #9F9F9F",
"a. c #A0A0A0",
"s. c gray63",
"d. c gray64",
"f. c #AAAAAA",
"g. c gray67",
"h. c #ACACAC",
"j. c #AFAFAF",
"k. c gray69",
"l. c gray71",
"z. c #C3C3C3",
"x. c None",
/* pixels */
"x.x.x.x.x.x.x.x.x.x.x.x.x.x.x.x.x.x.x.x.x.x.x.x.x.x.x.x.x.x.x.x.x.x.x.",
"x.x.x.x.x.x.x.x.x.x.x.x.x.x.x.x.x.x.x.x.x.x.x.x.x.x.x.x.x.x.x.x.x.x.x.",
"x.x.x.x.x.x.x.x.x.x.x.m I x.x.x.x.x.x.x.x.x.  x.x.x.x.x.x.x.x.x.x.x.x.",
"x.x.x.x.x.x.  X x.x.x.F j.m x.x.  x.x.x.x.- c # x.x.x.x.x.x.x.x.x.x.x.",
"x.x.x.x.x.x.O d , x.x.p 1.0 x.6 } u m x.x.p t.i x.x.x.x.x.x.x.x.x.x.x.",
"x.x.x.x.x.x.x.N *.y x.q j # 6 P k.H x.x.x.l a.y x.x.x.x.x.x.x.x.x.x.x.",
"x.x.x.x.x.x.x.x.' M i H - x.x.a z 2 x.x.x.i K : & - x.x.x.x.j H = x.x.",
"x.x.x.< f x 4 - v f x.x.x.x.x.x.u x.x.x.x.c +   Z N x.I 1 $.d.! x.x.x.",
"x.x.  s -.w.} 0 x.x.x.x.P U x.x.U x.x.x.p x.l . ) M x.: i 3.T O x.x.x.",
"x.x.x.x.* d g , x.x.x.l 8.y.; C ..b x.5 % C x.: B 9 x.p f q x.x.x.x.x.",
"x.x.x.x.. e R | w g x.Z } y.1 g [ s > } P y x.d a F x.x.x.x.x.x.x.x.x.",
"x.x.x.x.x.q C  .y $ x.x.k %.- q c x.y b h 4 x.x.x.x.x.x.x.x.x.x.x.x.x.",
"x.x.x.x.x.z u > t C x.x.z 4 s x.x.x.x.p 2 K x.W T K f x.x.x.x.x.x.x.x.",
"x.x.7 ) 9.s.Q 3 E x.x.x.x.x.x.x.N k P x.x.x.x.d p.i.` n x.x.x.x.x.x.x.",
"x.x.4 D _ &.E , v x.x.h z U U & ] J F x.x.x.x.m e.) d x.x.x.x.x.x.x.x.",
"x.x.x.x.x.x.l x.x.x.Q r L + - $ a 6 x.x.x.x.x.j A ! x.x.m Y m x.x.x.x.",
"x.x.x.x.x.v x.x.x.x.x.q C 3 b A z x.x.x.x.x.x.x.g Z x.x.l ;.f.q.L x.x.",
"x.X l =.0.,.p G x.x.x.x.g D x.x.M x.x.p Z x V d Y ! ` n z g H @.<.v x.",
"x.x.z 5.l.z.,.9 x.x.x.x.j ^ x.6 i 2 q k d.P d g ! o.X.n n x.x.x.x.e x.",
"x.x.x.# t Z i - x.x.x.G %.u G 6 h - x.q m q x.x.x.x.x.x.f k i b x.x.x.",
"x.x.x.x.x.x.t M i q 8 ..:.u x.x.p x.x.x.x.x.x.k h x.x.h } t.6.^ < . x.",
"x.x.x.x.x.p r.a.Q 4 z M x ( x.x.x.x.x.x.x.x.x.z / b J B v S r x.x.x.x.",
"x.x.x.x.  a K b c x.x.x.2 3 x.x.x.x.x.x.x.x.x.x.( X.- x.x.x.x.x.x.x.x.",
"x.x.x.x.t x.x.x.x.x.x.0 ' v e x.x.0 ~ C u x.x.x.x.w g x.x.x.x.x.x.x.x.",
"x.x.x.x.x.x.x.x.x.x.x #.7.i m x.V 7 2.D x.x.m p x.x.x.x Y x.x.x.x.x.x.",
"x.x.x.x.x.1 7 q x.x.z d.{ 7 x.x.x.q 6 j x.x.G T M x.7 5 l k x.x.x.x.x.",
"x.x.x.q %.y.X.6 x.g 2 p < x.x.x.x.x.x.x.x.x.b 4.O.l 6 +.u.g.| 1 x.x.x.",
"x.x.# ^ ;.G q x.x.l l 2 a Z x.x.3 c x.x.x.x.g b 4.D D f M ] <.V   x.x.",
"x.x.o %   x.x.x.x.x.2 T _ 9 x.N 0 3 ~ x.x., 2 @ l V x.x.x.x.x.x.x.x.x.",
"x.x.x.x.x.x.x.x.x.x.^ h.J x.x.n C 8 x.x.x.6 L r 8 x.x.x.6 x.x.x.x.x.x.",
"x.x.x.x.x.x.x.x.x.: >.+.6 x.x.k T h x.x.x.B N 1.x.x.x.< ] E x.x.x.x.x.",
"x.x.x.x.x.x.x.x.x.o > x.x.x.x.x.> B x.x.x.x.1 ` x.x.x.x.V k o x.x.x.x.",
"x.x.x.x.x.x.x.x.x.x.x.x.x.x.x.x.x.x.x.x.x.x.x.- x.x.x.x.x.x.x.x.x.x.x.",
"x.x.x.x.x.x.x.x.x.x.x.x.x.x.x.x.x.x.x.x.x.x.x.x.x.x.x.x.x.x.x.x.x.x.x.",
"x.x.x.x.x.x.x.x.x.x.x.x.x.x.x.x.x.x.x.x.x.x.x.x.x.x.x.x.x.x.x.x.x.x.x."
};
