/* XPM */
static char *result[] = {
/* columns rows colors chars-per-pixel */
"50 50 167 2 ",
"   c #010102",
".  c #0C0C03",
"X  c #04060A",
"o  c #05080E",
"O  c #0A0C0F",
"+  c #111106",
"@  c #121309",
"#  c #1D1D0B",
"$  c #070A12",
"%  c #090D15",
"&  c #090E18",
"*  c #0C111D",
"=  c #161918",
"-  c #1F2317",
";  c #22220B",
":  c #2B2B0D",
">  c #272811",
",  c #2B2C13",
"<  c #333411",
"1  c #3C3D14",
"2  c #32351A",
"3  c #34381E",
"4  c #3A3C1C",
"5  c #0D1422",
"6  c #191E21",
"7  c #101728",
"8  c #11192B",
"9  c #141D32",
"0  c #1A222E",
"q  c #162139",
"w  c #18233D",
"e  c #282C22",
"r  c #202629",
"t  c #323621",
"y  c #373D2A",
"u  c #2C3334",
"i  c #52211E",
"p  c #4C371E",
"a  c #76302B",
"s  c #424314",
"d  c #474816",
"f  c #4B4C1C",
"g  c #53541B",
"h  c #5D5E1D",
"j  c #4B4C22",
"k  c #404428",
"l  c #4F5125",
"z  c #565B31",
"x  c #635E2A",
"c  c #5D6134",
"v  c #676920",
"b  c #6E6F22",
"n  c #65662A",
"m  c #707122",
"M  c #767825",
"N  c #7B7D26",
"B  c #192641",
"V  c #1B2845",
"C  c #1E2C4C",
"Z  c #203052",
"A  c #24365C",
"S  c #26385F",
"D  c #273A63",
"F  c #293D65",
"G  c #2A3E6A",
"H  c #2B406D",
"J  c #2D4372",
"K  c #2F4779",
"L  c #30477A",
"P  c #334A7D",
"I  c #4F5849",
"U  c #5C654B",
"Y  c #6C734E",
"T  c #6F7A57",
"R  c #757F58",
"E  c #445872",
"W  c #FC2B63",
"Q  c #ED6157",
"!  c #FC755B",
"~  c #7F8027",
"^  c #7F8038",
"/  c #82842A",
"(  c #87892A",
")  c #95972F",
"_  c #818339",
"`  c #8E8F3F",
"'  c #8F903F",
"]  c #9A9D30",
"[  c #9FA031",
"{  c #A2A332",
"}  c #A9AB34",
"|  c #A6A839",
" . c #A9AC3D",
".. c #B2B437",
"X. c #B7B93C",
"o. c #C1C43C",
"O. c #C7C93E",
"+. c #CACD3F",
"@. c #A0A247",
"#. c #AAAD46",
"$. c #BBBE44",
"%. c #B3B44F",
"&. c #B6B84D",
"*. c #A6AA52",
"=. c #FC875A",
"-. c #FC9D57",
";. c #FCAD56",
":. c #FCB555",
">. c #C8CA4C",
",. c #CFD14A",
"<. c #D5D845",
"1. c #C2C555",
"2. c #CCCD56",
"3. c #CBCD5B",
"4. c #DBDF56",
"5. c #D4D55E",
"6. c #D9DC5B",
"7. c #FBC955",
"8. c #FCD152",
"9. c #E4E74A",
"0. c #E6E948",
"q. c #ECEF4A",
"w. c #EEF14B",
"e. c #F2F54B",
"r. c #F6F94D",
"t. c #FCFF4F",
"y. c #EDEF50",
"u. c #E5E859",
"i. c #FBE251",
"p. c #EDF05E",
"a. c #F2F555",
"s. c #F6F953",
"d. c #FBFE52",
"f. c #F4F65C",
"g. c #FAFD5D",
"h. c #CCCF61",
"j. c #E9EB65",
"k. c #FAEC66",
"l. c #EFF16A",
"z. c #F5F764",
"x. c #FAFC63",
"c. c #F4F66C",
"v. c #F7F96D",
"b. c #FAFC6D",
"n. c #344D83",
"m. c #37518A",
"M. c #39548E",
"N. c #3B5693",
"B. c #3C5997",
"V. c #3E5C9D",
"C. c #405FA1",
"Z. c #4261A5",
"A. c #4565AD",
"S. c #4667B0",
"D. c #4769B2",
"F. c #496BB6",
"G. c #4A6EBB",
"H. c #4C70BE",
"J. c #4E73C4",
"K. c #5075C7",
"L. c #5177CA",
"P. c #5279CD",
"I. c #557DD4",
"U. c #567FD9",
"Y. c #5780DA",
"T. c #5982DE",
"R. c #5A84E0",
/* pixels */
"R.R.R.R.R.R.R.R.R.R.R.R.R.R.R.R.R.R.R.R.R.R.R.R.R.R.R.R.R.R.R.R.R.R.R.R.R.R.R.R.R.R.R.R.R.R.R.R.R.R.",
"R.R.R.R.R.R.R.R.R.R.R.R.R.R.R.R.R.R.R.R.R.R.R.R.R.R.R.R.R.R.R.R.R.R.R.R.R.R.R.R.R.R.R.R.R.R.R.R.R.R.",
"R.R.R.R.R.R.R.R.R.R.R.R.R.R.R.R.R.R.R.R.R.R.R.R.R.R.R.R.R.R.R.R.R.R.R.R.R.R.R.R.R.R.R.R.R.R.R.R.R.R.",
"R.R.R.R.R.R.R.R.R.R.R.R.R.R.R.R.R.R.R.R.R.R.R.R.R.R.R.R.R.R.R.R.R.R.R.R.R.R.R.R.R.R.R.R.R.R.R.R.R.R.",
"R.R.R.R.R.R.R.R.R.R.R.R.R.R.R.R.R.R.R.R.R.R.R.R.R.R.R.R.R.R.R.R.R.R.R.R.R.R.R.R.R.R.R.R.R.R.R.R.R.R.",
"R.R.R.R.R.R.R.R.R.R.R.R.R.R.R.R.R.R.R.R.R.R.R.R.R.R.R.R.R.R.R.R.R.R.R.R.R.R.R.R.R.R.R.R.R.R.R.R.R.R.",
"R.R.R.R.R.R.R.R.R.R.R.R.R.R.R.R.R.R.R.R.R.R.R.R.F.P.R.R.R.R.R.R.R.R.R.R.R.R.R.R.R.R.R.R.R.R.R.R.R.R.",
"R.R.R.R.R.R.R.R.R.R.R.R.R.R.R.R.R.R.R.R.R.R.I.J.V D I.R.R.R.R.R.R.R.R.R.R.R.R.R.R.R.R.R.R.R.R.R.R.R.",
"R.R.R.R.R.R.R.R.R.R.R.R.R.R.R.R.R.R.R.R.R.R.F.C X q K.I.T.T.T.R.R.R.R.R.R.R.R.R.R.R.R.R.R.R.R.R.R.R.",
"R.R.R.R.R.R.R.R.R.R.R.R.R.R.R.R.R.R.R.R.T.I.G X     C K K.T.R.R.R.R.R.R.R.R.R.R.R.R.R.R.R.R.R.R.R.R.",
"R.R.R.R.R.R.R.R.R.R.R.R.R.R.R.R.R.R.R.R.L.J & . / ] : O L Y.R.R.R.R.R.R.R.R.R.R.R.R.R.R.R.R.R.R.R.R.",
"R.R.R.R.R.R.R.R.R.R.R.R.R.R.R.R.R.R.R.T.V.5 + ) w.t.<.2 F K.T.T.R.R.R.R.R.R.R.R.R.R.R.R.R.R.R.R.R.R.",
"R.R.R.R.R.R.R.R.R.R.R.R.R.R.R.R.R.R.R.L.Z X n 9.t.t.t.o.3 D G.T.R.R.R.R.R.R.R.R.R.R.R.R.R.R.R.R.R.R.",
"R.R.R.R.R.R.R.R.R.R.R.R.R.R.R.R.R.R.R.Z.o 2 1.d.t.t.t.q.N 0 C.T.R.R.R.R.R.R.R.R.R.R.R.R.R.R.R.R.R.R.",
"R.R.R.R.R.R.R.R.R.T.Y.Y.Y.Y.Y.Y.U.U.I.n., %.b.d.t.t.t.t.} = S A.G.H.J.L.J.L.U.R.R.R.R.R.R.R.R.R.R.R.",
"R.R.R.R.R.R.R.R.R.T.Z.V.V.C.Z.Z.B.B.m.E %.c.b.d.t.t.t.t.} + * w V V B Z V Z n.I.R.R.R.R.R.R.R.R.R.R.",
"R.R.R.R.R.R.R.R.T.J.* $ $ $ $ $ $ $ X t v.b.g.t.t.t.t.t.} +               X X M.T.R.R.R.R.R.R.R.R.R.",
"R.R.R.R.R.R.R.R.T.C o g v v v v v v >.x.z.a.r.t.t.t.t.e.O.m v v v v v n n , X n.U.R.R.R.R.R.R.R.R.R.",
"R.R.R.R.R.R.R.R.H.7   ..t.t.t.t.t.t.t.e.$.~ { t.t.t.0.h ..e.t.t.t.t.d.g.j.c G K.R.R.R.R.R.R.R.R.R.R.",
"R.R.R.R.R.R.R.R.J.H & # <.a.d.d.t.t.d.q.] 1 b q.t.t.] ; / q.t.t.t.t.g.z._ * B.T.R.R.R.R.R.R.R.R.R.R.",
"R.R.R.R.R.R.R.R.T.J.Z 0 T #.f.d.t.t.t.w.M   < +.t.t.:   g q.t.t.d.g.b.5.j V G.T.R.R.R.R.R.R.R.R.R.R.",
"R.R.R.R.R.R.R.R.R.T.S.Z.H ,  .s.t.t.t.w.M   < +.t.t.:   g q.t.t.x.b.c.` r N.I.R.R.R.R.R.R.R.R.R.R.R.",
"R.R.R.R.R.R.R.R.R.R.T.Y.n.8 2  .e.t.t.q.M   < +.t.t.:   g q.t.g.b.1.' e D K.R.R.R.R.R.R.R.R.R.R.R.R.",
"R.R.R.R.R.R.R.R.R.T.T.T.L.L * ; s 0.-.Q a   < +.t.t.:   i Q -.k.5.> = n.K.Y.R.R.R.R.R.R.R.R.R.R.R.R.",
"R.R.R.R.R.R.R.R.R.R.R.R.R.L.L 9 o k ! W W =.t.t.+.9.t.:.W W ! p X * m.T.T.R.R.R.R.R.R.R.R.R.R.R.R.R.",
"R.R.R.R.R.R.R.R.R.R.R.R.R.R.I.G & I 7.;.;.8.t.t.d M t.i.;.;.7.x % 9 m.L.T.R.R.R.R.R.R.R.R.R.R.R.R.R.",
"R.R.R.R.R.R.R.R.R.R.R.R.T.Y.A.9 & R x.t.t.t.t.t.e.r.t.t.x.b.x.a.f . $ G G.Y.T.R.R.R.R.R.R.R.R.R.R.R.",
"R.R.R.R.R.R.R.R.R.R.R.R.T.D.Z $ Y f.d.t.t.t.t.t.+.o.e.t.d.g.x.b.j._ 4 X C D.T.R.R.R.R.R.R.R.R.R.R.R.",
"R.R.R.R.R.R.R.R.R.R.R.T.L.D $ y h.g.t.t.t.t.t.X.s : / d.d.t.s.g.b.x.$.1 * m.I.T.R.R.R.R.R.R.R.R.R.R.",
"R.R.R.R.R.R.R.R.R.R.R.T.Z.* l 1.f.s.t.t.t.0...s O   + / >.u.g.g.b.b.f...4 B B.I.R.R.R.R.R.R.R.R.R.R.",
"R.R.R.R.R.R.R.R.R.R.R.L.G , &.g.t.t.t.t.t.[ ; . & X * 6 , g | y.b.b.b.a.N   7 N.T.R.R.R.R.R.R.R.R.R.",
"R.R.R.R.R.R.R.R.R.R.R.n.X l u.s.t.t.t.e.( +     q F.G.D 5   + &.b.b.b.g.l.#.: S Y.R.R.R.R.R.R.R.R.R.",
"R.R.R.R.R.R.R.R.R.T.A.* 1 ,.t.t.d.d.a.N     * G I.R.R.U.A.S &   ^ 3.b.b.b.3.t X I.T.R.R.R.R.R.R.R.R.",
"R.R.R.R.R.R.R.R.T.L.5 * U p.d.t.d.x.,.. % D F.U.T.R.R.R.R.I.m.&   > 3.b.v.5.*.u I.R.R.R.R.R.R.R.R.R.",
"R.R.R.R.R.R.R.R.R.Z.5 o @ ^ 4.4.6.2.1 $ D P.R.R.R.R.R.R.R.R.R.F o   # @.@.j 9 A.T.R.R.R.R.R.R.R.R.R.",
"R.R.R.R.R.R.R.R.R.Y.M.V $ - z z l I D J A.Y.R.R.R.R.R.R.R.R.R.F.G S     5 A n.J.T.R.R.R.R.R.R.R.R.R.",
"R.R.R.R.R.R.R.R.R.R.I.F.P V 8 8 S Z.I.I.T.R.R.R.R.R.R.R.R.R.R.Y.I.L.n.P C.I.U.T.R.R.R.R.R.R.R.R.R.R.",
"R.R.R.R.R.R.R.R.R.R.R.R.I.F.A.D.P.T.R.R.R.R.R.R.R.R.R.R.R.R.R.R.R.R.R.R.R.T.R.R.R.R.R.R.R.R.R.R.R.R.",
"R.R.R.R.R.R.R.R.R.R.R.R.R.R.R.R.R.R.R.R.R.R.R.R.R.R.R.R.R.R.R.R.R.R.R.R.R.R.R.R.R.R.R.R.R.R.R.R.R.R.",
"R.R.R.R.R.R.R.R.R.R.R.R.R.R.R.R.R.R.R.R.R.R.R.R.R.R.R.R.R.R.R.R.R.R.R.R.R.R.R.R.R.R.R.R.R.R.R.R.R.R.",
"R.R.R.R.R.R.R.R.R.R.R.R.R.R.R.R.R.R.R.R.R.R.R.R.R.R.R.R.R.R.R.R.R.R.R.R.R.R.R.R.R.R.R.R.R.R.R.R.R.R.",
"R.R.R.R.R.R.R.R.R.R.R.R.R.R.R.R.R.R.R.R.R.R.R.R.R.R.R.R.R.R.R.R.R.R.R.R.R.R.R.R.R.R.R.R.R.R.R.R.R.R.",
"R.R.R.R.R.R.R.R.R.R.R.R.R.R.R.R.R.R.R.R.R.R.R.R.R.R.R.R.R.R.R.R.R.R.R.R.R.R.R.R.R.R.R.R.R.R.R.R.R.R.",
"R.R.R.R.R.R.R.R.R.R.R.R.R.R.R.R.R.R.R.R.R.R.R.R.R.R.R.R.R.R.R.R.R.R.R.R.R.R.R.R.R.R.R.R.R.R.R.R.R.R.",
"R.R.R.R.R.R.R.R.R.R.R.R.R.R.R.R.R.R.R.R.R.R.R.R.R.R.R.R.R.R.R.R.R.R.R.R.R.R.R.R.R.R.R.R.R.R.R.R.R.R.",
"R.R.R.R.R.R.R.R.R.R.R.R.R.R.R.R.R.R.R.R.R.R.R.R.R.R.R.R.R.R.R.R.R.R.R.R.R.R.R.R.R.R.R.R.R.R.R.R.R.R.",
"R.R.R.R.R.R.R.R.R.R.R.R.R.R.R.R.R.R.R.R.R.R.R.R.R.R.R.R.R.R.R.R.R.R.R.R.R.R.R.R.R.R.R.R.R.R.R.R.R.R.",
"R.R.R.R.R.R.R.R.R.R.R.R.R.R.R.R.R.R.R.R.R.R.R.R.R.R.R.R.R.R.R.R.R.R.R.R.R.R.R.R.R.R.R.R.R.R.R.R.R.R.",
"R.R.R.R.R.R.R.R.R.R.R.R.R.R.R.R.R.R.R.R.R.R.R.R.R.R.R.R.R.R.R.R.R.R.R.R.R.R.R.R.R.R.R.R.R.R.R.R.R.R.",
"R.R.R.R.R.R.R.R.R.R.R.R.R.R.R.R.R.R.R.R.R.R.R.R.R.R.R.R.R.R.R.R.R.R.R.R.R.R.R.R.R.R.R.R.R.R.R.R.R.R."
};
