/* XPM */
static char *result[] = {
/* columns rows colors chars-per-pixel */
"45 45 196 2 ",
"   c #020202",
".  c #080707",
"X  c #0B0F08",
"o  c #0E120B",
"O  c #121A0C",
"+  c #12170C",
"@  c #0F1B1E",
"#  c #171717",
"$  c #1A1E15",
"%  c #1C1C1B",
"&  c #171C12",
"*  c #201E1D",
"=  c #1B280F",
"-  c #1B2414",
";  c #1E2B12",
":  c #172010",
">  c #242B1C",
",  c #22281B",
"<  c #223414",
"1  c #2B3D1C",
"2  c #273619",
"3  c #211E20",
"4  c #242321",
"5  c #2D2D2A",
"6  c #292827",
"7  c #312F2E",
"8  c #2E3A22",
"9  c #2D3425",
"0  c #313B26",
"q  c #35362F",
"w  c #353C2C",
"e  c #343331",
"r  c #3B3B36",
"t  c #3E3D3A",
"y  c #363830",
"u  c #413F3C",
"i  c #2D431A",
"p  c #344E1E",
"a  c #36521E",
"s  c #39561F",
"d  c #334323",
"f  c #37432A",
"g  c #3A422E",
"h  c #3A4C2B",
"j  c #354A23",
"k  c #375021",
"l  c #3B5622",
"z  c #3E5C24",
"x  c #3F5928",
"c  c #3B4230",
"v  c #3E4A32",
"b  c #415C29",
"n  c #405B27",
"m  c #414C36",
"M  c #44433E",
"N  c #43493D",
"B  c #435234",
"V  c #515C3F",
"C  c #426326",
"Z  c #45632B",
"A  c #476A28",
"S  c #4A6E2C",
"D  c #4E732E",
"F  c #527B2F",
"G  c #4D6A30",
"H  c #496730",
"J  c #566C3A",
"K  c #547D32",
"L  c #5B7A3B",
"P  c #557536",
"I  c #454441",
"U  c #494743",
"Y  c #4C4A46",
"T  c #4D4C4A",
"R  c #514E4B",
"E  c #4B5244",
"W  c #54524E",
"Q  c #565B4A",
"!  c #58594E",
"~  c #565451",
"^  c #595652",
"/  c #5C5955",
"(  c #5A5759",
")  c #5D5A59",
"_  c #615E5B",
"`  c #5D6B48",
"'  c #5C7444",
"]  c #64625D",
"[  c #68695D",
"{  c #615E60",
"}  c #666362",
"|  c #6A6664",
" . c #6D6B64",
".. c #6D696C",
"X. c #6B676C",
"o. c #706E68",
"O. c #747369",
"+. c #737E62",
"@. c #6E6971",
"#. c #726E74",
"$. c #657275",
"%. c #7D7B76",
"&. c #7E7C79",
"*. c #777377",
"=. c #81797B",
"-. c #568032",
";. c #5A8635",
":. c #5C8B35",
">. c #61873C",
",. c #628A3C",
"<. c #619237",
"1. c #65933C",
"2. c #679A3B",
"3. c #699D3C",
"4. c #638144",
"5. c #668846",
"6. c #6A8B47",
"7. c #6A9742",
"8. c #6B9843",
"9. c #6E904F",
"0. c #749B4A",
"q. c #72944F",
"w. c #6FA641",
"e. c #73A547",
"r. c #74AB45",
"t. c #79A14D",
"y. c #76B144",
"u. c #79B646",
"i. c #7BB847",
"p. c #79B148",
"a. c #7EBC49",
"s. c #7EA852",
"d. c #80BF4A",
"f. c #86B25B",
"g. c #83AD58",
"h. c #85847C",
"j. c #89897D",
"k. c #868878",
"l. c #91BD65",
"z. c #89B460",
"x. c #81C14A",
"c. c #99C76D",
"v. c #597D87",
"b. c #868481",
"n. c #8E8E81",
"m. c #8D8C8B",
"M. c #94828C",
"N. c #8F9081",
"B. c #949485",
"V. c #979689",
"C. c #9A9B8C",
"Z. c #9B8793",
"A. c #9A9596",
"S. c #9A9996",
"D. c #999898",
"F. c #A2A394",
"G. c #ABAC9A",
"H. c #A9A997",
"J. c #AEB09C",
"K. c #B1B29F",
"L. c #A4A4A4",
"P. c #ACACA0",
"I. c #B0AFAD",
"U. c #B5B6A3",
"Y. c #B7B8A3",
"T. c #BABCA6",
"R. c #BCBEA8",
"E. c #B7B7AA",
"W. c #BEBDBC",
"Q. c #B7B7B6",
"!. c #BFC1AA",
"~. c #BEC0B1",
"^. c #C2C4AE",
"/. c #C3C4B2",
"(. c #C7C9B6",
"). c #C9CAB5",
"_. c #CDCEBE",
"`. c #C4C1BF",
"'. c #CED0BF",
"]. c #D0D2BF",
"[. c #C9AEC2",
"{. c #D7BED2",
"}. c #9AC1CB",
"|. c #B6C8CB",
" X c #C9C8C8",
".X c #D4D6C4",
"XX c #D7D9C7",
"oX c #DBDDCB",
"OX c #D5D6CA",
"+X c #C1D1D6",
"@X c #D3D3D4",
"#X c #DDDDDD",
"$X c #D7C0D2",
"%X c #E1E4D1",
"&X c #D9DDE1",
"*X c #E6E5E5",
/* pixels */
"' 4.6.5.5.5.5.5.5.5.5.6.5.5.5.5.5.5.5.5.5.5.5.5.5.5.5.5.5.5.5.5.5.6.5.5.5.5.5.5.5.5.5.4.' ",
"5.8.e.e.e.e.e.e.>.S Z Z Z H 1.e.e.e.e.e.e.e.e.e.e.e.e.e.e.e.7.H Z Z Z G >.e.e.e.e.e.e.8.5.",
"7.r.d.a.a.a.a.a.K i 1 1 8 h ;.r.a.a.a.a.a.a.a.a.d.a.a.a.i.r.;.h 8 1 1 1 K d.a.a.a.a.d.r.8.",
"7.r.a.a.a.a.a.a.C $ 5 e I T h K y.a.a.a.a.a.a.a.a.a.a.i.y.K h E I e 5 - C a.a.a.a.a.a.r.8.",
"8.r.a.a.a.a.a.a.C - t U ( X.~ B D u.a.a.a.a.a.a.a.a.a.y.D x ( $.) U t $ C a.a.a.a.a.a.r.8.",
"8.r.a.a.a.a.a.a.z - I ~ } #.@.~ B K w.d.a.a.a.a.a.d.w.-.v ~ @.#.] W U $ z a.a.a.a.a.a.r.8.",
"8.r.a.a.a.a.a.a.A > M T ^ } *.#.~ f -.y.a.a.a.a.a.y.-.f ~ @.*.} ^ W M > A a.a.a.a.a.a.r.8.",
"8.r.a.a.a.a.a.a.2.Z 9 M ~ ^ } #.#.~ v D i.a.a.a.i.D v ( #.#.} ( W M 9 C 2.a.a.a.a.a.a.r.8.",
"8.e.a.a.a.a.a.a.u.2.Z f u W ~ | .._ 6 < A D S A A < 5 { ..} / W t f H 2.y.a.a.a.a.a.a.r.7.",
"8.e.a.a.a.a.i.a.a.y.-.d q R W / _ _ * + i 1 1 0 d O 3 ) { / W R e d -.y.d.a.a.a.a.a.a.r.7.",
"8.r.a.a.a.a.a.a.a.3.k w M W W ^ ^ ^ $ 1 6.G L g.9.8 % ( ^ ~ ! ~ I w k 3.a.a.a.a.a.a.a.r.7.",
"8.r.a.a.a.a.a.a.<.x f I W ~ ~ ^ ^ W m J z.>.3.c.l.P f ^ ! / ~ ~ W N g z <.d.a.a.a.a.a.r.7.",
"8.r.d.d.a.d.i.2.Z w M R ~ W W W W W V ' f.g.g.l.c.6.H ~ ~ ~ W W ~ R M w b 2.i.d.a.d.d.r.7.",
"8.e.y.w.u.i.3.k 8 M W ^ / ] } } _ _ ! ` 6.g.0.t.c.8.` ( } } } } ( ~ W M 8 k 3.u.p.r.r.e.8.",
"8.P a i ;.:.a O 6 Y ~ W %.Q. X XI.[ ! ! ` 6.g.f.0.,.` } I. X XQ.%.~ ~ Y 6 O a :.;.i a F 8.",
"8.;.A C C i O $ r W ^ &.Q.*XL.m.M.A.O./ ! ` 6.0.>.L 9.D.m.m.L.*XW.&.^ W r $ O i C C S ;.8.",
"3.<.;.F s = X q Y W ) I.&XW.T % Y  Xm.~ / ! ` >.L ` m. XR % T W.#XI./ W Y e o ; l F ;.1.8.",
"8.S i < A s & u R ^ ) ~.Q.T #   u @XV.~ W W ! Q Q ^ A.@XI   # T Q.W./ ^ R t & s A < i D 8.",
"8.,.;.F C < o r R ^ _ [.+Xv.@ u L.*XA.I 4 4 3 , , I A.*XL.u @ v.+X`._ W W r o < z D -.<.7.",
"8.,.-.S < + * M W W ) D.|.}.$.L.*X Xb.I * .   . 3 I =.OX*XL.$.}. XA.^ W W M % + < D -.,.8.",
"8.S i = X & M R ^ ^ / } A.#X@X*X@X=.] W M #   # U ~ ] =.@X&X@X&XA.{ _ ^ ^ W u # X = i S 8.",
"8.2.1.;.2 > M W ^ W ^ M.[.{.A.b.%._ ~ ~ W M u M W ~ ~ _ &.b.D.$X[.M.^ W ^ W U , < :.1.2.8.",
"8.r.w.D f r R W ~ ~ / *.Z.M.| _ / W W W W W W W W W R ^ ^ / X.Z.Z.=._ W ^ W R u j D r.r.7.",
"2.y.2.2 y Y ~ ~ ~ ~ ~ / _ _ ^ ! / |  .o.o.o.o. . . . .| / ^ ^ ) _ ^ W ^ ^ ^ ~ Y w < <.i.7.",
"8.p.<.< e Y ~ ~ / W ^ / W ^ W W [ F.K.K.K.K.K.K.U.J.K.F. .W ~ / ^ W ^ ^ ^ W ~ Y y < <.y.8.",
"8.K x w U W / ..{ / ^ W ^ W W O.C.T.^.^.^.^.^.^.!.!.!.T.C.O.W W ^ W ^ ^ ^ / W R U q n K 8.",
"8.z > M R / _ ) ( ^ ^ ^ W /  .C.^.^.^.).^.F.V.H./.)./.!.T.C. ./ W ^ W W U U _ _ R M > n 8.",
"8.n > U W X.X.6 e R W ! / | H.K.K.^.].XX/.=.] &./.XX].^.Y.U.H.[ / ! ~ R 7 6 X.| R U > n 8.",
"8.z 8 ( _ X.X.6 7 Y ~ ~ O.F.E.B.j./.oXE.=.G.~.G.=.E.oX/.j.V.Y.F.O.~ ~ Y 7 6 X.X._ / 8 z 8.",
"8.:.H N ( ( I e M R / O.C.Y.B.B.V.C././.F..X%X.XF././.A.V.N.V.U.C.O./ W t e I ( ( M H ;.8.",
"8.p.3.k Y t % u W ! _ V.T.Y.b.P.R.h.E.XXoXoXoXoXoXoXU.h.~.P.k.Y.R.V.( ^ R t # r E k 3.p.8.",
"8.e.a.w.x $ . t W ~ ] C.T.^.(..XOX.X.XoXoXoXXXoXoXoXXX_.OX.X).^.R.V._ ^ R r o : x e.a.r.8.",
"8.r.d.a.3.k : I T } n.G./.].oXoXoX%XoXoXoXoXoXoXoXoXoXoXoXoXoX'.^.J.j.[ R t O s 2.a.d.r.1.",
"8.r.a.a.x.K ; c R  .G.T.).XXoXoXoXoXoXoXoXoXoXoXoXoXoXoXoXoXoXXX).T.G. .Y t , F x.a.d.r.8.",
"8.r.a.a.x.K - c R  .G.T.).XXoXoXoXoXoXoXoXoXoXoXoXoXoXoXoXoXoXXX).T.H. .Y u - F x.a.a.r.8.",
"7.r.a.a.d.K ; t R  .G.T.).XXoXoXoXoXoXoXoXoXoXoXoXoXoXoXoXoXoXXX).T.H. .T t ; F x.x.a.r.8.",
"7.e.a.a.d.-.; t Y  .F.Y.)..XXXoXoXoXoXoXoXoXoXoXoXoXoXoXoXoXoXXX).Y.H.[ Y t < K d.a.d.r.8.",
"8.r.a.a.d.<.k c M [ j.K.^.].XXoXoXoXoXoXoXoXoXoXoXoXoXoXoXoXXX'.^.K.j.] M g k <.d.a.a.r.1.",
"8.r.a.a.a.i.3.k w Y _ V.T./..XoXoXoXoXoXoXoXoXoXoXoXoXoXoXoX.X^.T.C.] U w k 3.a.a.a.d.r.8.",
"8.r.a.a.a.d.i.<.n w Y k.K.^..XoXoXoXoXoXoXoXoXoX%XoXoXoXoXoX.X^.K.j.M 0 b <.a.a.i.a.d.r.8.",
"2.r.a.a.a.a.a.d.:.z c [ B.K.(._._..X_._._._..X_._.]._._._.'.(.K.V.[ g l :.d.a.a.d.a.d.r.8.",
"8.r.a.a.a.a.a.a.a.3.k g / k.C.F.F.H.F.F.F.F.F.F.F.S.F.F.F.F.V.k./ w k 2.d.a.a.a.d.i.d.r.7.",
"8.r.d.a.a.a.d.a.d.u.3.x 0 h m m m m m m m m m v m v m v m v m w 1 n 3.i.d.a.a.a.d.a.a.r.8.",
",.8.r.w.e.r.r.e.r.r.r.K n l l l l l l l l l l l l s s s s s s l l K w.r.r.r.r.r.e.e.r.3.>.",
"L ,.1.1.1.1.1.1.1.1.1.1.1.1.1.1.7.1.1.1.1.1.1.1.1.1.1.1.1.1.7.1.1.1.1.1.1.1.,.1.1.1.1.>.L "
};
