/* XPM */
static char *result[] = {
/* columns rows colors chars-per-pixel */
"35 35 9 1 ",
"  c #4D3F38",
". c #604B3D",
"X c #353540",
"o c #E39347",
"O c #EEB551",
"+ c #918D8D",
"@ c #BFB8B4",
"# c #EDE4DA",
"$ c None",
/* pixels */
"$$$$$$$$$$$$$$$$$$$$$$$$$$$$$$$$$$$",
"$$$$$$$$$$$$$$$$$$$$$$$$$$$$$$$$$$$",
"$$$$$$$$$$$$$$$$$$$$$$$$$$$$$$$$$$$",
"$$$$$$$$$$$$$$$$$$$$$$$$$$$$$$$$$$$",
"$$$$$$$$$$$$$$$$$$$$$$$$$$$$$$$$$$$",
"$$$$$$$$$$$$$$$$$$$$$$$$$$$$$$$$$$$",
"$$$$$XXXXXXXXXXXXXXXXXXXXXXXX$$$$$$",
"$$$$$X@@@@@@@@@OOOO@@@@@@###X$$$$$$",
"$$$$$X+++++++++OOOO+++++++++X$$$$$$",
"$$$$$X+.. .....oooo. ......+X$$$$$$",
"$$$$$X+.. ......++.. ......+X$$$$$$",
"$$$$$X+         ++         +X$$$$$$",
"$$$$$X+...... ..++...... ..+X$$$$$$",
"$$$$$X+...... ..++...... ..+X$$$$$$",
"$$$$$X@++++++++++++++++++++@X$$$$$$",
"$$$$$X@XXXXXXXXXXXXXXXXXXXX@X$$$$$$",
"$$$$$X@XXXXXXXXXXXXXXXXXXXX@X$$$$$$",
"$$$$$X@XXXXXXXXXXXXXXXXXXXX@X$$$$$$",
"$$$$$X@XXXXXXXXXXXXXXXXXXXX@X$$$$$$",
"$$$$$X@XXXXXXXXXXXXXXXXXXXX@X@$$$$$",
"$$$$@X@@@@@@@@@@@@@@@@@@@@@@X@$$$$$",
"$$$$@X++++++++++++++++++++++X@$$$$$",
"$$$$@X+.. ......++...... ..+X@$$$$$",
"$$$$@X+.. ......++...... ..+X@$$$$$",
"$$$$@X+         ++         +X@$$$$$",
"$$$$@X+...... ..++.. ......+X@$$$$$",
"$$$$@X+...... ..++.. ......+X@$$$$$",
"$$$$@X++++++++++++++++++++++X@$$$$$",
"$$$$@XXXXXXXXXXXXXXXXXXXXXXXX@$$$$$",
"$$$$@@@@@@@@@@@@@@@@@@@@@@@@@@$$$$$",
"$$$$$$$$$$$$$$$$$$$$$$$$$$$$$$$$$$$",
"$$$$$$$$$$$$$$$$$$$$$$$$$$$$$$$$$$$",
"$$$$$$$$$$$$$$$$$$$$$$$$$$$$$$$$$$$",
"$$$$$$$$$$$$$$$$$$$$$$$$$$$$$$$$$$$",
"$$$$$$$$$$$$$$$$$$$$$$$$$$$$$$$$$$$"
};
