/* XPM */
static char *result[] = {
/* columns rows colors chars-per-pixel */
"35 35 9 1 ",
"  c #604B3D",
". c #353540",
"X c #735B42",
"o c #446350",
"O c #557D55",
"+ c #BFB8B4",
"@ c #D6CEC7",
"# c #EDE4DA",
"$ c None",
/* pixels */
"$$$$$$$$$$$$$$$$$$$$$$$$$$$$$$$$$$$",
"$$$$$$$$$$$$$$$$$$$$$$$$$$$$$$$$$$$",
"$$$$$$$$$$$$$$$$$$$$$$$$$$$$$$$$$$$",
"$$$$$$$$$$$$$$$$$$$$$$$$$$$$$$$$$$$",
"$$$$$$$$$$$$$$$$$$$$$$$$$$$$$$$$$$$",
"$$$$$$$$$$$$$$$$$$$$$$$$$$$$$$$$$$$",
"$$$$$$$$$$$$$$$$$$$$$$$$$$$$$$$$$$$",
"$$$$$$$$$$$$$$$$$$$$$$$$$$$$$$$$$$$",
"$$$$$$$$$$$$$$$$$$$$$$$$$$$$$$$$$$$",
"$$$$$$$$$$$$$$$$$$$$$$$$$$$$$$$$$$$",
"$$$$$$$......$$$$$$$$$$......$$$$$$",
"$$$$$$..OO##..$$$$$$$$..@@##..$$$$$",
"$$$$$$.OOOO##.$$$$$$$$.@@@@##.$$$$$",
"$$$$$..OOOOOO..$$$$$$..@@@@@@..$$$$",
"$$$$$.OOOOOOO#.$$$$$$.@@@@@@@#.$$$$",
"$$$$..OoOOOOoO..$$$$..@o@@@@o@..$$$",
"$$$$.OOooooooO#.$$$$.@@oooooo@#.$$$",
"$$$$.OOOooooOOO.$$$$.@@@oooo@@@.$$$",
"$$$$.OoOOOOOOoO.$$$$.@o@@@@@@o@.$$$",
"$$$$.OooooooooO.$$$$.@oooooooo@.$$$",
"$$$$.OOooooooOO.$$$$.@@oooooo@@.$$$",
"$$$$.oOOOOOOOOo.$$$$.o@@@@@@@@o.$$$",
"$$$$.oooooooooo.$$$$.oooooooooo.$$$",
"$$$$..oooooooo..$$$$..oooooooo..$$$",
"$$$$+...    ...+$$$$+...    ...+$$$",
"$$$$++..XXXX..++$$$$++..XXXX..++$$$",
"$$$$++.XXXXXX.++$$$$++.XXXXXX.++$$$",
"$$$$++.XXXXXX.++$$$$++.XXXXXX.++$$$",
"$$$$++..XXXX..++$$$$++..XXXX..++$$$",
"$$$$+++......+++$$$$+++......+++$$$",
"$$$$++++++++++++$$$$++++++++++++$$$",
"$$$$$++++++++++$$$$$$++++++++++$$$$",
"$$$$$$$$$$$$$$$$$$$$$$$$$$$$$$$$$$$",
"$$$$$$$$$$$$$$$$$$$$$$$$$$$$$$$$$$$",
"$$$$$$$$$$$$$$$$$$$$$$$$$$$$$$$$$$$"
};
