/* XPM */
static char *result[] = {
/* columns rows colors chars-per-pixel */
"50 50 79 1 ",
"  c #BFAE7A",
". c #BDAD7C",
"X c #DEBB5B",
"o c #DFBE5B",
"O c #DFBF5B",
"+ c #CDB46B",
"@ c #CBB36D",
"# c #D3B665",
"$ c #D1B567",
"% c #C7B171",
"& c #DFC05B",
"* c #E0C15B",
"= c #E1C35B",
"- c #E2C75C",
"; c #E2C85C",
": c #E3C95C",
"> c #E3CA5C",
", c #E4CC5C",
"< c #E5CE5C",
"1 c #E5D05C",
"2 c #E7D55D",
"3 c #E7D65D",
"4 c #EADD5E",
"5 c #EBE05E",
"6 c #ECE25E",
"7 c #EDE55E",
"8 c #EFEA5F",
"9 c #F0ED5F",
"0 c #F0EE5F",
"q c #F2F35F",
"w c #F3F660",
"e c #F4F960",
"r c #F5FA60",
"t c #F6FE60",
"y c #F7FF61",
"u c #F7FF69",
"i c #F7FF6D",
"p c #F8FF74",
"a c #F8FF7A",
"s c #F8FF7E",
"d c #7F93BA",
"f c #7E93BB",
"g c #7B91BE",
"h c #5A84DF",
"j c #5D85DC",
"k c #5C85DD",
"l c #6A8ACF",
"z c #738EC6",
"x c #7890C0",
"c c #6387D6",
"v c #6287D7",
"b c #6488D5",
"n c #698AD0",
"m c #6187D8",
"M c #6086D9",
"N c #5A84E0",
"B c #AFA789",
"V c #A9A58F",
"C c #ACA68C",
"Z c #B4A984",
"A c #B8AB80",
"S c #A4A295",
"D c #8B98AE",
"F c #959CA3",
"G c #939CA5",
"H c #989DA1",
"J c #8796B2",
"K c #8395B6",
"L c #8897B0",
"P c #8897B1",
"I c #F9FF8C",
"U c #FAFF9E",
"Y c #FAFFA6",
"T c #FCFFC3",
"R c #FDFFD9",
"E c #FEFFEB",
"W c #FEFFED",
"Q c #FEFFF7",
"! c white",
/* pixels */
"NNNNNNNNNNNNNNNNNNNNNNNNNNNNNNNNNNNNNNNNNNNNNNNNNN",
"NNNNNNNNNNNNNNNNNNNNNNNNNNNNNNNNNNNNNNNNNNNNNNNNNN",
"NNNNNNNNNNNNNNNNNNNNNNNNNNNNNNNNNNNNNNNNNNNNNNNNNN",
"NNNNNNNNNNNNNNNNNNNNNNNNNNNNNNNNNNNNNNNNNNNNNNNNNN",
"NNNNNNNNNNNNNNNNNNNNNNNNNNNNNNNNNNNNNNNNNNNNNNNNNN",
"NNNNNNNNNNNNNNNNNNNNNNNNKfNNNNNNNNNNNNNNNNNNNNNNNN",
"NNNNNNNNNNNNNNNNNNNNNNNNX+NNNNNNNNNNNNNNNNNNNNNNNN",
"NNNNNNNNNNNNNNNNNNNNNNNNX+NNNNNNNNNNNNNNNNNNNNNNNN",
"NNNNNNNNNNNNNNNNNNNNNNNNX+NNNNNNNNNNNNNNNNNNNNNNNN",
"NNNNNNNNNNNNNNNNNNNNNNNNX+NNNNNNNNNNNNNNNNNNNNNNNN",
"NNNNNNNNNNNNNNNNNNNNNNNNX+NNNNNNNNNNNNNNNNNNNNNNNN",
"NNNNNNNNNNNNNNNNNNNNNN.XXXXCNNNNNNNNNNNNNNNNNNNNNN",
"NNNNNNNNNNNNNNNNNNNNNN.X,:XCNNNNNNNNNNNNNNNNNNNNNN",
"NNNNNNNNNNNNNNNNNNNNNN.XywXCNNNNNNNNNNNNNNNNNNNNNN",
"NNNNNNNNNNNNNNNNNNNNNN.XywXCNNNNNNNNNNNNNNNNNNNNNN",
"NNNNNNNNNNNNNNNNNNNNfC$XywX@CzNNNNNNNNNNNNNNNNNNNN",
"NNNNNNNNNNNNNNNNNNNNGXXXywXXXKNNNNNNNNNNNNNNNNNNNN",
"NNNNNNNNNNNNNNNNNNNNGX8rytr6XKNNNNNNNNNNNNNNNNNNNN",
"NNNNNNNNNNNNNNNNNhvvHX0yyyy7XLvvNNNNNNNNNNNNNNNNNN",
"NNNNNNNNNNNNNNNNNvXXXX0ysay7XXXXNNNNNNNNNNNNNNNNNN",
"NNNNNNNNNNNNnKKKKLX*11qy!Ey911oXKKKKKbNNNNNNNNNNNN",
"NNNNNNNNNNNNDXXXXXX1yyyy!Eyyyy-XXXXXXgNNNNNNNNNNNN",
"NNNNNNPCCCCC X277779yUTT!QTTIy877771XACCCCCfNNNNNN",
"NNNNNNSXXXXXXX7yyyyyyT!!!!!!Yyyyyyy4XXXXXXXGNNNNNN",
"NNNNNNclllllFX&====3yipp!Wppuy<====OXJlllllmNNNNNN",
"NNNNNNNNNNNNDXXXXXX1yyyy!Eyyyy-XXXXXXgNNNNNNNNNNNN",
"NNNNNNNNNNNNNNNNNvXXXX0yERy7XXXXNNNNNNNNNNNNNNNNNN",
"NNNNNNNNNNNNNNNNNM..@X0yyyy7X%..NNNNNNNNNNNNNNNNNN",
"NNNNNNNNNNNNNNNNNNNNGX0yyyy7XKNNNNNNNNNNNNNNNNNNNN",
"NNNNNNNNNNNNNNNNNNNNGX0yyyy7XKNNNNNNNNNNNNNNNNNNNN",
"NNNNNNNNNNNNNNNNNNNNGX>1ye1;XKNNNNNNNNNNNNNNNNNNNN",
"NNNNNNNNNNNNNNNNNNNNGXXXywXXXKNNNNNNNNNNNNNNNNNNNN",
"NNNNNNNNNNNNNNNNNNNNjv XywXBvkNNNNNNNNNNNNNNNNNNNN",
"NNNNNNNNNNNNNNNNNNNNNN.XywXCNNNNNNNNNNNNNNNNNNNNNN",
"NNNNNNNNNNNNNNNNNNNNNN.XywXCNNNNNNNNNNNNNNNNNNNNNN",
"NNNNNNNNNNNNNNNNNNNNNN.X75XCNNNNNNNNNNNNNNNNNNNNNN",
"NNNNNNNNNNNNNNNNNNNNNN.XXXXCNNNNNNNNNNNNNNNNNNNNNN",
"NNNNNNNNNNNNNNNNNNNNNNdDX#DxNNNNNNNNNNNNNNNNNNNNNN",
"NNNNNNNNNNNNNNNNNNNNNNNNX+NNNNNNNNNNNNNNNNNNNNNNNN",
"NNNNNNNNNNNNNNNNNNNNNNNNX+NNNNNNNNNNNNNNNNNNNNNNNN",
"NNNNNNNNNNNNNNNNNNNNNNNNX+NNNNNNNNNNNNNNNNNNNNNNNN",
"NNNNNNNNNNNNNNNNNNNNNNNNX+NNNNNNNNNNNNNNNNNNNNNNNN",
"NNNNNNNNNNNNNNNNNNNNNNNNZVNNNNNNNNNNNNNNNNNNNNNNNN",
"NNNNNNNNNNNNNNNNNNNNNNNNNNNNNNNNNNNNNNNNNNNNNNNNNN",
"NNNNNNNNNNNNNNNNNNNNNNNNNNNNNNNNNNNNNNNNNNNNNNNNNN",
"NNNNNNNNNNNNNNNNNNNNNNNNNNNNNNNNNNNNNNNNNNNNNNNNNN",
"NNNNNNNNNNNNNNNNNNNNNNNNNNNNNNNNNNNNNNNNNNNNNNNNNN",
"NNNNNNNNNNNNNNNNNNNNNNNNNNNNNNNNNNNNNNNNNNNNNNNNNN",
"NNNNNNNNNNNNNNNNNNNNNNNNNNNNNNNNNNNNNNNNNNNNNNNNNN",
"NNNNNNNNNNNNNNNNNNNNNNNNNNNNNNNNNNNNNNNNNNNNNNNNNN"
};
