/* XPM */
static char *result[] = {
/* columns rows colors chars-per-pixel */
"50 50 39 1 ",
"  c #FF0032",
". c #FF0033",
"X c #FF0633",
"o c #FF0034",
"O c #FF0035",
"+ c #FF0036",
"@ c #FF0037",
"# c #FF0737",
"$ c #FF0D36",
"% c #FF1936",
"& c #FF1837",
"* c #FF1F3B",
"= c #FF2436",
"- c #FD2D3B",
"; c #FC3B3C",
": c #FC503D",
"> c #F6AF46",
", c #F3D74B",
"< c #F3D54C",
"1 c #F2D44D",
"2 c #F2D54D",
"3 c #F3D54D",
"4 c #F3D74C",
"5 c #F3D64D",
"6 c #F2D74D",
"7 c #F3D74D",
"8 c #F2D44E",
"9 c #F2D54E",
"0 c #F3D54E",
"q c #F3D54F",
"w c #F2D64E",
"e c #F3D64E",
"r c #F2D74E",
"t c #F5D74C",
"y c #F4D64F",
"u c #F3D84E",
"i c #F4D84D",
"p c #F5DB4E",
"a c #F4DC4E",
/* pixels */
"1<468888++++8857iipaa00*@@@8888++++85766u6566666,6",
"356r8888++++90888888881>$++8888++++e888888888888t2",
"28888888++++00000000000;:&#8888++++qq009qy0008888w",
"88888888++++00000000000;:&#8888++++qq009qy0008888w",
"8888++++8888++ ......oO8888++++X ++++++++++++++885",
"8888++++8888++@O++++++O8888++++++++++++++++++++885",
"8888++++8888++@+++++++O8888+++++O++++++++++++++555",
"OO++++++8888+++++++++++8888++++++++++++++++++++555",
"OOO+++++++.......+++++++++++++...++++++++++++++555",
"OOO+++++++.......+++++++++++++...++++++++++++++555",
"OO++++++++OOOOOOOOO+++++++++++OOOO++++OOOOO++++555",
"888++++OO++++++++++++++++++++++++++++++++++++++555",
"888++++OO+++++++++++++++++++@@@@@@+++++++++++++555",
"888++++OO+++++++++++++++++++@@@@@@@++++O+++++++555",
"888++++OO+++++++++++++++++++=%%%%$-++++O+++%+++555",
"888++++++++++++++++++5555++++++++++5555++++++++555",
"888++++++++++++++++++5555++++++++++5555++++++++555",
"888++++3333++++++++++5555++++++++++5555++++++++555",
"888++++3333++++++++++5555++++++++++5555++++++++555",
"88883553333333333333333333333333333++++33333333333",
"33333553333333333333333333333333333++++33333333333",
"33333333333333333333333333333333333++++33333333333",
"33333333333333333333333333333333333++++33333333333",
"1<468888++++8857iipaa00*@@@8888++++85766u6566666,6",
"356r8888++++90888888881>$++8888++++e888888888888t2",
"28888888++++00000000000;:&#8888++++qq009qy0008888w",
"88888888++++00000000000;:&#8888++++qq009qy0008888w",
"8888++++8888++ ......oO8888++++X ++++++++++++++885",
"8888++++8888++@O++++++O8888++++++++++++++++++++885",
"8888++++8888++@+++++++O8888+++++O++++++++++++++555",
"OO++++++8888+++++++++++8888++++++++++++++++++++555",
"OOO+++++++.......+++++++++++++...++++++++++++++555",
"OOO+++++++.......+++++++++++++...++++++++++++++555",
"OO++++++++OOOOOOOOO+++++++++++OOOO++++OOOOO++++555",
"888++++OO++++++++++++++++++++++++++++++++++++++555",
"888++++OO+++++++++++++++++++@@@@@@+++++++++++++555",
"888++++OO+++++++++++++++++++@@@@@@@++++O+++++++555",
"888++++OO+++++++++++++++++++=%%%%$-++++O+++%+++555",
"888++++++++++++++++++5555++++++++++5555++++++++555",
"888++++++++++++++++++5555++++++++++5555++++++++555",
"888++++3333++++++++++5555++++++++++5555++++++++555",
"888++++3333++++++++++5555++++++++++5555++++++++555",
"88883553333333333333333333333333333++++33333333333",
"33333553333333333333333333333333333++++33333333333",
"33333333333333333333333333333333333++++33333333333",
"33333333333333333333333333333333333++++33333333333",
"33333333333333333333333333333333333333333333333333",
"33333333333333333333333333333333333333333333333333",
"33333333333333333333333333333333333333333333333333",
"33333333333333333333333333333333333333333333333333"
};
